<svg width="64" height="64" viewBox="0 0 64 64" fill="none" xmlns="http://www.w3.org/2000/svg">
<path d="M29.7337 9.06516L19.8137 25.2785C18.7203 27.0385 20.0003 29.3318 22.0803 29.3318H41.8937C43.9737 29.3318 45.2537 27.0385 44.1603 25.2785L34.267 9.06516C33.227 7.35849 30.7737 7.35849 29.7337 9.06516Z" fill="#5A6275"/>
<path d="M46.668 58.668C53.2954 58.668 58.668 53.2954 58.668 46.668C58.668 40.0406 53.2954 34.668 46.668 34.668C40.0406 34.668 34.668 40.0406 34.668 46.668C34.668 53.2954 40.0406 58.668 46.668 58.668Z" fill="#5A6275"/>
<path d="M10.6667 57.3333H26.6667C28.1333 57.3333 29.3333 56.1333 29.3333 54.6667V38.6667C29.3333 37.2 28.1333 36 26.6667 36H10.6667C9.2 36 8 37.2 8 38.6667V54.6667C8 56.1333 9.2 57.3333 10.6667 57.3333Z" fill="#5A6275"/>
</svg>
