<svg width="64" height="64" viewBox="0 0 64 64" fill="none" xmlns="http://www.w3.org/2000/svg">
<path d="M18.6654 10.6654C18.6654 7.70536 16.292 5.33203 13.332 5.33203C10.372 5.33203 7.9987 7.70536 7.9987 10.6654C7.9987 13.6254 10.372 15.9987 13.332 15.9987C16.292 15.9987 18.6654 13.6254 18.6654 10.6654ZM27.172 11.9987C26.0787 11.9987 25.1454 12.6654 24.7187 13.6787C23.5454 16.612 20.692 18.6654 17.332 18.6654H9.33203C7.1187 18.6654 5.33203 20.452 5.33203 22.6654V29.332H21.332V23.3054C25.1454 22.1054 28.212 19.2254 29.652 15.5454C30.3454 13.8387 29.012 11.9987 27.172 11.9987ZM50.6654 45.332C53.6254 45.332 55.9987 42.9587 55.9987 39.9987C55.9987 37.0387 53.6254 34.6654 50.6654 34.6654C47.7054 34.6654 45.332 37.0387 45.332 39.9987C45.332 42.9587 47.7054 45.332 50.6654 45.332ZM54.6654 47.9987H46.6654C43.3054 47.9987 40.452 45.9454 39.2787 43.012C38.8787 41.9987 37.9187 41.332 36.8254 41.332C34.9854 41.332 33.652 43.172 34.3187 44.8787C35.7854 48.5587 38.8254 51.4387 42.6387 52.6387V58.6654H58.6387V51.9987C58.6654 49.7854 56.8787 47.9987 54.6654 47.9987ZM45.9987 29.572C45.9987 29.572 45.9987 29.5454 46.0254 29.572C43.1987 30.292 40.9587 32.532 40.2387 35.3587V35.332C39.9454 36.4787 38.8787 37.332 37.6254 37.332C36.1587 37.332 34.9587 36.132 34.9587 34.6654C34.9587 34.532 35.012 34.292 35.012 34.292C36.1587 29.3587 40.052 25.4654 45.012 24.3454C45.1187 24.3454 45.2254 24.3187 45.332 24.3187C46.7987 24.3187 47.9987 25.5187 47.9987 26.9854C47.9987 28.212 47.1454 29.2787 45.9987 29.572ZM47.9987 16.1587C47.9987 17.5187 47.012 18.612 45.7054 18.7987C37.1987 19.8387 30.5054 26.5587 29.4654 35.0654C29.2787 36.3454 28.1587 37.332 26.8254 37.332C25.3587 37.332 24.1587 36.132 24.1587 34.6654C24.1587 34.612 24.1587 34.5587 24.1587 34.5054C24.1587 34.4787 24.1587 34.452 24.1587 34.4254C25.492 23.4387 34.2654 14.7454 45.2787 13.492H45.3054C46.7987 13.492 47.9987 14.692 47.9987 16.1587Z" fill="#5A6275"/>
</svg>
