<svg width="64" height="64" viewBox="0 0 64 64" fill="none" xmlns="http://www.w3.org/2000/svg">
<path d="M13.3315 35.1461V42.6394C13.3315 44.5861 14.3981 46.3994 16.1048 47.3328L29.4381 54.6128C31.0381 55.4928 32.9581 55.4928 34.5581 54.6128L47.8915 47.3328C49.5981 46.3994 50.6648 44.5861 50.6648 42.6394V35.1461L34.5581 43.9461C32.9581 44.8261 31.0381 44.8261 29.4381 43.9461L13.3315 35.1461ZM29.4381 9.38609L6.95812 21.6528C5.11812 22.6661 5.11812 25.3328 6.95812 26.3461L29.4381 38.6128C31.0381 39.4928 32.9581 39.4928 34.5581 38.6128L55.9981 26.9061V42.6661C55.9981 44.1328 57.1981 45.3328 58.6648 45.3328C60.1315 45.3328 61.3315 44.1328 61.3315 42.6661V25.5728C61.3315 24.5861 60.7981 23.7061 59.9448 23.2261L34.5581 9.38609C32.9581 8.53276 31.0381 8.53276 29.4381 9.38609Z" fill="#5A6275"/>
</svg>
