<svg width="64" height="64" viewBox="0 0 64 64" fill="none" xmlns="http://www.w3.org/2000/svg">
<path d="M51.4654 45.0654C53.012 42.372 53.9987 39.1187 52.8254 35.332C51.412 30.7454 47.3854 27.1987 42.5854 26.7454C34.932 25.9987 28.6387 32.2654 29.3854 39.9454C29.8654 44.7187 33.3854 48.772 37.972 50.1854C41.7854 51.3587 45.012 50.372 47.7054 48.8254L54.372 55.492C55.412 56.532 57.0654 56.532 58.1054 55.492C59.1454 54.452 59.1454 52.7987 58.1054 51.7587L51.4654 45.0654ZM41.332 45.332C37.5987 45.332 34.6654 42.3987 34.6654 38.6654C34.6654 34.932 37.5987 31.9987 41.332 31.9987C45.0654 31.9987 47.9987 34.932 47.9987 38.6654C47.9987 42.3987 45.0654 45.332 41.332 45.332ZM31.9987 53.332V58.6654C17.2787 58.6654 5.33203 46.7187 5.33203 31.9987C5.33203 17.2787 17.2787 5.33203 31.9987 5.33203C44.9054 5.33203 55.652 14.5054 58.132 26.6654H52.612C50.9054 20.1054 46.212 14.7454 39.9987 12.2387V13.332C39.9987 16.2654 37.5987 18.6654 34.6654 18.6654H29.332V23.9987C29.332 25.4654 28.132 26.6654 26.6654 26.6654H21.332V31.9987H26.6654V39.9987H23.9987L11.2254 27.2254C10.8787 28.772 10.6654 30.3454 10.6654 31.9987C10.6654 43.7587 20.2387 53.332 31.9987 53.332Z" fill="#5A6275"/>
</svg>
