<svg width="64" height="64" viewBox="0 0 64 64" fill="none" xmlns="http://www.w3.org/2000/svg">
<path d="M56.0013 8H8.0013C5.06797 8 2.66797 10.4 2.66797 13.3333V45.3333C2.66797 48.2667 5.06797 50.6667 8.0013 50.6667H21.3346V53.3333C21.3346 54.8 22.5346 56 24.0013 56H40.0013C41.468 56 42.668 54.8 42.668 53.3333V50.6667H56.0013C58.9346 50.6667 61.308 48.2667 61.308 45.3333L61.3346 13.3333C61.3346 10.3733 58.9346 8 56.0013 8ZM53.3346 45.3333H10.668C9.2013 45.3333 8.0013 44.1333 8.0013 42.6667V16C8.0013 14.5333 9.2013 13.3333 10.668 13.3333H53.3346C54.8013 13.3333 56.0013 14.5333 56.0013 16V42.6667C56.0013 44.1333 54.8013 45.3333 53.3346 45.3333ZM38.6146 31.6533L28.0013 37.7333C26.2146 38.7467 24.0013 37.44 24.0013 35.4133V23.2533C24.0013 21.2 26.2146 19.92 28.0013 20.9333L38.6146 27.0133C40.4013 28.0533 40.4013 30.6133 38.6146 31.6533Z" fill="#5A6275"/>
</svg>
