<svg width="64" height="64" viewBox="0 0 64 64" fill="none" xmlns="http://www.w3.org/2000/svg">
<path d="M43.037 33.332C43.037 35.9987 42.7704 38.2654 42.237 40.132C41.7037 41.9987 40.957 43.5187 40.0237 44.6654C39.0637 45.8387 37.917 46.6654 36.557 47.1987C35.197 47.732 33.7037 47.9987 32.0237 47.9987C30.3704 47.9987 28.877 47.732 27.517 47.1987C26.157 46.6654 24.9837 45.8387 24.0237 44.6654C23.0637 43.492 22.2904 41.972 21.757 40.132C21.2237 38.2654 20.957 35.9987 20.957 33.332V27.892C20.957 25.2254 21.2237 22.9587 21.757 21.092C22.2904 19.2254 23.037 17.732 23.997 16.5854C24.957 15.4387 26.1304 14.612 27.4904 14.1054C28.8237 13.5987 30.3437 13.332 31.997 13.332C33.677 13.332 35.1704 13.5987 36.5304 14.1054C37.8904 14.612 39.0637 15.4387 40.0237 16.5854C40.9837 17.732 41.7304 19.2254 42.2637 21.092C42.797 22.9587 43.0637 25.1987 43.0637 27.892V33.332H43.037ZM37.4104 27.0387C37.4104 25.332 37.277 23.892 37.0637 22.7187C36.8237 21.5454 36.477 20.612 35.997 19.892C35.5437 19.172 34.957 18.6654 34.2904 18.3454C33.6237 17.9987 32.8504 17.8387 31.997 17.8387C31.1437 17.8387 30.3704 17.9987 29.7037 18.3187C29.037 18.6387 28.4504 19.1454 27.997 19.8654C27.5437 20.5854 27.1704 21.5187 26.9304 22.692C26.6904 23.8654 26.5837 25.3054 26.5837 27.012V34.132C26.5837 35.8387 26.717 37.2787 26.957 38.452C27.197 39.652 27.5704 40.612 28.0237 41.3587C28.477 42.1054 29.0637 42.6387 29.7304 42.9854C30.397 43.332 31.1704 43.492 32.0504 43.492C32.9304 43.492 33.7037 43.332 34.3704 42.9854C35.037 42.6387 35.597 42.1054 36.0504 41.3587C36.5037 40.612 36.8504 39.652 37.0904 38.452C37.3304 37.252 37.437 35.812 37.437 34.132V27.0387H37.4104Z" fill="#5A6275"/>
</svg>
