<svg width="500" height="582" viewBox="0 0 500 582" fill="none" xmlns="http://www.w3.org/2000/svg">
<path fill-rule="evenodd" clip-rule="evenodd" d="M255.76 209.188C260.013 212.424 262.544 216.534 259.782 221.16C257.453 225.064 252.105 225.104 246.396 223.668C247.251 226.092 248.252 228.463 249.393 230.77C251.878 235.791 253.96 239.417 255.64 241.646C258.837 245.889 264.744 241.836 273.363 229.488C276.765 224.614 282.334 221.71 288.278 221.71C288.822 221.71 289.363 221.765 289.896 221.874C294.234 222.768 297.027 227.009 296.134 231.347C286.557 277.86 278.957 303.236 273.333 307.474C264.332 314.257 255.968 344.237 255.968 344.237L205.442 336.91L199.829 314.872C198.121 308.165 197.838 301.173 198.998 294.349L211.546 220.562C212.384 215.632 213.937 210.85 216.155 206.368L220.885 196.808C224.596 189.31 232.476 184.804 240.819 185.41L285.957 188.684C289.798 188.963 293.151 191.39 294.615 194.952C296.746 200.139 294.269 206.072 289.082 208.204C284.846 209.945 273.738 210.273 255.76 209.188Z" fill="#8093B8"/>
<path fill-rule="evenodd" clip-rule="evenodd" d="M203.869 250.167L195.021 265.177C194.917 265.353 194.821 265.534 194.733 265.718L163.352 331.361L169.14 365.768L219.304 327.502L216.731 289.88L201.939 299.848L209.93 252.378C210.23 250.591 209.026 248.899 207.239 248.598C205.899 248.373 204.559 248.997 203.869 250.167Z" fill="#9AACD3"/>
<path fill-rule="evenodd" clip-rule="evenodd" d="M169.462 258.008C157.218 253.531 144.975 249.054 132.731 244.577C102.709 233.599 69.4715 249.037 58.4934 279.06C56.405 284.771 55.2297 290.776 55.0107 296.853L52.7358 359.979H182.646C173.857 291.998 169.462 258.008 169.462 258.008Z" fill="#CBDBFE"/>
<path fill-rule="evenodd" clip-rule="evenodd" d="M163.907 135.521L193.645 133.047L198.767 98.6495C198.924 97.5956 199.906 96.8684 200.96 97.0254C201.803 97.1511 202.465 97.816 202.585 98.6606L208.108 137.283C208.661 141.15 205.973 144.734 202.106 145.287C202.074 145.292 202.043 145.296 202.011 145.3L167.075 149.816C162.708 150.38 158.688 147.361 158.012 143.011C157.46 139.457 159.893 136.128 163.447 135.576C163.6 135.553 163.753 135.534 163.907 135.521Z" fill="#DFE9FF"/>
<mask id="mask0" style="mask-type:alpha" maskUnits="userSpaceOnUse" x="53" y="0" width="135" height="261">
<path d="M87.91 258.254C85.8273 259.056 83.5316 259.399 81.159 259.172C80.279 259.088 79.4078 258.929 78.5545 258.698C70.2005 256.436 65.2623 247.829 67.5249 239.475L71.0299 226.534L70.9793 226.562C68.2349 228.075 64.9947 228.411 61.9981 227.495C55.88 225.623 52.4374 219.146 54.3088 213.028L72.6063 149.391C74.1135 141.98 76.8106 132.849 81.1654 119.622L81.6759 117.847L81.6968 118.013C87.0588 101.815 94.8134 79.6363 105.758 47.4252C105.962 46.8266 111.985 28.7335 112.19 28.1316C113.485 26.4049 115.934 26.055 117.661 27.35C118.361 27.8752 118.865 28.6204 119.091 29.4661L123.123 44.5311L128.654 3.89516C128.989 1.43158 131.258 -0.293681 133.722 0.0416751C135.477 0.280617 136.929 1.52678 137.432 3.22552L138.236 5.94396L184.297 155.644C186.164 161.71 187.113 168.021 187.113 174.368V234.573C187.113 249.135 175.308 260.941 160.745 260.941H99.5176C95.3582 260.941 91.4167 259.976 87.91 258.254Z" fill="white"/>
</mask>
<g mask="url(#mask0)">
<path d="M87.91 258.254C85.8273 259.056 83.5316 259.399 81.159 259.172C80.279 259.088 79.4078 258.929 78.5545 258.698C70.2005 256.436 65.2623 247.829 67.5249 239.475L71.0299 226.534L70.9793 226.562C68.2349 228.075 64.9947 228.411 61.9981 227.495C55.88 225.623 52.4374 219.146 54.3088 213.028L72.6063 149.391C74.1135 141.98 76.8106 132.849 81.1654 119.622L81.6759 117.847L81.6968 118.013C87.0588 101.815 94.8134 79.6363 105.758 47.4252C105.962 46.8266 111.985 28.7335 112.19 28.1316C113.485 26.4049 115.934 26.055 117.661 27.35C118.361 27.8752 118.865 28.6204 119.091 29.4661L123.123 44.5311L128.654 3.89516C128.989 1.43158 131.258 -0.293681 133.722 0.0416751C135.477 0.280617 136.929 1.52678 137.432 3.22552L138.236 5.94396L184.297 155.644C186.164 161.71 187.113 168.021 187.113 174.368V234.573C187.113 249.135 175.308 260.941 160.745 260.941H99.5176C95.3582 260.941 91.4167 259.976 87.91 258.254Z" fill="#CBDBFE"/>
<path fill-rule="evenodd" clip-rule="evenodd" d="M185.505 162.541C184.219 159.111 182.289 157.718 179.717 158.361C177.145 159.004 175.43 161.362 174.572 165.435C170.607 158.993 163.319 155.371 155.79 156.103C153.59 156.317 151.169 156.641 148.526 157.075C132.919 159.64 125.506 175.051 124.73 183.121C124.071 189.982 124.613 185.4 124.765 202.736C124.798 206.467 122.946 216.386 119.208 232.491C117.442 240.103 122.181 247.706 129.793 249.472C130.812 249.708 131.854 249.831 132.901 249.838C147.081 249.928 155.076 249.877 156.886 249.684C166.457 248.664 168.532 246.468 175.571 246.468C181.509 246.468 184.403 247.969 184.253 250.97C194.534 246.936 200.096 236.753 200.94 220.422C201.784 204.092 196.639 184.798 185.505 162.541Z" fill="#B0BFDC"/>
</g>
<path fill-rule="evenodd" clip-rule="evenodd" d="M155.6 234.895H160.745L159.265 241.636C159.153 242.148 158.742 242.54 158.226 242.628C157.525 242.748 156.861 242.277 156.741 241.577L155.6 234.895ZM180.682 234.895H185.827L184.347 241.636C184.235 242.148 183.824 242.54 183.307 242.628C182.607 242.748 181.942 242.277 181.823 241.577L180.682 234.895Z" fill="white"/>
<mask id="mask1" style="mask-type:alpha" maskUnits="userSpaceOnUse" x="246" y="310" width="254" height="272">
<path d="M391.114 417.878C405.456 382.86 415.297 363.421 420.634 359.562C427.176 354.832 434.582 355.946 437.698 359.81C448.057 349.763 458.279 349.513 468.366 359.058C469.237 359.645 470.035 360.236 470.758 360.831C474.227 360.776 477.734 361.442 481.28 362.827C499.09 369.788 496.535 384.326 473.617 406.442L408.016 481.908C400.226 490.869 390.107 497.499 378.781 501.062C375.862 501.981 372.129 505.056 367.581 510.288C363.539 514.937 361.342 518.428 360.989 520.76C359.161 532.821 353.942 544.113 345.939 553.319L337.534 562.988C336.849 563.776 336.113 564.518 335.33 565.21C325.482 573.911 310.444 572.981 301.743 563.132L286.444 545.817L286.323 545.928L286.144 545.477L283.211 542.157L284.367 541.014L265.31 493.149L346.649 417.714L390.274 418.994C390.555 418.621 390.835 418.249 391.114 417.878Z" fill="white"/>
</mask>
<g mask="url(#mask1)">
<path d="M391.114 417.878C405.456 382.86 415.297 363.421 420.634 359.562C427.176 354.832 434.582 355.946 437.698 359.81C448.057 349.763 458.279 349.513 468.366 359.058C469.237 359.645 470.035 360.236 470.758 360.831C474.227 360.776 477.734 361.442 481.28 362.827C499.09 369.788 496.535 384.326 473.617 406.442L408.016 481.908C400.226 490.869 390.107 497.499 378.781 501.062C375.862 501.981 372.129 505.056 367.581 510.288C363.539 514.937 361.342 518.428 360.989 520.76C359.161 532.821 353.942 544.113 345.939 553.319L337.534 562.988C336.849 563.776 336.113 564.518 335.33 565.21C325.482 573.911 310.444 572.981 301.743 563.132L286.444 545.817L286.323 545.928L286.144 545.477L283.211 542.157L284.367 541.014L265.31 493.149L346.649 417.714L390.274 418.994C390.555 418.621 390.835 418.249 391.114 417.878Z" fill="#8093B8"/>
</g>
<mask id="mask2" style="mask-type:alpha" maskUnits="userSpaceOnUse" x="129" y="199" width="33" height="19">
<path d="M152.385 199.201H138.236C133.264 199.201 129.232 203.232 129.232 208.205C129.232 213.177 133.264 217.209 138.236 217.209H152.385C157.357 217.209 161.388 213.177 161.388 208.205C161.388 203.232 157.357 199.201 152.385 199.201Z" fill="white"/>
</mask>
<g mask="url(#mask2)">
<path d="M152.385 199.201H138.236C133.264 199.201 129.232 203.232 129.232 208.205C129.232 213.177 133.264 217.209 138.236 217.209H152.385C157.357 217.209 161.388 213.177 161.388 208.205C161.388 203.232 157.357 199.201 152.385 199.201Z" fill="white"/>
<path d="M161.71 206.275C161.71 202.368 158.543 199.201 154.636 199.201C150.729 199.201 147.561 202.368 147.561 206.275V210.134C147.561 214.041 150.729 217.209 154.636 217.209C158.543 217.209 161.71 214.041 161.71 210.134V206.275Z" fill="#2B2B2B"/>
</g>
<mask id="mask3" style="mask-type:alpha" maskUnits="userSpaceOnUse" x="178" y="199" width="10" height="19">
<path d="M187.113 199.201V217.209C182.318 217.209 178.431 213.321 178.431 208.526V207.883C178.431 203.088 182.318 199.201 187.113 199.201Z" fill="white"/>
</mask>
<g mask="url(#mask3)">
<path d="M187.113 199.201V217.209C182.318 217.209 178.431 213.321 178.431 208.526V207.883C178.431 203.088 182.318 199.201 187.113 199.201Z" fill="white"/>
<path d="M197.403 206.275C197.403 202.368 194.236 199.201 190.329 199.201C186.422 199.201 183.254 202.368 183.254 206.275V210.134C183.254 214.041 186.422 217.209 190.329 217.209C194.236 217.209 197.403 214.041 197.403 210.134V206.275Z" fill="#2B2B2B"/>
</g>
<path fill-rule="evenodd" clip-rule="evenodd" d="M329.92 471.564C340.288 469.969 349.049 463.032 352.979 453.306L353.073 453.075C357.099 443.11 355.964 431.802 350.037 422.836L346.963 418.186C358.239 422.286 370.704 416.469 374.804 405.193C374.9 404.93 374.99 404.664 375.076 404.397L378.797 392.782C360.257 394.573 347.181 393.287 339.567 388.924C331.953 384.561 325.522 379.201 320.273 372.846L314.164 383.136L329.92 471.564Z" fill="#9AACD3"/>
<mask id="mask4" style="mask-type:alpha" maskUnits="userSpaceOnUse" x="178" y="471" width="272" height="102">
<path d="M346.931 517.126C382.77 504.976 403.896 499.649 410.31 501.146C418.172 502.98 422.189 509.3 421.318 514.187C435.696 515.413 442.592 522.964 442.006 536.839L440.029 537.634C443.437 540.597 445.971 544.406 447.633 549.058C454.064 567.066 441.416 574.676 409.689 571.889H309.696C297.823 571.889 286.181 568.602 276.06 562.392C273.452 560.792 268.682 559.991 261.749 559.991C255.589 559.991 251.513 560.623 249.521 561.886C239.22 568.42 227.274 571.889 215.075 571.889H202.263C201.219 571.889 200.176 571.82 199.141 571.683C186.113 569.959 176.949 558 178.674 544.972L181.705 522.066L181.542 522.047L181.765 521.616L182.346 517.224L183.967 517.347L207.589 471.562L317.884 483.46L345.538 517.224C346.004 517.191 346.468 517.158 346.931 517.126Z" fill="white"/>
</mask>
<g mask="url(#mask4)">
<path d="M346.931 517.126C382.77 504.976 403.896 499.649 410.31 501.146C418.172 502.98 422.189 509.3 421.318 514.187C435.696 515.413 442.592 522.964 442.006 536.839L440.029 537.634C443.437 540.597 445.971 544.406 447.633 549.058C454.064 567.066 441.416 574.676 409.689 571.889H309.696C297.823 571.889 286.181 568.602 276.06 562.392C273.452 560.792 268.682 559.991 261.749 559.991C255.589 559.991 251.513 560.623 249.521 561.886C239.22 568.42 227.274 571.889 215.075 571.889H202.263C201.219 571.889 200.176 571.82 199.141 571.683C186.113 569.959 176.949 558 178.674 544.972L181.705 522.066L181.542 522.047L181.765 521.616L182.346 517.224L183.967 517.347L207.589 471.562L317.884 483.46L345.538 517.224C346.004 517.191 346.468 517.158 346.931 517.126Z" fill="#B0BFDC"/>
<path d="M443.197 536.421C442.943 536.06 442.451 535.48 441.695 534.757C440.467 533.582 438.926 532.415 437.049 531.331C428.102 526.165 415.118 524.633 397.471 528.835C396.78 528.999 396.353 529.693 396.518 530.384C396.682 531.075 397.376 531.502 398.067 531.337C415.097 527.282 427.408 528.735 435.762 533.559C437.458 534.538 438.835 535.581 439.917 536.616C440.289 536.972 440.596 537.299 440.841 537.588C440.98 537.75 441.062 537.857 441.091 537.899C441.5 538.481 442.302 538.621 442.883 538.213C443.465 537.805 443.605 537.002 443.197 536.421Z" fill="#7181A1"/>
<path d="M447.073 547.45C447.783 547.45 448.359 548.025 448.359 548.736C448.359 549.446 447.783 550.022 447.073 550.022C445.188 550.022 436.314 547.984 430.193 545.979C426.216 544.676 423.154 543.362 421.285 542.058C418.62 540.198 418.058 537.846 420.624 536.097C425.74 532.608 433.075 532.608 442.571 535.946C443.241 536.182 443.593 536.916 443.358 537.586C443.122 538.256 442.388 538.609 441.718 538.373C432.917 535.28 426.389 535.28 422.073 538.222C421.312 538.741 421.369 538.98 422.758 539.949C424.368 541.072 427.238 542.304 430.993 543.534C436.871 545.46 445.537 547.45 447.073 547.45ZM431.211 512.721C431.922 512.721 432.498 513.297 432.498 514.007C432.498 514.718 431.922 515.294 431.211 515.294C429.11 515.294 427.611 515.131 424.525 514.661L424.438 514.648C420.042 513.978 417.899 513.848 414.503 514.296C409.975 514.894 404.483 516.634 397.239 519.931C396.593 520.225 395.83 519.94 395.536 519.293C395.241 518.647 395.527 517.884 396.173 517.59C403.632 514.195 409.359 512.381 414.166 511.746C417.858 511.258 420.208 511.401 424.825 512.104L424.912 512.118C427.877 512.569 429.276 512.721 431.211 512.721Z" fill="#7181A1"/>
</g>
<path fill-rule="evenodd" clip-rule="evenodd" d="M173.827 190.537L182.981 219.199C183.926 222.156 182.294 225.319 179.337 226.264C178.815 226.43 178.272 226.52 177.725 226.529L174.735 226.581C172.25 226.625 170.199 224.645 170.156 222.159C170.155 222.137 170.155 222.116 170.155 222.094L170.06 191.13C170.056 190.064 170.917 189.198 171.983 189.195C172.825 189.192 173.571 189.735 173.827 190.537Z" fill="#7181A1"/>
<mask id="mask5" style="mask-type:alpha" maskUnits="userSpaceOnUse" x="31" y="286" width="316" height="232">
<path d="M55.9514 345.191L33.0606 447.104C26.8335 474.828 44.2603 502.351 71.9844 508.578C75.6851 509.41 79.4665 509.829 83.2595 509.829H135.837C159.854 509.829 181.869 496.447 192.927 475.128L215.123 432.333L182.324 517.225H197.4C213.879 517.225 229.457 509.703 239.705 496.798L249.53 484.426V496.002C249.53 507.723 259.032 517.225 270.753 517.225C283.493 517.225 294.869 509.25 299.213 497.274L303.874 484.426L309.055 494.398C316.343 508.424 330.835 517.225 346.641 517.225C331.648 472.497 323.073 436.589 320.917 409.502C318.76 382.416 321.225 341.578 328.312 286.988H264.644L149.847 355.802L55.9514 345.191Z" fill="white"/>
</mask>
<g mask="url(#mask5)">
<path d="M55.9514 345.191L33.0606 447.104C26.8335 474.828 44.2603 502.351 71.9844 508.578C75.6851 509.41 79.4665 509.829 83.2595 509.829H135.837C159.854 509.829 181.869 496.447 192.927 475.128L215.123 432.333L182.324 517.225H197.4C213.879 517.225 229.457 509.703 239.705 496.798L249.53 484.426V496.002C249.53 507.723 259.032 517.225 270.753 517.225C283.493 517.225 294.869 509.25 299.213 497.274L303.874 484.426L309.055 494.398C316.343 508.424 330.835 517.225 346.641 517.225C331.648 472.497 323.073 436.589 320.917 409.502C318.76 382.416 321.225 341.578 328.312 286.988H264.644L149.847 355.802L55.9514 345.191Z" fill="#9AACD3"/>
</g>
<path d="M132.393 241.272C135.807 237.858 138.37 236.182 139.844 236.182H186.47C187.181 236.182 187.756 235.606 187.756 234.896C187.756 234.185 187.181 233.609 186.47 233.609H139.844C137.459 233.609 134.449 235.578 130.574 239.453C130.072 239.955 130.072 240.769 130.574 241.272C131.076 241.774 131.891 241.774 132.393 241.272Z" fill="#7181A1"/>
<mask id="mask6" style="mask-type:alpha" maskUnits="userSpaceOnUse" x="130" y="199" width="31" height="19">
<path d="M160.184 203.703H130.437C131.994 201.012 134.904 199.201 138.236 199.201H152.385C155.717 199.201 158.627 201.012 160.184 203.703V203.703ZM159.775 213.35C158.148 215.682 155.444 217.209 152.385 217.209H138.236C135.177 217.209 132.473 215.682 130.846 213.35H159.775Z" fill="white"/>
</mask>
<g mask="url(#mask6)">
<path d="M160.184 203.703H130.437C131.994 201.012 134.904 199.201 138.236 199.201H152.385C155.717 199.201 158.627 201.012 160.184 203.703V203.703ZM159.775 213.35C158.148 215.682 155.444 217.209 152.385 217.209H138.236C135.177 217.209 132.473 215.682 130.846 213.35H159.775Z" fill="#7181A1"/>
</g>
<path fill-rule="evenodd" clip-rule="evenodd" d="M325.376 254.627L271.558 288.284L349.926 303.502L384.245 277.902C391.537 272.462 397.318 265.249 401.038 256.947L410.349 236.175C413.416 229.33 413.077 221.439 409.433 214.883L404.145 205.367L403.884 205.53C402.872 199.82 401.667 193.029 400.271 185.155C399.501 180.814 396.835 177.042 392.999 174.869L389.409 172.834L383.192 169.86L382.626 164.311L345.672 131.621C345.563 131.525 345.452 131.431 345.34 131.34C340.89 127.724 334.352 128.401 330.736 132.851C327.489 136.847 327.312 142.387 330.006 146.532C327.157 147.104 324.601 148.962 323.251 151.785C323.055 152.193 322.889 152.614 322.754 153.046C320.875 159.024 323.819 165.454 329.572 167.938L361.028 181.519C362.936 200.43 363.89 209.885 363.89 209.885C363.89 209.885 332.246 233.555 322.935 235.196C316.727 236.291 311.981 234.851 308.695 230.877L321.866 191.743C321.904 191.63 321.94 191.516 321.974 191.402C323.749 185.51 320.411 179.294 314.519 177.52C308.358 175.664 301.838 179.042 299.801 185.145C287.679 221.458 282.213 242.988 283.403 249.735C285.36 260.834 271.031 288.465 271.031 288.465L325.376 254.627Z" fill="#B0BFDC"/>
<mask id="mask7" style="mask-type:alpha" maskUnits="userSpaceOnUse" x="179" y="199" width="9" height="19">
<path d="M187.113 203.703H179.314C180.871 201.012 183.78 199.201 187.113 199.201V203.703ZM187.113 217.209C184.053 217.209 181.35 215.682 179.723 213.35H187.113V217.209Z" fill="white"/>
</mask>
<g mask="url(#mask7)">
<path d="M187.113 203.703H179.314C180.871 201.012 183.78 199.201 187.113 199.201V203.703ZM187.113 217.209C184.053 217.209 181.35 215.682 179.723 213.35H187.113V217.209Z" fill="#7181A1"/>
</g>
<path fill-rule="evenodd" clip-rule="evenodd" d="M354.929 116.591L312.209 115.325C307.634 115.19 303.684 118.509 303.031 123.04L289.317 218.173L342.723 224.838L351.096 219.036L363.585 126.798C364.252 121.871 360.798 117.335 355.871 116.668C355.558 116.626 355.244 116.6 354.929 116.591Z" fill="#2B2B2B"/>
<path d="M321.238 216.565C317.509 216.565 314.485 213.542 314.485 209.813C314.485 206.083 317.509 203.06 321.238 203.06C324.968 203.06 327.991 206.083 327.991 209.813C327.991 213.542 324.968 216.565 321.238 216.565ZM321.238 213.993C323.547 213.993 325.418 212.121 325.418 209.813C325.418 207.504 323.547 205.632 321.238 205.632C318.929 205.632 317.058 207.504 317.058 209.813C317.058 212.121 318.929 213.993 321.238 213.993ZM339.158 120.642C339.344 120.648 339.449 120.64 339.495 120.627C339.492 120.628 339.491 120.628 339.51 120.612C339.583 120.552 339.662 120.43 339.731 120.24C339.833 119.96 339.876 119.674 339.903 118.902L339.907 118.802L340.68 115.649L342.554 116.109L341.828 119.069C341.793 119.959 341.72 120.416 341.545 120.897C341.366 121.393 341.098 121.804 340.738 122.1C340.295 122.466 339.833 122.596 339.09 122.57L326.318 122.124C325.575 122.098 325.123 121.936 324.707 121.541C324.369 121.22 324.13 120.791 323.986 120.284C323.84 119.773 323.802 119.297 323.835 118.34L323.838 118.241L324.612 115.088L326.486 115.548L325.76 118.506C325.738 119.206 325.763 119.481 325.841 119.755C325.897 119.95 325.967 120.077 326.036 120.142C326.054 120.159 326.052 120.159 326.049 120.157C326.094 120.173 326.198 120.189 326.385 120.196L339.158 120.642Z" fill="white"/>
<mask id="mask8" style="mask-type:alpha" maskUnits="userSpaceOnUse" x="0" y="509" width="175" height="63">
<path d="M37.4647 530.806L0 571.889H174.285L156.578 541.646C145.04 521.938 123.916 509.828 101.079 509.828H84.9847C66.8998 509.828 49.6506 517.443 37.4647 530.806Z" fill="white"/>
</mask>
<g mask="url(#mask8)">
<path d="M37.4647 530.806L0 571.889H174.285L156.578 541.646C145.04 521.938 123.916 509.828 101.079 509.828H84.9847C66.8998 509.828 49.6506 517.443 37.4647 530.806Z" fill="#DFE9FF"/>
<path d="M20.9165 542.801L23.0062 540.55C38.0507 554.667 53.8515 561.69 70.4542 561.69C83.7785 561.69 98.5673 555.265 108.236 544.432C119.731 531.553 123.387 513.768 116.97 492.341L119.903 491.453C126.623 513.892 122.737 532.796 110.516 546.488C100.257 557.983 84.6355 564.769 70.4542 564.769C53.0269 564.769 36.4992 557.423 20.9165 542.801ZM155.052 535.339L156.218 538.336C137.601 545.576 129.916 557.407 132.781 574.19L129.611 574.731C126.474 556.356 135.082 543.106 155.052 535.339Z" fill="white"/>
<path d="M25.4182 530.411C38.4314 542.575 52.248 548.692 66.8225 548.692C78.6985 548.692 91.7701 543.036 100.357 533.452C110.587 522.035 113.838 506.276 108.222 487.596L105.279 488.473C110.595 506.153 107.571 520.806 98.0649 531.416C90.0691 540.34 77.8351 545.634 66.8225 545.634C53.0792 545.634 39.9938 539.84 27.5209 528.182L25.4182 530.411Z" fill="white"/>
</g>
<path fill-rule="evenodd" clip-rule="evenodd" d="M190.329 155.791C193.223 167.367 190.329 172.833 180.682 172.833C174.251 172.833 167.819 169.832 161.388 163.83C164.818 169.832 162.889 172.833 155.6 172.833C144.667 172.833 143.059 166.043 143.059 165.438C143.059 164.832 142.665 154.499 144.989 152.254C146.183 151.099 151.655 151.099 161.406 152.254C178.758 146.894 188.399 148.073 190.329 155.791Z" fill="#CBDBFE"/>
<path fill-rule="evenodd" clip-rule="evenodd" d="M112.893 187.385C115.787 198.961 112.893 204.427 103.246 204.427C96.8148 204.427 90.3836 201.426 83.9524 195.424C87.3824 201.426 85.453 204.427 78.1643 204.427C67.2313 204.427 65.6235 197.637 65.6235 197.031C65.6235 196.426 65.2288 186.093 67.5529 183.847C68.7473 182.693 74.2197 182.693 83.97 183.847C101.322 178.488 110.963 179.667 112.893 187.385Z" fill="#CBDBFE"/>
<path fill-rule="evenodd" clip-rule="evenodd" d="M330.242 105.951L322.846 88.5863H321.881C306.963 88.5863 294.87 76.4931 294.87 61.5753V30.384C294.87 15.4663 306.963 3.37305 321.881 3.37305H405.487C420.404 3.37305 432.498 15.4663 432.498 30.384V61.5753C432.498 76.4931 420.404 88.5863 405.487 88.5863H343.104L330.242 105.951Z" fill="#DFE9FF"/>
<path fill-rule="evenodd" clip-rule="evenodd" d="M268.607 284.659C268.607 284.659 284.363 257.817 282.989 246.63C282.154 239.829 288.74 218.615 302.745 182.987C305.099 176.999 311.787 173.966 317.842 176.142C324.02 178.362 327.564 184.848 326.095 191.246L318.174 225.74C317.313 229.49 319.655 233.229 323.405 234.09C324.065 234.242 324.743 234.296 325.418 234.252" fill="#B0BFDC"/>
<path fill-rule="evenodd" clip-rule="evenodd" d="M152.855 192.621L131.56 196.443C131.21 196.506 130.876 196.273 130.813 195.924C130.795 195.822 130.802 195.718 130.832 195.62L131.966 191.968C132.856 189.098 135.256 186.952 138.208 186.388L145.737 184.949L149.169 186.662L149.075 184.311L150.854 183.971C152.949 183.57 154.973 184.944 155.373 187.039C155.41 187.233 155.432 187.429 155.439 187.626L155.501 189.341C155.558 190.94 154.43 192.338 152.855 192.621ZM181.041 185.139C179.684 184.707 178.772 183.434 178.801 182.01L178.859 179.101C178.865 178.824 178.913 178.55 179.002 178.287C179.482 176.872 181.018 176.113 182.433 176.593L182.38 178.944L184.316 177.231L186.785 178.068C189.549 179.005 191.582 181.376 192.085 184.25L192.718 187.867C192.736 187.969 192.729 188.074 192.697 188.173C192.59 188.511 192.228 188.699 191.89 188.591L181.041 185.139Z" fill="#CBDBFE"/>
<path fill-rule="evenodd" clip-rule="evenodd" d="M168.972 257.619L179.87 251.824L181.188 262.319C181.444 264.359 180.8 266.409 179.424 267.937C176.808 270.839 172.335 271.071 169.432 268.455L166.986 266.251L165.678 271.937C165.039 274.718 163.273 277.109 160.802 278.538C155.883 281.383 149.589 279.702 146.743 274.783L141.508 265.731L134.592 280.053C133.234 282.865 130.673 284.908 127.63 285.608C122.092 286.88 116.57 283.422 115.297 277.884L112.261 264.669L107.216 272.488C105.527 275.105 102.743 276.817 99.6444 277.142C93.9926 277.736 88.9295 273.636 88.3358 267.984L87.0515 255.757C97.5145 254.822 104.822 254.834 108.974 255.793C110.06 256.043 110.977 256.37 111.724 256.771C114.149 255.665 117.52 255.339 121.837 255.793C125.74 256.203 131.024 257.315 137.688 259.128L137.051 258.027L170.082 252.795L168.972 257.619Z" fill="#CBDBFE"/>
<path d="M114.135 278.283C115.567 284.514 121.778 288.404 128.009 286.972C131.433 286.186 134.314 283.887 135.841 280.724L141.701 268.588L145.721 275.538C148.922 281.072 156.003 282.963 161.537 279.762C164.317 278.155 166.303 275.465 167.023 272.337L167.841 268.781L168.662 269.522C169.19 269.997 170.003 269.955 170.479 269.428C170.954 268.9 170.912 268.087 170.385 267.611L167.939 265.407C167.21 264.75 166.044 265.118 165.824 266.074L164.516 271.76C163.956 274.193 162.411 276.285 160.249 277.535C155.945 280.025 150.437 278.554 147.948 274.25L142.712 265.198C142.195 264.305 140.889 264.353 140.441 265.283L133.525 279.605C132.337 282.065 130.096 283.853 127.433 284.465C122.587 285.579 117.756 282.553 116.642 277.706L113.605 264.492C113.351 263.383 111.888 263.127 111.271 264.082L106.226 271.901C104.748 274.192 102.312 275.689 99.6011 275.974C94.6557 276.494 90.2255 272.906 89.7061 267.96L88.4217 255.734C88.3475 255.028 87.7147 254.515 87.0082 254.589C86.3017 254.663 85.7891 255.296 85.8633 256.003L87.1477 268.229C87.8156 274.587 93.5115 279.2 99.8698 278.532C103.355 278.166 106.487 276.241 108.387 273.296L111.781 268.037L114.135 278.283Z" fill="#B0BFDC"/>
<path fill-rule="evenodd" clip-rule="evenodd" d="M89.9496 142.434L60.4176 146.713L47.6885 114.349C47.2985 113.357 46.1785 112.869 45.1868 113.259C44.3929 113.572 43.8983 114.368 43.9706 115.218L47.278 154.093C47.6092 157.986 51.0336 160.873 54.9265 160.542C54.9582 160.539 54.9898 160.536 55.0214 160.533L90.0786 157.074C94.46 156.642 97.6984 152.796 97.3783 148.405C97.1169 144.818 93.9971 142.122 90.41 142.384C90.256 142.395 90.1025 142.412 89.9496 142.434Z" fill="#DFE9FF"/>
<path fill-rule="evenodd" clip-rule="evenodd" d="M74.2584 253.712L145.988 352.907L267.611 253.714C269.062 252.531 270.575 251.426 272.145 250.406L283.334 243.133C286.758 240.908 291.228 241.152 294.388 243.738C297.823 246.548 300.2 250.443 301.13 254.782L301.623 257.083L310.277 252.844C314.582 250.735 319.782 252.516 321.891 256.822C323.074 259.238 323.071 262.066 321.881 264.478L332.604 262.648C334.24 262.368 335.901 262.276 337.558 262.373L363.673 263.896C368.283 264.165 371.801 268.12 371.532 272.73C371.504 273.224 371.431 273.716 371.315 274.198L368.014 287.923C367.705 289.207 367.072 290.391 366.174 291.36L341.858 317.633C340.332 319.281 338.702 320.829 336.976 322.267L147.751 479.955C142.658 484.199 135.238 484.119 130.238 479.767L71.6159 428.74C63.9116 422.034 59.4887 412.32 59.4887 402.106L56.4435 404.562C52.431 407.798 46.6813 407.711 42.7676 404.357C38.6376 400.817 36.894 395.228 38.2783 389.968L40.8382 380.24L37.6048 382.952C33.8969 386.062 28.3702 385.577 25.2604 381.869C25.2544 381.862 25.2485 381.855 25.2426 381.848C21.7386 377.643 20.6302 371.937 22.3051 366.726L25.4034 357.088L21.3196 359.81C17.5368 362.332 12.4932 361.796 9.32538 358.535C6.03361 355.146 5.17499 350.077 7.16712 345.794L48.8598 256.142C52.3047 248.735 61.1022 245.523 68.5096 248.967C70.7995 250.032 72.7786 251.666 74.2584 253.712Z" fill="#CBDBFE"/>
<path d="M116.19 310.073C115.797 309.481 114.999 309.32 114.407 309.713C113.815 310.106 113.654 310.904 114.047 311.496L142.023 353.62C142.434 354.239 143.281 354.382 143.873 353.933L159.951 341.714C160.516 341.284 160.626 340.477 160.196 339.911C159.767 339.346 158.96 339.236 158.394 339.665L143.407 351.055L116.19 310.073Z" fill="#B0BFDC"/>
<path d="M333.409 468.642C333.357 468.457 332.876 466.858 332.705 466.279C332.255 464.758 331.808 463.193 331.331 461.449C329.986 456.523 328.679 451.156 327.453 445.304C322.551 421.898 320.273 397.465 322.049 373.446C322.101 372.737 321.569 372.12 320.861 372.068C320.152 372.016 319.536 372.547 319.483 373.256C317.688 397.542 319.987 422.207 324.935 445.831C326.172 451.736 327.492 457.153 328.85 462.126C329.331 463.889 329.783 465.471 330.238 467.009C330.415 467.608 330.888 469.18 330.933 469.339C331.126 470.023 331.836 470.421 332.52 470.229C333.203 470.036 333.602 469.326 333.409 468.642Z" fill="#CBDBFE"/>
<path d="M122.592 46.038L132.938 76.1353C133.169 76.8071 133.901 77.1645 134.573 76.9335C135.245 76.7026 135.602 75.9708 135.371 75.299L125.024 45.2016C124.793 44.5299 124.062 44.1725 123.39 44.4034C122.718 44.6344 122.361 45.3662 122.592 46.038Z" fill="#7181A1"/>
<mask id="mask9" style="mask-type:alpha" maskUnits="userSpaceOnUse" x="77" y="187" width="28" height="35">
<path d="M98.5797 221.661C84.7382 221.087 77.8174 215.383 77.8174 204.55C77.8174 193.406 85.14 187.561 99.7852 187.014C99.4196 187.698 99.1496 188.626 99.0403 189.875C98.6771 194.027 100.641 196.069 104.931 196.002C97.4753 201.848 93.6895 207.095 93.5738 211.741C93.4724 215.816 95.2536 219.487 98.5797 221.661Z" fill="white"/>
</mask>
<g mask="url(#mask9)">
<path d="M98.5797 221.661C84.7382 221.087 77.8174 215.383 77.8174 204.55C77.8174 193.406 85.14 187.561 99.7852 187.014C99.4196 187.698 99.1496 188.626 99.0403 189.875C98.6771 194.027 100.641 196.069 104.931 196.002C97.4753 201.848 93.6895 207.095 93.5738 211.741C93.4724 215.816 95.2536 219.487 98.5797 221.661Z" fill="#B0BFDC"/>
</g>
<path d="M381.066 166.297C380.947 165.596 381.419 164.932 382.119 164.813C382.819 164.694 383.484 165.166 383.603 165.866L390.72 207.782C391.767 213.947 389.54 220.214 384.838 224.337L368.391 238.756C367.856 239.225 367.044 239.171 366.575 238.637C366.107 238.103 366.161 237.29 366.695 236.822L383.142 222.402C387.173 218.869 389.081 213.497 388.184 208.212L381.066 166.297ZM402.608 206.155C402.498 205.454 402.977 204.795 403.678 204.684C404.38 204.573 405.039 205.052 405.149 205.754L407.03 217.663C407.732 222.11 406.743 226.659 404.257 230.413L392.089 248.789C391.697 249.381 390.899 249.544 390.306 249.152C389.714 248.759 389.552 247.961 389.944 247.369L402.112 228.993C404.243 225.775 405.091 221.876 404.489 218.064L402.608 206.155ZM362.031 180.213C362.218 180.898 361.814 181.606 361.128 181.792C360.443 181.979 359.736 181.575 359.549 180.89L357.62 173.816C357.433 173.13 357.837 172.423 358.522 172.236C359.207 172.049 359.915 172.453 360.101 173.139L362.031 180.213ZM309.663 176.646C309.689 175.936 310.285 175.381 310.995 175.407C311.705 175.434 312.26 176.03 312.234 176.74C311.785 188.96 307.147 196.149 298.335 197.891C297.638 198.029 296.962 197.576 296.824 196.879C296.686 196.182 297.139 195.506 297.836 195.368C305.317 193.888 309.254 187.786 309.663 176.646Z" fill="#7181A1"/>
<path d="M346.942 49.694V55.7548H341.36V60.3003H334.183V55.7548H314.485V49.694L334.183 32.389H341.36V49.694H346.942ZM322.221 49.694H334.183V39.5662L322.221 49.694ZM365.164 60.6991C354.08 60.6991 348.816 55.5953 348.816 46.3048C348.816 37.0542 354.08 31.9902 365.164 31.9902C376.209 31.9902 381.513 37.094 381.513 46.3048C381.513 55.5554 376.209 60.6991 365.164 60.6991ZM365.164 54.6782C371.464 54.6782 374.335 51.5282 374.335 46.3048C374.335 41.1212 371.464 38.0111 365.164 38.0111C358.864 38.0111 355.994 41.0814 355.994 46.3048C355.994 51.5681 358.864 54.6782 365.164 54.6782ZM416.322 49.694V55.7548H410.74V60.3003H403.562V55.7548H383.865V49.694L403.562 32.389H410.74V49.694H416.322ZM391.6 49.694H403.562V39.5662L391.6 49.694Z" fill="white"/>
</svg>
