<svg width="14" height="20" viewBox="0 0 14 20" fill="none" xmlns="http://www.w3.org/2000/svg">
<ellipse cx="0.860193" cy="15.6905" rx="0.860193" ry="0.854546" fill="white"/>
<ellipse cx="0.860193" cy="0.854546" rx="0.860193" ry="0.854546" fill="white"/>
<ellipse cx="3.71517" cy="0.854546" rx="0.860193" ry="0.854546" fill="white"/>
<ellipse cx="12.9394" cy="15.6905" rx="0.860193" ry="0.854546" fill="white"/>
<ellipse cx="12.9394" cy="9.03619" rx="0.860193" ry="0.854546" fill="white"/>
<ellipse cx="6.89926" cy="19.1456" rx="0.860193" ry="0.854546" fill="white"/>
<rect x="0.804932" width="2.92832" height="2.07273" fill="white"/>
<rect y="0.873047" width="1.46416" height="14.8364" fill="white"/>
<rect x="3.11157" y="0.873047" width="1.46416" height="14.8364" fill="white"/>
<rect x="12.3358" y="8.98242" width="1.46416" height="6.72728" fill="white"/>
<rect x="7.17383" y="5.67383" width="1.46416" height="5.96364" fill="white"/>
<rect x="8.63867" y="8.72656" width="3.98983" height="2.90909" fill="white"/>
<rect x="9.9928" y="10.3633" width="3.11134" height="5.92728" fill="white"/>
<rect x="3.11157" y="14.3262" width="7.79664" height="3.12727" fill="white"/>
<rect x="4.90503" y="16.8359" width="4.06304" height="1.52727" fill="white"/>
<path d="M8.41895 6.72656L11.8963 8.58111L11.7499 9.27202H8.41895V6.72656Z" fill="white"/>
<rect x="1.24487" y="1.67188" width="2.04982" height="14.6182" fill="white"/>
<rect width="7.01645" height="1.45696" transform="matrix(0.867445 0.497532 -0.502472 0.864594 1.17163 15.1641)" fill="white"/>
<path d="M7.177 4.76367L13.5171 8.40008L12.785 9.65975L7.177 6.01825L7.177 4.76367Z" fill="white"/>
<rect width="7.14267" height="1.45696" transform="matrix(-0.867445 0.497532 -0.502472 -0.864594 13.4727 16.3613)" fill="white"/>
</svg>
