<svg width="100%" height="100%" viewBox="0 0 120 120" fill="none" xmlns="http://www.w3.org/2000/svg">
<g clip-path="url(#clip0)">
<path d="M82.494 0C76.0965 0.442497 68.6191 4.53747 64.2616 9.86994C60.2866 14.7074 57.0166 21.8924 58.2916 28.8748C65.2816 29.0923 72.5041 24.8999 76.689 19.4774C80.604 14.4299 83.5665 7.28996 82.494 0Z" fill="#B4BDC7"/>
<path d="M107.777 40.2603C101.634 32.5579 93.0017 28.0879 84.8493 28.0879C74.0868 28.0879 69.5343 33.2404 62.0569 33.2404C54.3469 33.2404 48.4895 28.1029 39.182 28.1029C30.0396 28.1029 20.3046 33.6904 14.1322 43.2453C5.45471 56.7002 6.9397 81.9976 21.0021 103.545C26.0346 111.255 32.7545 119.925 41.5445 120C49.367 120.075 51.5719 114.982 62.1694 114.93C72.7668 114.87 74.7768 120.067 82.5843 119.985C91.3817 119.917 98.4692 110.31 103.502 102.6C107.109 97.0725 108.452 94.29 111.249 88.05C90.9017 80.3026 87.6392 51.3678 107.777 40.2603Z" fill="#B4BDC7"/>
</g>
<defs>
<clipPath id="clip0">
<rect width="120" height="120" fill="#B4BDC7"/>
</clipPath>
</defs>
</svg>
