<svg width="100%" height="100%" viewBox="0 0 120 112" fill="none" xmlns="http://www.w3.org/2000/svg">
<path d="M86.6142 6.4656H82.2032L82.107 6.4006C78.5054 3.91311 71.4952 -0.919046 61.8959 0.462485C61.9114 0.484458 61.9188 0.510093 61.9334 0.532066C54.8133 1.71127 46.84 7.26303 44.1795 14.7511C41.6133 21.9655 43.599 30.6429 50.0883 40.5498L60.0117 55.7128C75.0172 48.21 74.4807 36.7806 74.1612 29.9516C74.1136 28.9455 74.0825 28.2176 74.0825 27.5713C74.0825 25.6267 75.6562 24.0538 77.5999 24.0538C79.5445 24.0538 81.1174 25.6267 81.1174 27.5713C81.1174 28.1178 81.1485 28.7358 81.1796 29.406C81.5367 37.0323 82.2581 52.4553 63.1584 62.0052C61.9664 62.6021 59.9888 63.7786 58.7858 63.7786C57.6313 63.7786 56.508 63.2118 55.8387 62.1883L44.2006 44.4042C36.4469 32.5591 34.2076 21.7897 37.5492 12.3946C38.2936 10.3026 39.319 8.50265 40.4377 6.82998C17.8141 9.56375 0.0245247 28.8841 0.0153694 52.7025C-0.0679435 56.2483 -0.141186 67.0378 9.26128 80.8953C12.5453 85.7393 14.2839 91.7919 14.2839 98.4011V108.476C14.2839 110.421 15.8567 111.994 17.8013 111.994H31.8711C33.8157 111.994 35.3419 110.421 35.3419 108.476V90.8883H49.4593V108.476C49.4593 110.421 51.0331 111.994 52.9777 111.994H67.0475C68.9921 111.994 70.5183 110.421 70.5183 108.476C70.5183 94.8351 73.3583 82.6165 79.1087 71.1193L83.1041 63.1285L89.8918 64.2592C94.9995 65.1107 98.7065 69.4869 98.7065 74.6678V80.3359C98.7065 83.218 94.7523 84.8668 92.7015 82.8225C91.3282 81.4482 89.1017 81.4482 87.7275 82.8225L77.7858 92.7642C76.4125 94.1384 76.4125 96.364 77.7858 97.7382C83.7394 103.698 92.2273 106.13 100.472 104.241C110.956 101.84 120 90.1943 120 78.8134V39.6626C120 21.3567 104.921 6.4656 86.6142 6.4656ZM95.189 41.642C93.2472 41.642 91.6716 40.0664 91.6716 38.1236C91.6716 36.1809 93.2472 34.6062 95.189 34.6062C97.1318 34.6062 98.7074 36.1809 98.7074 38.1236C98.7074 40.0664 97.1318 41.642 95.189 41.642Z" fill="#B4BDC7"/>
</svg>
