<svg width="100%" height="100%" viewBox="0 0 107 90" fill="none" xmlns="http://www.w3.org/2000/svg">
<path d="M64.2372 56.015C60.486 62.7712 53.2808 67.3424 45.0041 67.3424C32.8614 67.3424 23.018 57.4989 23.018 45.3562C23.018 33.2136 32.8614 23.3701 45.0041 23.3701C53.1205 23.3701 60.2065 27.7673 64.0175 34.3081L83.4568 23.0859C75.7711 9.83496 61.4253 0.925781 45.0041 0.925781C20.4668 0.925781 0.574219 20.814 0.574219 45.3557C0.574219 69.893 20.4671 89.7855 45.0041 89.7855C61.5852 89.7855 76.0456 80.7026 83.6765 67.2363L64.2372 56.015Z" fill="#B4BDC7"/>
<path d="M88.6211 42.1585H83.57V37.1074H78.6722V42.1585H73.6211V47.0563H78.6722V52.1074H83.57V47.0563H88.6211V42.1585Z" fill="#B4BDC7"/>
<path d="M106.992 42.1585H101.941V37.1074H97.0433V42.1585H91.9922V47.0563H97.0433V52.1074H101.941V47.0563H106.992V42.1585Z" fill="#B4BDC7"/>
</svg>
