<svg width="100%" height="100%" viewBox="0 0 90 120" fill="none" xmlns="http://www.w3.org/2000/svg">
<path d="M43.8884 22.2341C38.3437 26.1338 32.0593 30.5541 28.6923 37.8669C22.8438 50.6245 40.6598 64.5411 41.4211 65.1273C41.5982 65.2639 41.8098 65.3315 42.0211 65.3315C42.2454 65.3315 42.47 65.2548 42.6526 65.1021C43.0063 64.8063 43.1066 64.3039 42.8941 63.8947C42.8296 63.7704 36.4347 51.3488 36.6723 42.4371C36.7565 39.3336 41.1001 35.8128 45.6986 32.0849C49.9103 28.6707 54.6843 24.8009 57.4777 20.274C63.6098 10.3094 56.7943 0.511268 56.7246 0.413695C56.4539 0.0336354 55.9543 -0.104461 55.527 0.0832085C55.1001 0.271271 54.8637 0.733166 54.9612 1.18916C54.975 1.25368 56.3005 7.73319 52.6124 14.4086C51.0926 17.167 47.7543 19.5154 43.8884 22.2341Z" fill="#B4BDC7"/>
<path d="M67.2731 26.6249C67.6642 26.3302 67.7791 25.7928 67.5422 25.3639C67.3054 24.9351 66.7896 24.7458 66.3316 24.9197C65.3898 25.2778 43.2656 33.8055 43.2656 44.11C43.2656 51.2127 46.2998 54.9653 48.5153 57.7056C49.3844 58.7801 50.1346 59.7082 50.3817 60.5006C51.0777 62.7841 49.4288 66.9112 48.7356 68.3087C48.5357 68.7108 48.6337 69.1975 48.9736 69.491C49.1573 69.6495 49.3867 69.7298 49.6165 69.7298C49.812 69.7298 50.0083 69.6716 50.1779 69.5536C50.5584 69.2888 59.4748 62.9847 57.8755 55.3894C57.2798 52.5028 55.8611 50.3932 54.6092 48.5318C52.6699 45.6483 51.2693 43.5651 53.3943 39.7177C55.8847 35.2309 67.1594 26.7103 67.2731 26.6249Z" fill="#B4BDC7"/>
<path d="M9.66277 69.891C9.2835 71.026 9.46251 72.1532 10.1801 73.1498C12.5785 76.4791 21.0736 78.3129 34.1019 78.3129C34.1027 78.3129 34.1031 78.3129 34.1034 78.3129C35.8688 78.3129 37.7325 78.2783 39.6415 78.2098C60.4712 77.4638 68.1971 70.9749 68.5158 70.6991C68.8632 70.3985 68.956 69.8976 68.74 69.4924C68.524 69.0876 68.0582 68.8842 67.6132 69.0065C60.2776 71.0095 46.5789 71.7204 37.0774 71.7204C26.4456 71.7204 21.0311 70.9548 19.7056 70.3894C20.3859 69.4554 24.5811 67.7876 29.7796 66.7651C30.2765 66.6675 30.618 66.2088 30.5688 65.7048C30.5196 65.2008 30.0963 64.8164 29.5899 64.8164C26.5424 64.8168 11.2601 65.0615 9.66277 69.891Z" fill="#B4BDC7"/>
<path d="M79.393 63.2109C75.0967 63.2109 71.0226 65.3638 70.8511 65.4555C70.4537 65.6683 70.2523 66.1239 70.3613 66.5614C70.4706 66.9986 70.8637 67.3058 71.3146 67.3062C71.4058 67.3066 80.4789 67.3806 81.3008 72.5645C82.0286 77.0367 72.716 84.283 69.0661 86.6979C68.6718 86.9588 68.5188 87.4632 68.7017 87.8987C68.8572 88.2697 69.2187 88.5018 69.6082 88.5018C69.6763 88.5018 69.7451 88.4948 69.8136 88.4798C70.6799 88.2949 91.0021 83.8168 88.8536 71.9842C87.5426 64.7327 82.9851 63.2109 79.393 63.2109Z" fill="#B4BDC7"/>
<path d="M65.4206 85.2576C65.4914 84.8784 65.3336 84.4928 65.0181 84.2717L60.1454 80.8586C59.9077 80.6922 59.6075 80.6399 59.3286 80.7138C59.2778 80.7272 54.182 82.0665 46.7839 82.888C43.8476 83.2173 40.5589 83.3912 37.2725 83.3912C29.8763 83.3912 25.0402 82.5221 24.3359 81.8847C24.2427 81.7057 24.2722 81.6242 24.2887 81.579C24.4166 81.2229 25.1023 80.8 25.5446 80.6328C26.0328 80.4522 26.296 79.9218 26.1442 79.4238C25.9927 78.9257 25.4793 78.6322 24.9725 78.7541C20.0845 79.9336 17.6943 81.5833 17.8682 83.6567C18.1771 87.3326 26.6922 89.2195 33.8909 89.7188C34.9261 89.7896 36.0458 89.8258 37.2178 89.8258C37.2186 89.8258 37.219 89.8258 37.2198 89.8258C49.1901 89.8258 64.5357 86.0701 64.6892 86.0319C65.0637 85.9395 65.3493 85.6369 65.4206 85.2576Z" fill="#B4BDC7"/>
<path d="M28.683 93.1392C29.0521 92.8988 29.2158 92.4428 29.0847 92.0226C28.9541 91.6024 28.5611 91.3266 28.1196 91.3321C27.4646 91.3494 21.7098 91.6091 21.3069 95.2732C21.1849 96.3681 21.4985 97.3682 22.2393 98.246C24.3057 100.695 29.883 102.15 39.2877 102.696C40.4004 102.762 41.5303 102.796 42.6473 102.796C54.6038 102.796 62.6563 99.0521 62.9935 98.8928C63.3204 98.7382 63.536 98.4171 63.5553 98.056C63.5746 97.6952 63.3944 97.3525 63.0859 97.164L56.9279 93.4047C56.7142 93.2745 56.4585 93.2312 56.2146 93.2812C56.1756 93.2895 52.2656 94.1003 46.3649 94.9018C45.2483 95.0532 43.85 95.1304 42.2094 95.1304C36.3149 95.1304 29.7587 94.1672 28.5013 93.5369C28.4832 93.4185 28.5064 93.269 28.683 93.1392Z" fill="#B4BDC7"/>
<path d="M37.0933 114.103C64.4804 114.08 79.1796 109.21 82.0112 106.145C83.0137 105.06 83.1219 104.033 83.0365 103.363C82.826 101.713 81.3235 100.703 81.1527 100.593C80.7416 100.329 80.19 100.398 79.8693 100.768C79.5494 101.138 79.542 101.678 79.863 102.048C80.0357 102.27 80.1357 102.642 79.6305 103.147C78.4986 104.205 67.081 107.414 48.071 108.378C45.4668 108.514 42.7356 108.582 39.9532 108.582C22.9323 108.582 10.4757 106.251 8.8406 104.892C9.47128 103.987 13.877 102.54 18.5628 101.722C19.0908 101.63 19.4477 101.132 19.3658 100.603C19.284 100.073 18.7957 99.7084 18.2622 99.778C18.13 99.7958 17.6819 99.8233 17.1622 99.8548C9.43075 100.327 0.496197 101.379 0.0299744 105.362C-0.111663 106.577 0.249118 107.678 1.10248 108.637C3.19045 110.984 9.19233 114.103 37.0921 114.103C37.0929 114.103 37.0929 114.103 37.0933 114.103Z" fill="#B4BDC7"/>
<path d="M87.3637 107.009C86.9766 106.83 86.5194 106.92 86.2302 107.232C86.1897 107.275 82.0724 111.581 69.6921 114.109C64.9524 115.059 56.0556 115.541 43.2488 115.541C30.4181 115.541 18.2093 115.036 18.0874 115.031C17.5775 115.006 17.1412 115.377 17.0719 115.879C17.0023 116.381 17.3257 116.853 17.8183 116.97C17.9453 117.001 30.7403 119.998 48.2349 119.998C56.6257 119.998 64.7907 119.316 72.5036 117.972C86.8849 115.451 87.8917 108.32 87.9275 108.017C87.9775 107.595 87.7501 107.188 87.3637 107.009Z" fill="#B4BDC7"/>
</svg>
