<svg width="100%" height="100%" viewBox="0 0 120 114" fill="none" xmlns="http://www.w3.org/2000/svg">
<path d="M79.4902 53.4263C88.6013 49.2964 89.9592 17.8611 84.584 8.60218C77.5624 -3.48506 44.1853 -1.05777 33.6459 7.58201C32.4357 11.8738 32.5624 19.6622 32.6187 25.8536H65.7003V28.7523H32.6257C32.6257 28.7945 17.9001 28.8437 17.9001 28.8437C-7.49156 28.8437 -6.96389 83.9891 26.5399 83.9891C26.5399 83.9891 27.7711 71.7753 29.924 65.6542C36.5727 46.7635 64.5042 60.2227 79.4902 53.4263ZM44.8537 21.3789C41.0403 21.3789 37.9517 18.2903 37.9517 14.4699C37.9517 10.6566 41.0403 7.5609 44.8537 7.5609C48.674 7.5609 51.7627 10.6566 51.7627 14.4699C51.7697 18.2832 48.674 21.3789 44.8537 21.3789Z" fill="#B4BDC7"/>
<path d="M92.3146 30.0059C92.3146 30.0059 91.4351 42.2268 89.2822 48.3408C82.6335 67.2244 54.709 53.7723 39.7161 60.5687C30.6119 64.6986 29.24 96.1339 34.6223 105.393C41.6368 117.487 75.0139 115.06 85.5604 106.413C86.7705 102.128 86.6439 94.3398 86.5876 88.1484H53.4989V85.2498H86.5735C86.5735 85.2076 102.875 85.1583 102.875 85.1583C126.276 85.1583 128.372 30.0059 92.3146 30.0059ZM73.1635 91.42C76.9769 91.42 80.0726 94.5087 80.0726 98.329C80.0726 102.142 76.9769 105.231 73.1635 105.231C69.3502 105.231 66.2616 102.142 66.2616 98.329C66.2616 94.5087 69.3502 91.42 73.1635 91.42Z" fill="#B4BDC7"/>
</svg>
