<svg width="100%" height="100%" viewBox="0 0 104 104" fill="none" xmlns="http://www.w3.org/2000/svg">
<path d="M52.0013 8.66602C28.0813 8.66602 8.66797 28.0793 8.66797 51.9994C8.66797 75.9193 28.0813 95.3327 52.0013 95.3327C75.9213 95.3327 95.3346 75.9193 95.3346 51.9994C95.3346 28.0793 75.9213 8.66602 52.0013 8.66602ZM40.258 70.5894L24.7013 55.0327C23.0113 53.3427 23.0113 50.6127 24.7013 48.9227C26.3913 47.2327 29.1213 47.2327 30.8113 48.9227L43.3346 61.4027L73.148 31.5893C74.838 29.8993 77.568 29.8993 79.258 31.5893C80.948 33.2794 80.948 36.0093 79.258 37.6993L46.368 70.5894C44.7213 72.2794 41.948 72.2794 40.258 70.5894Z" fill="white"/>
</svg>
