<svg width="100%" height="100%" viewBox="0 0 20 20" fill="none" xmlns="http://www.w3.org/2000/svg">
<circle cx="10" cy="10" r="7.5" stroke="#5CC689" stroke-width="1.4"/>
<path d="M8.71581 8.28425C8.71581 7.78916 9.09665 7.47905 9.6135 7.41921V9.16561C9.55909 9.15473 9.51013 9.13841 9.46116 9.12209C8.96607 8.95887 8.71581 8.67597 8.71581 8.28425ZM11.4361 11.6791C11.4361 12.2123 11.028 12.5659 10.4513 12.6149V10.7379C10.4894 10.7488 10.5275 10.7597 10.5601 10.7651C11.1695 10.9338 11.4361 11.233 11.4361 11.6791ZM10.4622 14.481L10.4568 13.7901C11.9475 13.6486 12.8941 12.8271 12.8941 11.5322C12.8941 10.2156 12.0073 9.6607 10.9138 9.42676L10.4513 9.32883V7.43009C11.028 7.52258 11.349 7.95782 11.3653 8.39306H12.7581C12.7364 7.26143 11.8495 6.40183 10.4731 6.25494V5.54767H9.59173V6.2495C8.27513 6.36919 7.24143 7.09278 7.24143 8.3985C7.24143 9.6335 8.13367 10.2646 9.14561 10.4877L9.6135 10.591V12.6149C8.91711 12.5224 8.55259 12.1035 8.52539 11.603H7.09998C7.11086 12.6095 7.78548 13.6704 9.58629 13.8009L9.58085 14.481H10.4622Z" fill="#5CC689"/>
</svg>
