<svg width="620" height="409" viewBox="0 0 620 409" fill="none" xmlns="http://www.w3.org/2000/svg">
<mask id="path-1-inside-1" fill="white">
<path fill-rule="evenodd" clip-rule="evenodd" d="M290.783 137.354C290.921 135.38 291.516 116.962 292.567 82.0979C292.83 73.3718 286.785 65.7183 278.236 63.9521C277.662 63.8337 277.376 63.7745 277.376 63.7745C267.057 63.0529 257.872 70.2745 256.139 80.4725L247.292 132.533"/>
</mask>
<path fill-rule="evenodd" clip-rule="evenodd" d="M290.783 137.354C290.921 135.38 291.516 116.962 292.567 82.0979C292.83 73.3718 286.785 65.7183 278.236 63.9521C277.662 63.8337 277.376 63.7745 277.376 63.7745C267.057 63.0529 257.872 70.2745 256.139 80.4725L247.292 132.533" fill="white"/>
<path d="M292.567 82.0979L293.128 82.1148L292.567 82.0979ZM278.236 63.9521L278.122 64.5023L278.122 64.5023L278.236 63.9521ZM277.376 63.7745L277.489 63.2244L277.453 63.2168L277.415 63.2141L277.376 63.7745ZM256.139 80.4725L256.693 80.5667L256.139 80.4725ZM291.344 137.393C291.483 135.405 292.078 116.967 293.128 82.1148L292.005 82.081C290.954 116.956 290.36 135.356 290.223 137.315L291.344 137.393ZM293.128 82.1148C293.4 73.116 287.166 65.2233 278.349 63.402L278.122 64.5023C286.404 66.2132 292.26 73.6276 292.005 82.081L293.128 82.1148ZM278.349 63.402C278.063 63.3428 277.848 63.2984 277.704 63.2688C277.633 63.254 277.579 63.2429 277.543 63.2355C277.525 63.2318 277.512 63.229 277.503 63.2271C277.498 63.2262 277.495 63.2255 277.493 63.2251C277.492 63.2248 277.491 63.2247 277.49 63.2245C277.49 63.2245 277.49 63.2244 277.49 63.2244C277.49 63.2244 277.49 63.2244 277.489 63.2244C277.489 63.2244 277.489 63.2244 277.489 63.2244C277.489 63.2244 277.489 63.2244 277.489 63.2244C277.489 63.2244 277.489 63.2244 277.376 63.7745C277.262 64.3246 277.262 64.3246 277.262 64.3246C277.262 64.3246 277.262 64.3246 277.262 64.3246C277.262 64.3246 277.262 64.3246 277.262 64.3246C277.262 64.3246 277.262 64.3247 277.262 64.3247C277.262 64.3247 277.263 64.3247 277.263 64.3248C277.264 64.3249 277.264 64.3251 277.265 64.3253C277.268 64.3258 277.271 64.3265 277.276 64.3274C277.285 64.3293 277.298 64.332 277.316 64.3357C277.352 64.3431 277.405 64.3542 277.477 64.369C277.62 64.3986 277.835 64.4431 278.122 64.5023L278.349 63.402ZM277.415 63.2141C266.808 62.4724 257.367 69.8956 255.585 80.3784L256.693 80.5667C258.378 70.6534 267.306 63.6334 277.337 64.3349L277.415 63.2141ZM255.585 80.3784L246.738 132.438L247.845 132.627L256.693 80.5667L255.585 80.3784Z" fill="#0BC3B8" mask="url(#path-1-inside-1)"/>
<path d="M277.532 63.8987L277.513 63.8949L277.494 63.8936C267.259 63.1922 258.154 70.3595 256.434 80.477L247.587 132.537C247.574 132.613 247.501 132.665 247.425 132.652C247.348 132.639 247.297 132.566 247.31 132.49L256.157 80.4299C257.902 70.1638 267.145 62.8931 277.533 63.6147L277.57 63.6198L278.421 63.7955L278.477 63.5206L278.421 63.7955C287.037 65.5754 293.129 73.2888 292.864 82.083C291.812 116.976 291.218 135.369 291.08 137.345C291.075 137.422 291.008 137.48 290.93 137.475C290.853 137.47 290.794 137.403 290.8 137.325C290.938 135.353 291.533 116.909 292.583 82.0746C292.844 73.4167 286.847 65.8229 278.364 64.0706L277.532 63.8987Z" fill="#0BC3B8" stroke="#0BC3B8" stroke-width="0.561744"/>
<path d="M275.642 132.514L297.398 132.491L301.887 97.5927C302.302 94.3632 300.021 91.4085 296.791 90.9931C296.542 90.961 296.291 90.9449 296.039 90.9449C291.972 90.9449 288.367 93.5602 287.104 97.426L275.642 132.514Z" fill="white" stroke="#0BC3B8" stroke-width="0.561744"/>
<path d="M297.916 132.128L297.884 132.373L297.637 132.373L276.199 132.395L275.811 132.396L275.931 132.027L287.333 97.124C288.615 93.2005 292.274 90.5461 296.402 90.5461C296.659 90.5461 296.917 90.5626 297.172 90.5954C300.478 91.0207 302.814 94.0458 302.389 97.3522L297.916 132.128ZM298.008 132.654C298.078 132.654 298.138 132.601 298.147 132.531L302.667 97.388C303.112 93.9278 300.668 90.7619 297.208 90.3169C296.941 90.2825 296.671 90.2652 296.402 90.2652C292.153 90.2652 288.386 92.9977 287.066 97.0368L275.484 132.493C275.454 132.583 275.522 132.677 275.618 132.677C275.618 132.677 275.618 132.677 275.618 132.677L298.008 132.654Z" fill="#0BC3B8" stroke="#0BC3B8" stroke-width="0.561744"/>
<path d="M247.691 132.513H296.849L288.087 210.928C286.547 224.715 279.121 237.162 267.72 245.066L219.177 278.72L186.627 219.184L229.207 205.304C234.171 203.686 237.792 199.399 238.556 194.234L247.691 132.513Z" fill="#D1F4F2" stroke="#0BC3B8" stroke-width="0.561744"/>
<path d="M267.907 222.546C272.301 215.772 279.321 209.702 288.989 204.346C288.369 214.768 285.582 223.914 280.634 231.793C276.966 237.635 270.925 242.695 263.015 248.285C261.225 249.55 259.087 251.088 256.599 252.899C259.746 239.422 263.518 229.311 267.907 222.546Z" fill="#5BD7CF" stroke="#0BC3B8" stroke-width="0.561744"/>
<path d="M235.519 200.428L235.527 200.418L235.534 200.408L235.538 200.402C235.541 200.397 235.545 200.392 235.549 200.388L235.558 200.378L235.566 200.368C236.949 198.588 237.884 196.454 238.227 194.137L247.389 132.235C247.399 132.166 247.458 132.115 247.528 132.115H297.242C297.326 132.115 297.391 132.188 297.382 132.271L293.561 166.462L293.549 166.577L293.621 166.668C293.643 166.696 293.655 166.731 293.651 166.768C293.648 166.808 293.628 166.842 293.599 166.866L293.508 166.938L293.495 167.054L288.591 210.949C287.034 224.885 279.515 237.463 267.978 245.433L219.441 278.963C219.389 278.999 219.32 278.995 219.271 278.955C212.623 273.41 207.087 266.375 202.665 257.846C198.251 249.333 193.287 236.131 187.769 218.22C187.746 218.147 187.787 218.068 187.861 218.045L229.084 204.894C231.678 204.067 233.9 202.488 235.519 200.428ZM201.866 214.112L201.755 213.907L201.534 213.978L188.344 218.186L188.078 218.27L188.161 218.536C193.618 236.209 198.537 249.275 202.914 257.717C207.262 266.102 212.691 273.041 219.205 278.533L219.369 278.671L219.545 278.549L231.915 270.004L232.122 269.861L232.002 269.639L201.866 214.112ZM202.351 213.717L202.028 213.82L202.19 214.119L232.206 269.426L232.355 269.7L232.612 269.523L267.818 245.202C279.289 237.278 286.764 224.773 288.312 210.918L293.201 167.157L293.233 166.872L292.947 166.846L243.503 162.402L243.503 162.402C243.5 162.401 243.497 162.401 243.494 162.401L243.215 162.357L243.173 162.637L238.505 194.178C238.175 196.41 237.306 198.476 236.023 200.228L235.856 200.457L236.086 200.623L265.506 221.716C265.569 221.761 265.583 221.849 265.538 221.912C265.493 221.975 265.405 221.99 265.342 221.944L235.895 200.831L235.682 200.679L235.515 200.88C233.883 202.847 231.7 204.355 229.17 205.162L202.351 213.717ZM243.297 161.803L243.253 162.097L243.549 162.124L292.991 166.568L293.264 166.593L293.295 166.32L297.05 132.708L297.085 132.396H296.771H247.891H247.649L247.613 132.635L243.297 161.803Z" fill="#0BC3B8" stroke="#0BC3B8" stroke-width="0.561744"/>
<path d="M108.809 228.135L109.061 228.953L110.114 232.372L114.266 245.847L80.9107 268.309L70.0397 248.351L99.2777 233.105L106.651 229.261L108.494 228.3L108.809 228.135Z" fill="#5BD7CF" stroke="#0BC3B8" stroke-width="0.561744"/>
<path d="M365.814 252.7L365.885 252.667L365.928 252.603L383.284 226.849L386.269 226.035C387.367 225.773 388.129 225.792 388.607 226.017C388.848 226.13 389.151 226.358 389.516 226.723C389.863 227.071 390.255 227.53 390.693 228.104V306.598C390.085 308.052 389.545 309.028 389.078 309.558C388.61 310.088 387.808 310.63 386.642 311.174L386.635 311.178L386.627 311.182L369.856 320.255L361.786 254.58L365.814 252.7ZM295.023 379.275L347.829 359.821L350.263 366.853L350.312 366.995L350.458 367.033L385.17 375.99L386.467 378.326C386.155 380.127 385.792 381.364 385.393 382.07C384.995 382.774 384.205 383.577 382.989 384.476L310.317 401.592C308.856 401.736 307.709 401.549 306.85 401.063C305.984 400.574 305.081 399.595 304.15 398.083L295.023 379.275Z" fill="white" stroke="#0BC3B8" stroke-width="0.561744"/>
<path d="M114.057 246.045L114.23 245.929L114.168 245.729L108.792 228.278L108.693 227.956L108.394 228.112L69.9004 248.183L69.6468 248.316L69.7836 248.567L80.5124 268.264L80.66 268.535L80.9159 268.363L114.057 246.045ZM69.3902 248.133L108.712 227.629C108.79 227.588 108.886 227.628 108.911 227.712L114.529 245.946C114.547 246.005 114.524 246.069 114.473 246.103L80.6889 268.854C80.6203 268.9 80.5267 268.877 80.4871 268.805L69.3318 248.324C69.2942 248.255 69.3205 248.169 69.3902 248.133Z" fill="#0BC3B8" stroke="#0BC3B8" stroke-width="0.561744"/>
<path d="M190.863 224.157L229.074 298.092L225.02 323.226H194.644H194.618L194.592 323.231C173.474 327.233 158.889 323.755 150.692 312.945C146.581 307.523 143.355 299.311 141.031 288.281C138.718 277.298 137.303 263.543 136.791 247.012L190.863 224.157Z" fill="#D1F4F2" stroke="#0BC3B8" stroke-width="0.561744"/>
<path d="M229.632 298.368L229.525 298.435L229.505 298.561L225.478 323.528C225.467 323.596 225.408 323.646 225.339 323.646H194.763H194.737L194.711 323.651C173.473 327.669 158.74 324.152 150.435 313.199C146.291 307.732 143.044 299.48 140.708 288.411C138.372 277.347 136.951 263.49 136.443 246.833C136.441 246.774 136.475 246.721 136.529 246.699L191.018 223.667C191.085 223.638 191.164 223.667 191.197 223.732L229.129 297.126L229.248 297.356L229.487 297.256C229.531 297.238 229.589 297.241 229.632 297.265C229.651 297.276 229.665 297.29 229.674 297.305C229.683 297.32 229.692 297.345 229.692 297.385V297.917L229.655 297.937L229.607 297.929L229.601 297.965L229.57 297.98C229.57 297.981 229.571 297.981 229.571 297.981C229.583 298.006 229.588 298.033 229.585 298.06L229.613 298.064L229.634 298.104L229.691 298.074L229.692 298.074V298.251C229.692 298.284 229.685 298.307 229.675 298.324C229.666 298.341 229.651 298.356 229.632 298.368ZM191.127 224.207L191.007 223.976L190.768 224.078L136.904 246.845L136.727 246.92L136.733 247.112C137.248 263.627 138.666 277.379 140.984 288.362C143.301 299.34 146.522 307.573 150.659 313.029C158.936 323.944 173.637 327.357 194.685 323.37L194.737 323.366H224.98H225.219L225.257 323.129L229.285 298.16L229.3 298.068L229.257 297.986L191.127 224.207Z" fill="#0BC3B8" stroke="#0BC3B8" stroke-width="0.561744"/>
<path d="M185.219 306.025L182.124 300.608C187.507 298.272 192.663 295.687 197.593 292.854C202.562 289.999 209.783 285.557 219.255 279.53L221.812 284.39C213.272 291.118 206.513 295.833 201.532 298.543C196.568 301.244 191.131 303.738 185.219 306.025Z" fill="#D1F4F2" stroke="#0BC3B8" stroke-width="0.561744"/>
<mask id="path-15-inside-2" fill="white">
<path fill-rule="evenodd" clip-rule="evenodd" d="M235.933 393.444L369.066 321.26L361.763 254.693L229.753 319.575"/>
</mask>
<path fill-rule="evenodd" clip-rule="evenodd" d="M235.933 393.444L369.066 321.26L361.763 254.693L229.753 319.575" fill="#5BD7CF"/>
<path d="M369.066 321.26L369.334 321.754L369.666 321.574L369.624 321.199L369.066 321.26ZM361.763 254.693L362.322 254.632L362.234 253.836L361.516 254.189L361.763 254.693ZM236.2 393.938L369.334 321.754L368.798 320.766L235.665 392.95L236.2 393.938ZM369.624 321.199L362.322 254.632L361.205 254.755L368.508 321.321L369.624 321.199ZM361.516 254.189L229.506 319.071L230.001 320.079L362.011 255.198L361.516 254.189Z" fill="#0BC3B8" mask="url(#path-15-inside-2)"/>
<path d="M196.261 293.332C201.73 290.258 209.406 285.39 219.283 278.733C219.347 278.689 219.434 278.706 219.478 278.771C219.521 278.835 219.504 278.922 219.44 278.966C209.549 285.632 201.871 290.501 196.399 293.577C190.918 296.657 185.761 299.001 180.926 300.61C180.853 300.634 180.773 300.594 180.749 300.521C180.724 300.447 180.764 300.368 180.838 300.343C185.659 298.739 190.801 296.401 196.261 293.332Z" fill="#0BC3B8" stroke="#0BC3B8" stroke-width="0.561744"/>
<path d="M198.229 300.352C205.092 296.646 213.112 291.312 222.287 284.354C222.348 284.307 222.437 284.32 222.483 284.381L222.707 284.212L222.483 284.381C222.53 284.443 222.518 284.531 222.456 284.578C213.263 291.549 205.233 296.889 198.363 300.6C194.908 302.465 192.009 303.89 189.655 304.876C187.296 305.865 185.507 306.403 184.265 306.514C184.188 306.521 184.119 306.464 184.113 306.387C184.106 306.31 184.163 306.241 184.24 306.234C185.495 306.122 187.295 305.565 189.616 304.588C191.943 303.608 194.817 302.195 198.229 300.352Z" fill="#0BC3B8" stroke="#0BC3B8" stroke-width="0.561744"/>
<path d="M368.89 321.126L369.112 321.006L369.016 320.773C369.011 320.761 369.008 320.748 369.006 320.734L361.706 255.032L361.662 254.634L361.303 254.811L229.614 319.701C229.545 319.735 229.461 319.707 229.426 319.637C229.392 319.568 229.421 319.483 229.49 319.449L365.052 252.651L365.118 252.618L365.16 252.557L382.501 226.991C383.058 226.169 383.992 225.683 384.984 225.697C385.337 225.702 385.673 225.768 385.984 225.886L386.206 225.97L386.326 225.765C386.331 225.757 386.35 225.73 386.398 225.682C386.548 225.532 386.717 225.441 386.911 225.403L386.911 225.403C387.146 225.356 387.385 225.332 387.625 225.332C389.651 225.328 391.296 226.968 391.299 228.994L391.417 304.439C391.422 307.612 389.844 310.647 386.913 311.387L386.704 311.44L386.701 311.656L386.7 311.713C386.7 311.764 386.671 311.81 386.627 311.834L235.798 393.568L235.932 393.815L235.798 393.568C235.73 393.605 235.645 393.58 235.608 393.511C235.571 393.443 235.596 393.358 235.665 393.321L368.89 321.126ZM369.261 320.485L369.307 320.9L369.674 320.701L386.276 311.705L386.421 311.626L386.423 311.462L387.61 228.684C387.631 227.211 386.453 225.999 384.98 225.978C384.082 225.965 383.238 226.405 382.734 227.148L382.966 227.306L382.734 227.148L365.33 252.806C365.316 252.827 365.297 252.843 365.276 252.854L362.026 254.455L361.686 254.622L361.946 254.899C361.966 254.92 361.979 254.948 361.983 254.979L369.261 320.485ZM386.698 225.993L386.599 226.195L386.775 226.336C387.467 226.886 387.905 227.738 387.891 228.688L386.714 310.778L386.708 311.162L387.076 311.051C389.83 310.216 391.141 307.28 391.136 304.44L391.018 228.995C391.015 227.124 389.496 225.61 387.626 225.613C387.404 225.613 387.183 225.635 386.966 225.678L386.818 225.708L386.761 225.849C386.738 225.906 386.717 225.954 386.698 225.993Z" fill="#0BC3B8" stroke="#0BC3B8" stroke-width="0.561744"/>
<mask id="path-20-inside-3" fill="white">
<path fill-rule="evenodd" clip-rule="evenodd" d="M129.763 310.888L134.056 334.2L166.072 390.711C174.496 405.58 192.452 412.156 208.487 406.244L219.708 402.107C230.504 398.127 239.817 390.927 246.388 381.482L275.39 339.798L294.635 379.12L348.001 359.459L310.485 270.733C306.374 261.011 296.844 254.693 286.289 254.693C275.136 254.693 264.438 259.112 256.535 266.981L206.24 317.067"/>
</mask>
<path fill-rule="evenodd" clip-rule="evenodd" d="M129.763 310.888L134.056 334.2L166.072 390.711C174.496 405.58 192.452 412.156 208.487 406.244L219.708 402.107C230.504 398.127 239.817 390.927 246.388 381.482L275.39 339.798L294.635 379.12L348.001 359.459L310.485 270.733C306.374 261.011 296.844 254.693 286.289 254.693C275.136 254.693 264.438 259.112 256.535 266.981L206.24 317.067" fill="#D1F4F2"/>
<path d="M134.056 334.2L133.503 334.302L133.52 334.395L133.567 334.477L134.056 334.2ZM166.072 390.711L166.561 390.434L166.072 390.711ZM208.487 406.244L208.681 406.771L208.487 406.244ZM219.708 402.107L219.514 401.58L219.708 402.107ZM246.388 381.482L246.849 381.803L246.388 381.482ZM275.39 339.798L275.894 339.551L275.474 338.693L274.929 339.477L275.39 339.798ZM294.635 379.12L294.131 379.367L294.354 379.822L294.829 379.647L294.635 379.12ZM348.001 359.459L348.195 359.986L348.748 359.782L348.518 359.24L348.001 359.459ZM310.485 270.733L309.967 270.951L310.485 270.733ZM256.535 266.981L256.932 267.379L256.535 266.981ZM129.211 310.99L133.503 334.302L134.608 334.099L130.316 310.786L129.211 310.99ZM133.567 334.477L165.583 390.988L166.561 390.434L134.545 333.924L133.567 334.477ZM165.583 390.988C174.143 406.096 192.388 412.778 208.681 406.771L208.293 405.717C192.516 411.534 174.849 405.064 166.561 390.434L165.583 390.988ZM208.681 406.771L219.903 402.634L219.514 401.58L208.293 405.717L208.681 406.771ZM219.903 402.634C230.806 398.614 240.213 391.343 246.849 381.803L245.927 381.162C239.422 390.512 230.202 397.64 219.514 401.58L219.903 402.634ZM246.849 381.803L275.851 340.118L274.929 339.477L245.927 381.162L246.849 381.803ZM274.885 340.045L294.131 379.367L295.14 378.873L275.894 339.551L274.885 340.045ZM294.829 379.647L348.195 359.986L347.807 358.932L294.441 378.593L294.829 379.647ZM348.518 359.24L311.002 270.514L309.967 270.951L347.484 359.677L348.518 359.24ZM311.002 270.514C306.803 260.584 297.069 254.132 286.289 254.132V255.255C296.618 255.255 305.944 261.437 309.967 270.951L311.002 270.514ZM286.289 254.132C274.987 254.132 264.147 258.609 256.139 266.583L256.932 267.379C264.729 259.615 275.285 255.255 286.289 255.255V254.132ZM256.139 266.583L205.844 316.669L206.636 317.465L256.932 267.379L256.139 266.583Z" fill="#0BC3B8" mask="url(#path-20-inside-3)"/>
<path d="M282.64 283.635C273.034 280.68 263.79 275.802 254.907 268.999C260.188 264.187 264.669 260.913 268.354 259.16C272.255 257.304 276.654 256.018 280.741 255.352C284.833 254.684 288.586 254.64 291.201 255.248C293.198 255.711 295.949 256.848 298.676 258.386C301.403 259.923 304.082 261.847 305.944 263.871C309.04 267.237 311.902 273.187 314.512 281.765C302.857 285.974 292.237 286.588 282.64 283.635Z" fill="#0BC3B8" fill-opacity="0.6" stroke="#0BC3B8" stroke-width="0.561744"/>
<path d="M386.347 377.389L386.367 377.724L386.567 377.675C387.247 381.07 385.127 384.423 381.733 385.241L311.568 402.156C308.525 402.89 305.379 401.489 303.883 398.761L303.817 398.64L303.681 398.619C303.636 398.611 303.596 398.583 303.576 398.541L275.577 340.488L275.368 340.055L275.093 340.45L246.504 381.543C239.916 391.011 230.58 398.229 219.757 402.219L208.535 406.356C192.436 412.291 174.408 405.689 165.95 390.76L133.934 334.25C133.926 334.236 133.92 334.221 133.918 334.206L129.625 310.893C129.611 310.817 129.661 310.744 129.738 310.73C129.814 310.716 129.887 310.766 129.901 310.843L134.181 334.085L134.19 334.132L134.213 334.173L166.194 390.621C174.584 405.431 192.468 411.98 208.438 406.092L219.66 401.955C230.428 397.985 239.718 390.803 246.273 381.382L275.275 339.697C275.336 339.609 275.47 339.62 275.516 339.717L294.366 378.799L294.477 379.029L294.716 378.94L347.48 359.501L347.756 359.399L347.642 359.128L315.999 284.166V283.774L315.595 283.971C296.992 293.039 276.164 288.718 253.11 270.915L252.915 270.764L252.74 270.938L206.339 317.147C206.284 317.201 206.195 317.201 206.14 317.146C206.086 317.091 206.086 317.002 206.141 316.948L256.436 266.862C264.365 258.966 275.099 254.533 286.289 254.533C296.899 254.533 306.478 260.887 310.604 270.662L347.988 359.226L348.019 359.299L348.083 359.345C348.105 359.361 348.122 359.383 348.133 359.41L348.396 359.313L348.133 359.41C348.137 359.422 348.139 359.433 348.141 359.444C348.142 359.456 348.142 359.468 348.14 359.48L348.128 359.558L348.159 359.631L350.937 366.212L350.991 366.341L351.127 366.376L384.124 374.707C385.201 374.978 386.034 375.832 386.279 376.915C386.315 377.074 386.337 377.232 386.347 377.389ZM386.401 379.328L386.467 378.25L385.884 379.159C385.48 379.788 384.84 380.265 384.053 380.443L304.451 398.455L304.07 398.541L304.272 398.874C305.759 401.327 308.677 402.564 311.502 401.883L381.667 384.968C384.377 384.315 386.238 381.972 386.401 379.328ZM294.89 379.176L294.6 379.283L294.734 379.561L303.684 398.117L303.781 398.318L303.998 398.269L383.991 380.169C385.429 379.843 386.33 378.415 386.005 376.977C385.783 375.997 385.03 375.225 384.056 374.979L350.855 366.597C350.812 366.586 350.777 366.556 350.76 366.515L350.501 366.624L350.76 366.515L347.97 359.905L347.865 359.658L347.614 359.751L294.89 379.176ZM315.514 283.698L315.416 283.497L315.671 283.446V282.996L315.534 283.063L310.345 270.771C306.263 261.1 296.786 254.814 286.289 254.814C275.173 254.814 264.51 259.217 256.634 267.061L253.343 270.339L253.116 270.565L253.369 270.76C276.263 288.41 296.978 292.755 315.514 283.698Z" fill="#0BC3B8" stroke="#0BC3B8" stroke-width="0.561744"/>
<mask id="path-24-inside-4" fill="white">
<path fill-rule="evenodd" clip-rule="evenodd" d="M157.289 218.18L52.2327 285.271C28.3364 300.532 19.5588 331.208 31.7657 356.799L39.2995 372.593C52.6563 400.595 86.1841 412.467 114.186 399.11C115.681 398.397 117.144 397.618 118.571 396.775L166.631 368.387C175.581 363.1 182.889 355.434 187.741 346.24L188.325 345.134C193.353 335.607 193.511 324.247 188.748 314.584L176.95 290.645C159.437 303.702 149.981 312.69 148.582 317.608C147.334 321.994 133.054 331.031 105.743 344.717C99.8194 347.685 92.6093 345.605 89.1771 339.938C86.4201 335.386 87.8754 329.461 92.4275 326.704C92.9479 326.389 93.4969 326.123 94.0673 325.912L145.211 306.935"/>
</mask>
<path fill-rule="evenodd" clip-rule="evenodd" d="M157.289 218.18L52.2327 285.271C28.3364 300.532 19.5588 331.208 31.7657 356.799L39.2995 372.593C52.6563 400.595 86.1841 412.467 114.186 399.11C115.681 398.397 117.144 397.618 118.571 396.775L166.631 368.387C175.581 363.1 182.889 355.434 187.741 346.24L188.325 345.134C193.353 335.607 193.511 324.247 188.748 314.584L176.95 290.645C159.437 303.702 149.981 312.69 148.582 317.608C147.334 321.994 133.054 331.031 105.743 344.717C99.8194 347.685 92.6093 345.605 89.1771 339.938C86.4201 335.386 87.8754 329.461 92.4275 326.704C92.9479 326.389 93.4969 326.123 94.0673 325.912L145.211 306.935" fill="#D1F4F2"/>
<path d="M52.2327 285.271L51.9304 284.797L52.2327 285.271ZM31.7657 356.799L32.2728 356.557L31.7657 356.799ZM39.2995 372.593L38.7925 372.835L39.2995 372.593ZM114.186 399.11L113.944 398.603L114.186 399.11ZM118.571 396.775L118.285 396.292L118.571 396.775ZM166.631 368.387L166.917 368.871L166.631 368.387ZM187.741 346.24L187.244 345.978L187.741 346.24ZM188.325 345.134L188.822 345.396L188.325 345.134ZM188.748 314.584L189.252 314.335L188.748 314.584ZM176.95 290.645L177.453 290.396L177.155 289.791L176.614 290.194L176.95 290.645ZM148.582 317.608L149.122 317.762L148.582 317.608ZM105.743 344.717L105.995 345.219L105.743 344.717ZM89.1771 339.938L88.6966 340.229L89.1771 339.938ZM92.4275 326.704L92.7185 327.184L92.4275 326.704ZM94.0673 325.912L94.2627 326.438L94.0673 325.912ZM156.986 217.706L51.9304 284.797L52.5351 285.744L157.591 218.653L156.986 217.706ZM51.9304 284.797C27.7951 300.211 18.9297 331.194 31.2587 357.041L32.2728 356.557C20.1879 331.222 28.8778 300.852 52.5351 285.744L51.9304 284.797ZM31.2587 357.041L38.7925 372.835L39.8065 372.351L32.2728 356.557L31.2587 357.041ZM38.7925 372.835C52.2829 401.117 86.146 413.108 114.428 399.617L113.944 398.603C86.2223 411.827 53.0298 400.073 39.8065 372.351L38.7925 372.835ZM114.428 399.617C115.938 398.897 117.416 398.11 118.857 397.259L118.285 396.292C116.873 397.126 115.425 397.897 113.944 398.603L114.428 399.617ZM118.857 397.259L166.917 368.871L166.345 367.903L118.285 396.292L118.857 397.259ZM166.917 368.871C175.956 363.531 183.337 355.788 188.238 346.502L187.244 345.978C182.441 355.079 175.206 362.669 166.345 367.903L166.917 368.871ZM188.238 346.502L188.822 345.396L187.828 344.872L187.244 345.978L188.238 346.502ZM188.822 345.396C193.934 335.71 194.094 324.16 189.252 314.335L188.244 314.832C192.927 324.334 192.772 335.504 187.828 344.872L188.822 345.396ZM189.252 314.335L177.453 290.396L176.446 290.893L188.244 314.832L189.252 314.335ZM176.614 290.194C167.85 296.729 161.087 302.255 156.336 306.771C153.96 309.029 152.079 311.043 150.699 312.811C149.325 314.571 148.42 316.122 148.041 317.455L149.122 317.762C149.442 316.635 150.244 315.219 151.584 313.502C152.918 311.793 154.758 309.822 157.11 307.586C161.815 303.114 168.537 297.618 177.285 291.095L176.614 290.194ZM148.041 317.455C147.914 317.9 147.606 318.453 147.067 319.117C146.531 319.777 145.79 320.519 144.835 321.345C142.924 322.997 140.195 324.948 136.636 327.2C129.519 331.703 119.141 337.374 105.491 344.214L105.995 345.219C119.656 338.373 130.073 332.683 137.236 328.15C140.817 325.884 143.599 323.899 145.57 322.195C146.555 321.343 147.348 320.553 147.939 319.825C148.526 319.103 148.937 318.413 149.122 317.762L148.041 317.455ZM105.491 344.214C99.8295 347.052 92.9381 345.064 89.6575 339.647L88.6966 340.229C92.2805 346.147 99.8093 348.318 105.995 345.219L105.491 344.214ZM89.6575 339.647C87.0614 335.36 88.4318 329.78 92.7185 327.184L92.1365 326.223C87.3191 329.141 85.7789 335.411 88.6966 340.229L89.6575 339.647ZM92.7185 327.184C93.2086 326.887 93.7256 326.638 94.2627 326.438L93.8719 325.385C93.2683 325.609 92.6872 325.89 92.1365 326.223L92.7185 327.184ZM94.2627 326.438L145.406 307.462L145.016 306.409L93.8719 325.385L94.2627 326.438Z" fill="#0BC3B8" mask="url(#path-24-inside-4)"/>
<path d="M40.4072 374.202C38.0838 370.23 31.995 357.936 30.5987 354.027C26.9405 343.784 25.7024 335.544 26.8404 329.285C41.2747 338.761 51.7183 348.125 58.1913 357.372C60.7769 361.066 62.5653 365.772 64.3375 370.51C66.4822 376.244 68.4251 386.342 70.1591 400.83C67.7334 399.645 65.4553 398.504 63.3248 397.407C56.58 393.932 52.1181 390.105 48.8041 386.239C45.4482 382.324 42.8514 378.381 40.4072 374.202Z" fill="#0BC3B8" fill-opacity="0.6" stroke="#0BC3B8" stroke-width="0.561744"/>
<path d="M150.828 312.25L150.808 311.997L150.554 311.991C149.456 311.965 148.689 311.811 148.215 311.56C147.983 311.437 147.834 311.296 147.745 311.146C147.657 310.998 147.617 310.821 147.636 310.602C147.675 310.148 147.968 309.535 148.585 308.752C149.196 307.977 150.096 307.068 151.294 306.023C156.05 301.876 164.456 296.599 176.533 290.192C180.785 299.888 184.025 306.826 186.251 310.999C190.728 319.393 192.577 326.917 191.838 333.582C191.091 338.617 189.142 343.634 185.981 348.635C182.875 353.549 178.683 358.314 173.401 362.929C168.639 352.163 165.443 345.382 163.818 342.603C162.272 339.959 158.129 332.26 151.385 319.495L150.828 312.25Z" fill="white" stroke="#0BC3B8" stroke-width="0.561744"/>
<path d="M155.721 218.102L155.721 218.102C155.763 218.167 155.745 218.254 155.68 218.297L51.7112 286.269C28.1716 301.658 19.6865 332.113 31.8769 357.457L39.1317 372.54C52.5457 400.429 86.0279 412.163 113.916 398.749C115.351 398.059 116.756 397.308 118.126 396.498L166.358 368.008C175.286 362.734 182.576 355.087 187.416 345.917L187.999 344.81C193.007 335.323 193.163 324.01 188.421 314.388L176.802 290.813L176.682 290.57L176.435 290.681C169.604 293.751 164.084 296.44 159.882 298.742C155.687 301.04 152.785 302.963 151.208 304.507C149.826 305.86 149.062 307.576 148.747 309.663C148.545 310.999 148.531 312.17 148.614 314.253C148.694 316.26 148.684 316.796 148.515 317.389C148.215 318.445 147.138 319.819 145.191 321.52C143.257 323.21 140.507 325.188 136.93 327.459C129.778 332.001 119.349 337.697 105.605 344.584C99.6156 347.585 92.3259 345.482 88.8557 339.753C86.0993 335.201 87.5543 329.277 92.1055 326.521C92.6659 326.182 93.2596 325.9 93.8771 325.681L147.13 306.802C147.203 306.776 147.284 306.815 147.31 306.888C147.336 306.961 147.297 307.041 147.224 307.067L93.971 325.946C93.3714 326.159 92.7951 326.432 92.251 326.761C87.8325 329.437 86.4199 335.189 89.0959 339.607C92.4903 345.212 99.6207 347.269 105.479 344.333C119.046 337.534 129.412 331.869 136.538 327.375C140.101 325.128 142.861 323.17 144.808 321.506C145.782 320.673 146.557 319.91 147.129 319.217C147.699 318.527 148.081 317.891 148.245 317.312C148.407 316.742 148.408 316.117 148.334 314.264C148.249 312.14 148.265 310.972 148.469 309.621C148.796 307.459 149.591 305.697 151.011 304.307C152.592 302.759 155.51 300.814 159.799 298.467C164.082 296.123 169.71 293.389 176.691 290.259C176.76 290.228 176.841 290.257 176.874 290.325L188.673 314.264C193.455 323.967 193.297 335.374 188.248 344.941L187.664 346.048C182.8 355.264 175.474 362.95 166.501 368.25L118.269 396.74C116.892 397.554 115.48 398.308 114.038 399.002C86.0099 412.483 52.3598 400.69 38.8786 372.662L31.6238 357.579C19.3723 332.107 27.8999 301.5 51.5575 286.034L155.527 218.062C155.591 218.019 155.679 218.037 155.721 218.102Z" fill="#0BC3B8" stroke="#0BC3B8" stroke-width="0.561744"/>
<path fill-rule="evenodd" clip-rule="evenodd" d="M191.072 223.74C181.257 201.936 175.359 187.451 173.377 180.285C166.952 157.055 162.468 136.793 138.469 136.793C114.469 136.793 95.0137 156.249 95.0137 180.249C95.0137 187.085 100.912 209.005 112.709 246.009C130.107 245.939 144.182 245.072 154.936 243.41C165.689 241.747 177.734 235.19 191.072 223.74Z" fill="#D1F4F2" stroke="#0BC3B8" stroke-width="0.842617" stroke-linecap="round" stroke-linejoin="round"/>
<path d="M173.027 180.291C175.01 187.461 180.889 201.902 190.65 223.595C177.394 234.945 165.449 241.419 154.813 243.064C144.122 244.717 130.13 245.583 112.834 245.659C106.968 227.25 102.566 212.59 99.629 201.674C98.1552 196.197 97.0509 191.666 96.3152 188.079C95.5784 184.487 95.215 181.859 95.215 180.18C95.215 156.336 114.545 137.005 138.389 137.005C144.348 137.005 149.078 138.263 152.924 140.496C156.77 142.73 159.751 145.952 162.195 149.907C166.673 157.155 169.327 166.824 172.209 177.321C172.479 178.304 172.751 179.295 173.027 180.291Z" fill="#D1F4F2" stroke="#0BC3B8" stroke-width="0.561744"/>
<path fill-rule="evenodd" clip-rule="evenodd" d="M190.992 223.672C181.178 201.868 175.28 187.383 173.297 180.216C166.872 156.987 162.389 136.725 138.389 136.725C114.39 136.725 94.9341 156.18 94.9341 180.18C94.9341 187.017 100.832 208.937 112.629 245.94C130.027 245.87 144.103 245.004 154.856 243.341C165.609 241.678 177.655 235.122 190.992 223.672Z" stroke="#0BC3B8" stroke-width="0.842617" stroke-linecap="round" stroke-linejoin="round"/>
<path d="M112.67 245.604L112.732 245.801L112.939 245.8C130.182 245.721 144.15 244.856 154.836 243.204C165.51 241.553 177.457 235.063 190.662 223.772L190.822 223.635L190.736 223.443C180.988 201.775 175.137 187.393 173.163 180.255C173.049 179.842 172.76 178.791 172.447 177.654C172.054 176.223 171.622 174.654 171.451 174.036C167.697 160.488 165.094 153.542 160.928 147.753C155.711 140.502 148.602 136.866 138.39 136.866C114.468 136.866 95.0754 156.259 95.0754 180.182C95.0754 181.9 95.4473 184.554 96.1808 188.126C96.9154 191.703 98.0164 196.219 99.4826 201.669C102.415 212.57 106.812 227.22 112.67 245.604ZM173.434 180.18C175.415 187.343 181.318 201.836 191.121 223.615C191.147 223.672 191.132 223.739 191.085 223.78C177.711 235.261 165.647 241.816 154.879 243.481C144.121 245.145 130.041 246.012 112.631 246.082C112.568 246.082 112.514 246.042 112.496 245.984C106.589 227.454 102.161 212.712 99.2113 201.742C97.7362 196.256 96.6312 191.717 95.8952 188.12C95.158 184.518 94.7945 181.877 94.7945 180.182C94.7945 156.104 114.313 136.586 138.39 136.586C148.708 136.586 155.895 140.277 161.156 147.589C165.336 153.397 167.941 160.32 171.722 173.961C171.893 174.581 172.324 176.146 172.716 177.574C173.029 178.712 173.319 179.764 173.434 180.18Z" fill="#0BC3B8" stroke="#0BC3B8" stroke-width="0.561744"/>
<path d="M118.43 200.016C118.4 200.005 118.373 199.995 118.348 199.986C118.348 199.972 118.348 199.957 118.349 199.941C118.353 199.782 118.362 199.544 118.379 199.235C118.415 198.615 118.487 197.707 118.632 196.558C118.922 194.259 119.506 190.995 120.68 187.143C123.026 179.441 127.731 169.389 137.162 159.999C145.294 151.903 152.84 147.38 159.8 146.367C160.056 146.33 160.22 146.386 160.352 146.493C160.499 146.612 160.63 146.814 160.77 147.116C160.867 147.326 160.958 147.561 161.06 147.824C161.106 147.941 161.153 148.063 161.204 148.191C161.367 148.6 161.56 149.05 161.819 149.505C162.467 150.642 163.68 152.973 165.46 156.506C167.25 160.711 168.462 163.788 169.099 165.743C169.591 167.254 169.951 168.807 170.292 170.282C170.359 170.574 170.426 170.863 170.493 171.148C170.895 172.859 171.307 174.439 171.926 175.617C172.837 177.352 173.333 179.092 173.807 181.108C173.922 181.599 174.037 182.107 174.155 182.634C174.523 184.268 174.933 186.093 175.557 188.206C175.96 189.574 177.06 192.053 178.84 195.624C178.196 196.092 177.612 196.415 177.086 196.599C159.3 202.85 144.56 203.675 134.272 202.94C129.128 202.573 125.096 201.816 122.353 201.151C120.982 200.819 119.932 200.51 119.227 200.284C118.875 200.171 118.608 200.079 118.43 200.016Z" fill="#0BC3B8" stroke="#0BC3B8" stroke-width="0.561744"/>
<path d="M142.888 177.261C137.945 171.958 134.989 167.727 133.459 164.025C133.982 163.425 134.442 162.887 134.869 162.387C135.995 161.07 136.888 160.024 138.104 158.835C139.771 157.205 141.903 155.303 145.639 152.615C147.654 157.946 149.681 163.761 152.246 171.641C153.224 174.642 153.56 176.986 153.416 178.684C153.272 180.383 152.655 181.384 151.776 181.811C150.886 182.244 149.623 182.14 148.074 181.387C146.533 180.637 144.758 179.266 142.888 177.261ZM155.392 163.553C155.463 163.558 155.565 163.603 155.697 163.753C155.827 163.902 155.96 164.124 156.093 164.412C156.357 164.988 156.592 165.769 156.801 166.597C156.985 167.328 157.146 168.082 157.287 168.746C157.306 168.831 157.323 168.915 157.341 168.997C157.491 169.701 157.625 170.309 157.744 170.599C157.924 171.037 157.715 171.538 157.276 171.718C156.876 171.882 156.416 171.722 156.204 171.345C155.385 169.891 154.775 168.733 154.372 167.868C154.17 167.435 154.023 167.081 153.927 166.802C153.828 166.515 153.794 166.336 153.796 166.243C153.811 165.524 153.932 164.808 154.199 164.294C154.331 164.039 154.492 163.846 154.683 163.722C154.87 163.599 155.1 163.532 155.392 163.553Z" fill="white" stroke="#0BC3B8" stroke-width="0.561744"/>
<path d="M181.523 271.546C181.523 290.315 166.307 305.531 147.537 305.531C128.768 305.531 113.552 290.315 113.552 271.546C113.552 252.776 128.768 237.56 147.537 237.56C166.307 237.56 181.523 252.776 181.523 271.546Z" fill="#0BC3B8" stroke="#0BC3B8" stroke-width="0.561744"/>
<path d="M155.611 142.189C154.523 142.219 153.289 142.529 151.917 143.101C150.274 143.787 148.417 144.856 146.348 146.304C142.212 149.199 137.205 153.625 131.347 159.576C119.597 171.513 115.195 184.103 118.183 197.364C118.2 197.44 118.153 197.515 118.077 197.532C118.001 197.549 117.926 197.502 117.909 197.426C114.905 184.097 119.305 171.409 131.147 159.379C136.928 153.506 141.874 149.116 146.002 146.204C149.979 143.398 153.158 141.992 155.572 141.91C155.569 141.93 155.566 141.951 155.564 141.971C155.562 142.006 155.559 142.084 155.598 142.164C155.602 142.172 155.606 142.181 155.611 142.189Z" fill="#0BC3B8" stroke="#0BC3B8" stroke-width="0.561744"/>
<path d="M153.782 281.759L153.723 281.829L153.717 281.921L152.255 305.449L125.723 298.042L138.199 266.14L169.766 256.99C170.809 256.688 171.899 257.288 172.202 258.331C172.384 258.959 172.242 259.636 171.823 260.138L153.782 281.759Z" fill="white" stroke="#0BC3B8" stroke-width="0.561744"/>
<path d="M129.913 275.391C131.049 273.952 133.684 270.972 137.826 266.443C140.413 272.719 142.036 277.972 142.706 282.207C143.391 286.541 143.07 289.764 141.808 291.928C140.851 293.568 139.811 294.302 138.733 294.488C137.639 294.677 136.437 294.314 135.133 293.603C133.832 292.893 132.472 291.861 131.074 290.765C130.897 290.626 130.72 290.487 130.543 290.347C129.32 289.386 128.073 288.405 126.835 287.6C126.132 287.143 125.615 286.638 125.31 286.033C125.007 285.433 124.9 284.708 125.065 283.785C125.4 281.914 126.84 279.281 129.913 275.391Z" fill="#D1F4F2" stroke="#0BC3B8" stroke-width="0.561744"/>
<path d="M138.111 266.575L137.943 266.164L137.644 266.492C133.598 270.918 131.002 273.854 129.873 275.284C127.108 278.784 125.551 281.345 125.078 283.295C124.839 284.28 124.871 285.127 125.179 285.865C125.487 286.602 126.056 287.195 126.829 287.698C127.339 288.029 127.874 288.405 128.466 288.846C128.998 289.242 129.492 289.624 130.336 290.288C133.738 292.963 135.066 293.877 136.727 294.406C137.789 294.744 138.763 294.757 139.656 294.354C140.542 293.955 141.309 293.164 142 291.978C143.294 289.76 143.587 286.512 142.936 282.295C142.283 278.069 140.675 272.825 138.111 266.575ZM137.884 265.813C137.953 265.737 138.078 265.759 138.117 265.854C140.826 272.369 142.522 277.812 143.205 282.198C143.889 286.59 143.55 289.878 142.243 292.12C141.488 293.413 140.649 294.223 139.733 294.627C138.822 295.028 137.799 295.042 136.642 294.674C134.955 294.137 133.674 293.269 130.162 290.509C129.322 289.848 128.829 289.466 128.298 289.071C127.712 288.636 127.182 288.262 126.676 287.934C125.824 287.38 125.247 286.762 124.93 286.05C124.613 285.341 124.542 284.508 124.755 283.501C125.185 281.466 126.756 278.776 129.653 275.11C130.825 273.626 133.563 270.533 137.884 265.813ZM155.207 281.015C155.251 280.951 155.339 280.936 155.402 280.98C155.466 281.024 155.482 281.112 155.438 281.175C154.63 282.338 153.865 283.201 153.138 283.771C152.412 284.341 151.739 284.606 151.109 284.606C151.032 284.606 150.969 284.543 150.969 284.466C150.969 284.388 151.032 284.325 151.109 284.325C151.736 284.325 152.392 284.021 153.064 283.471C153.738 282.919 154.454 282.099 155.207 281.015Z" fill="#0BC3B8" stroke="#0BC3B8" stroke-width="0.561744"/>
<path d="M120.494 201.047C120.494 203.219 118.734 204.979 116.562 204.979C114.391 204.979 112.63 203.219 112.63 201.047C112.63 198.875 114.391 197.115 116.562 197.115C118.734 197.115 120.494 198.875 120.494 201.047Z" fill="white" stroke="#0BC3B8" stroke-width="0.561744"/>
<path d="M120.714 201.047C120.714 203.451 118.765 205.4 116.36 205.4C113.956 205.4 112.007 203.451 112.007 201.047C112.007 198.642 113.956 196.693 116.36 196.693C118.765 196.693 120.714 198.642 120.714 201.047ZM112.288 201.047C112.288 203.296 114.111 205.119 116.36 205.119C118.61 205.119 120.433 203.296 120.433 201.047C120.433 198.797 118.61 196.974 116.36 196.974C114.111 196.974 112.288 198.797 112.288 201.047Z" fill="#0BC3B8" stroke="#0BC3B8" stroke-width="0.561744"/>
<path d="M118.748 201.048C118.748 202.194 117.7 203.154 116.361 203.154C115.022 203.154 113.973 202.194 113.973 201.048C113.973 199.901 115.022 198.941 116.361 198.941C117.7 198.941 118.748 199.901 118.748 201.048ZM114.254 201.048C114.254 202.082 115.229 202.873 116.361 202.873C117.493 202.873 118.467 202.082 118.467 201.048C118.467 200.013 117.493 199.222 116.361 199.222C115.229 199.222 114.254 200.013 114.254 201.048Z" fill="#0BC3B8" stroke="#0BC3B8" stroke-width="0.561744"/>
<path d="M125.439 298.829L152.208 304.073L150.643 319.405L126.898 333.373L108.218 343.09L99.4048 331.34C103.041 331.108 105.927 330.7 108.055 330.112C110.263 329.501 111.732 328.675 112.316 327.571C115.417 321.715 119.791 312.132 125.439 298.829Z" fill="white" stroke="#0BC3B8" stroke-width="0.561744"/>
<path d="M125.577 298.431L125.354 298.388L125.265 298.597C119.635 311.854 115.279 321.392 112.192 327.224C111.691 328.169 110.452 328.974 108.342 329.602C106.246 330.225 103.356 330.655 99.6538 330.901L99.1369 330.935L99.4477 331.35L108.033 342.797L108.176 342.988L108.388 342.878L126.949 333.223L126.956 333.22L126.962 333.216L150.55 319.341L150.725 319.402L150.93 319.082L150.802 318.948L152.335 303.933L152.361 303.678L152.109 303.629L125.577 298.431ZM125.296 298.09L125.35 297.815L125.296 298.09L152.54 303.427C152.612 303.441 152.66 303.507 152.653 303.579L151.047 319.308C151.043 319.352 151.017 319.392 150.979 319.414L127.092 333.465L108.2 343.292C108.139 343.324 108.064 343.307 108.023 343.252L98.7544 330.893L98.5297 331.062L98.7544 330.893C98.6872 330.804 98.7468 330.675 98.8586 330.669C102.664 330.449 105.661 330.039 107.833 329.454C108.919 329.162 109.808 328.823 110.492 328.437C111.174 328.051 111.672 327.606 111.944 327.092C115.053 321.218 119.453 311.574 125.139 298.173C125.165 298.112 125.231 298.077 125.296 298.09Z" fill="#0BC3B8" stroke="#0BC3B8" stroke-width="0.561744"/>
<path d="M49.9952 188.688C47.3581 188.688 45.2203 186.55 45.2203 183.913C45.2203 181.276 47.3581 179.138 49.9952 179.138C52.6322 179.138 54.77 181.276 54.77 183.913C54.77 186.55 52.6322 188.688 49.9952 188.688ZM92.5355 236.03L88.0001 238.55L85.111 229.145C81.9262 218.777 86.9138 207.653 96.7738 203.134L99.2417 202.003L100.416 206.484C100.177 206.569 99.9398 206.659 99.7046 206.754C90.6793 210.407 86.3242 220.685 89.9773 229.71L92.5355 236.03Z" fill="white" stroke="#0BC3B8" stroke-width="0.561744"/>
<path d="M61.0717 207.62L61.0849 207.531L61.0444 207.451L51.5554 188.753C51.5203 188.683 51.548 188.599 51.6171 188.564C51.6863 188.529 51.7708 188.556 51.8059 188.625L61.3556 207.444C61.3687 207.47 61.3735 207.499 61.3693 207.528L60.2938 214.788L60.2618 215.004L60.4632 215.088L68.0018 218.243L68.1103 217.984L68.0018 218.243C68.0315 218.255 68.056 218.278 68.0713 218.306L80.7342 241.838C80.7709 241.906 80.7454 241.991 80.6771 242.028C80.6088 242.065 80.5236 242.039 80.4869 241.971L67.8947 218.57L67.8475 218.483L67.7558 218.444L60.0526 215.221C59.9934 215.196 59.9585 215.134 59.9679 215.07L61.0717 207.62Z" fill="#0BC3B8" stroke="#0BC3B8" stroke-width="0.561744"/>
<path d="M87.6137 238.425L87.7155 238.757L88.0186 238.588L92.2939 236.213L92.5111 236.092L92.4179 235.862L89.9063 229.657C86.2822 220.703 90.6026 210.507 99.556 206.883C99.7501 206.805 99.9455 206.73 100.142 206.658L100.383 206.571L100.318 206.323L99.2187 202.128L99.1339 201.805L98.83 201.944L96.514 203.006C86.59 207.554 81.5701 218.75 84.7755 229.185L87.6137 238.425ZM49.7939 189.109C46.9242 189.109 44.5978 186.782 44.5978 183.913C44.5978 181.043 46.9242 178.716 49.7939 178.716C52.6636 178.716 54.99 181.043 54.99 183.913C54.99 186.782 52.6636 189.109 49.7939 189.109ZM49.7939 188.828C52.5085 188.828 54.7092 186.627 54.7092 183.913C54.7092 181.198 52.5085 178.997 49.7939 178.997C47.0793 178.997 44.8786 181.198 44.8786 183.913C44.8786 186.627 47.0793 188.828 49.7939 188.828ZM99.1689 201.48C99.2482 201.443 99.3411 201.488 99.3633 201.572L100.688 206.628C100.707 206.699 100.667 206.773 100.597 206.796C100.282 206.903 99.97 207.019 99.6614 207.144C90.8518 210.71 86.6008 220.742 90.1666 229.552L92.818 236.102C92.8446 236.168 92.818 236.243 92.756 236.278L87.7003 239.086C87.6223 239.13 87.5241 239.09 87.4979 239.005L84.507 229.268C81.2602 218.698 86.345 207.357 96.397 202.75L99.1689 201.48Z" fill="#0BC3B8" stroke="#0BC3B8" stroke-width="0.561744"/>
<path d="M60.3556 354.061L60.0723 354.214L60.2629 354.474C67.5438 364.4 72.2156 380.272 74.264 402.139L73.9843 402.165C71.9157 380.082 67.164 364.078 59.7136 354.206C53.6232 346.137 47.0821 339.488 40.3448 334.126C35.5019 330.272 30.9607 327.392 26.9607 325.361L27.0867 325.11C31.0991 327.147 35.6571 330.036 40.5197 333.906C47.2056 339.227 53.7005 345.813 59.7552 353.796L59.9008 353.988L60.1127 353.873L88.4078 338.55C88.476 338.513 88.5612 338.539 88.5982 338.607C88.6351 338.675 88.6098 338.76 88.5416 338.797L60.3556 354.061ZM100.93 346.208C100.893 346.14 100.918 346.054 100.986 346.017C101.054 345.98 101.139 346.005 101.176 346.073L126.235 391.972C126.272 392.04 126.247 392.126 126.179 392.163C126.111 392.2 126.025 392.175 125.988 392.107L100.93 346.208ZM91.2368 327.096C91.271 327.166 91.2423 327.25 91.1727 327.284C91.1031 327.318 91.0189 327.29 90.9847 327.22L66.1597 276.663C66.1255 276.593 66.1543 276.509 66.2239 276.475C66.2935 276.441 66.3777 276.47 66.4118 276.539L66.6638 276.415L66.4118 276.539L91.2368 327.096Z" fill="#0BC3B8" stroke="#0BC3B8" stroke-width="0.561744"/>
<path d="M112.911 246.268L125.349 271.546" stroke="#0BC3B8" stroke-width="0.842617" stroke-linecap="round" stroke-linejoin="round"/>
<path d="M151.048 319.434L173.298 363.195" stroke="#0BC3B8" stroke-width="0.842617" stroke-linecap="round" stroke-linejoin="round"/>
<mask id="path-51-inside-5" fill="white">
<path d="M502.366 119.187C502.59 119.124 502.823 119.255 502.886 119.479C502.949 119.703 502.819 119.935 502.595 119.998L466.844 130.069C458.109 132.53 453.023 141.605 455.483 150.34C456.057 152.376 457.018 154.282 458.314 155.953L463.557 162.714C468.639 169.268 467.445 178.702 460.891 183.784C457.948 186.066 454.262 187.173 450.548 186.89L432.521 185.517C423.369 184.82 414.433 188.529 408.464 195.502L399.72 205.716C399.569 205.893 399.303 205.914 399.126 205.762C398.95 205.611 398.929 205.345 399.08 205.168L407.824 194.954C413.968 187.777 423.165 183.96 432.585 184.677L450.612 186.05C454.117 186.317 457.597 185.272 460.375 183.118C466.561 178.321 467.688 169.417 462.891 163.23L457.648 156.469C456.286 154.712 455.275 152.708 454.672 150.568C452.086 141.386 457.433 131.845 466.615 129.258L502.366 119.187ZM440.408 241.211V233.908C440.408 233.598 440.659 233.346 440.969 233.346C441.28 233.346 441.531 233.598 441.531 233.908V241.211H448.834C449.144 241.211 449.396 241.462 449.396 241.772C449.396 242.083 449.144 242.334 448.834 242.334H441.531V249.637C441.531 249.947 441.28 250.198 440.969 250.198C440.659 250.198 440.408 249.947 440.408 249.637V242.334H433.105C432.795 242.334 432.543 242.083 432.543 241.772C432.543 241.462 432.795 241.211 433.105 241.211H440.408ZM177.511 61.4523V54.1496C177.511 53.8394 177.763 53.5879 178.073 53.5879C178.383 53.5879 178.635 53.8394 178.635 54.1496V61.4523H185.937C186.248 61.4523 186.499 61.7038 186.499 62.0141C186.499 62.3243 186.248 62.5758 185.937 62.5758H178.635V69.8785C178.635 70.1887 178.383 70.4402 178.073 70.4402C177.763 70.4402 177.511 70.1887 177.511 69.8785V62.5758H170.209C169.898 62.5758 169.647 62.3243 169.647 62.0141C169.647 61.7038 169.898 61.4523 170.209 61.4523H177.511ZM415.691 94.0335V86.7308C415.691 86.4206 415.942 86.1691 416.253 86.1691C416.563 86.1691 416.814 86.4206 416.814 86.7308V94.0335H424.117C424.427 94.0335 424.679 94.285 424.679 94.5952C424.679 94.9055 424.427 95.157 424.117 95.157H416.814V102.46C416.814 102.77 416.563 103.021 416.253 103.021C415.942 103.021 415.691 102.77 415.691 102.46V95.157H408.388C408.078 95.157 407.826 94.9055 407.826 94.5952C407.826 94.285 408.078 94.0335 408.388 94.0335H415.691ZM6.17919 241.211V235.593C6.17919 235.283 6.43069 235.031 6.74093 235.031C7.05118 235.031 7.30268 235.283 7.30268 235.593V241.211H12.9201C13.2304 241.211 13.4819 241.462 13.4819 241.772C13.4819 242.083 13.2304 242.334 12.9201 242.334H7.30268V247.951C7.30268 248.262 7.05118 248.513 6.74093 248.513C6.43069 248.513 6.17919 248.262 6.17919 247.951V242.334H0.561744C0.251502 242.334 0 242.083 0 241.772C0 241.462 0.251502 241.211 0.561744 241.211H6.17919ZM350.809 159.758V154.421C350.809 154.111 351.061 153.859 351.371 153.859C351.681 153.859 351.933 154.111 351.933 154.421V159.758H357.269C357.58 159.758 357.831 160.009 357.831 160.319C357.831 160.63 357.58 160.881 357.269 160.881H351.933V166.218C351.933 166.528 351.681 166.779 351.371 166.779C351.061 166.779 350.809 166.528 350.809 166.218V160.881H345.473C345.163 160.881 344.911 160.63 344.911 160.319C344.911 160.009 345.163 159.758 345.473 159.758H350.809ZM208.126 143.186V137.85C208.126 137.539 208.378 137.288 208.688 137.288C208.998 137.288 209.25 137.539 209.25 137.85V143.186H214.586C214.897 143.186 215.148 143.438 215.148 143.748C215.148 144.058 214.897 144.31 214.586 144.31H209.25V149.646C209.25 149.956 208.998 150.208 208.688 150.208C208.378 150.208 208.126 149.956 208.126 149.646V144.31H202.79C202.48 144.31 202.228 144.058 202.228 143.748C202.228 143.438 202.48 143.186 202.79 143.186H208.126Z"/>
</mask>
<path d="M502.366 119.187C502.59 119.124 502.823 119.255 502.886 119.479C502.949 119.703 502.819 119.935 502.595 119.998L466.844 130.069C458.109 132.53 453.023 141.605 455.483 150.34C456.057 152.376 457.018 154.282 458.314 155.953L463.557 162.714C468.639 169.268 467.445 178.702 460.891 183.784C457.948 186.066 454.262 187.173 450.548 186.89L432.521 185.517C423.369 184.82 414.433 188.529 408.464 195.502L399.72 205.716C399.569 205.893 399.303 205.914 399.126 205.762C398.95 205.611 398.929 205.345 399.08 205.168L407.824 194.954C413.968 187.777 423.165 183.96 432.585 184.677L450.612 186.05C454.117 186.317 457.597 185.272 460.375 183.118C466.561 178.321 467.688 169.417 462.891 163.23L457.648 156.469C456.286 154.712 455.275 152.708 454.672 150.568C452.086 141.386 457.433 131.845 466.615 129.258L502.366 119.187ZM440.408 241.211V233.908C440.408 233.598 440.659 233.346 440.969 233.346C441.28 233.346 441.531 233.598 441.531 233.908V241.211H448.834C449.144 241.211 449.396 241.462 449.396 241.772C449.396 242.083 449.144 242.334 448.834 242.334H441.531V249.637C441.531 249.947 441.28 250.198 440.969 250.198C440.659 250.198 440.408 249.947 440.408 249.637V242.334H433.105C432.795 242.334 432.543 242.083 432.543 241.772C432.543 241.462 432.795 241.211 433.105 241.211H440.408ZM177.511 61.4523V54.1496C177.511 53.8394 177.763 53.5879 178.073 53.5879C178.383 53.5879 178.635 53.8394 178.635 54.1496V61.4523H185.937C186.248 61.4523 186.499 61.7038 186.499 62.0141C186.499 62.3243 186.248 62.5758 185.937 62.5758H178.635V69.8785C178.635 70.1887 178.383 70.4402 178.073 70.4402C177.763 70.4402 177.511 70.1887 177.511 69.8785V62.5758H170.209C169.898 62.5758 169.647 62.3243 169.647 62.0141C169.647 61.7038 169.898 61.4523 170.209 61.4523H177.511ZM415.691 94.0335V86.7308C415.691 86.4206 415.942 86.1691 416.253 86.1691C416.563 86.1691 416.814 86.4206 416.814 86.7308V94.0335H424.117C424.427 94.0335 424.679 94.285 424.679 94.5952C424.679 94.9055 424.427 95.157 424.117 95.157H416.814V102.46C416.814 102.77 416.563 103.021 416.253 103.021C415.942 103.021 415.691 102.77 415.691 102.46V95.157H408.388C408.078 95.157 407.826 94.9055 407.826 94.5952C407.826 94.285 408.078 94.0335 408.388 94.0335H415.691ZM6.17919 241.211V235.593C6.17919 235.283 6.43069 235.031 6.74093 235.031C7.05118 235.031 7.30268 235.283 7.30268 235.593V241.211H12.9201C13.2304 241.211 13.4819 241.462 13.4819 241.772C13.4819 242.083 13.2304 242.334 12.9201 242.334H7.30268V247.951C7.30268 248.262 7.05118 248.513 6.74093 248.513C6.43069 248.513 6.17919 248.262 6.17919 247.951V242.334H0.561744C0.251502 242.334 0 242.083 0 241.772C0 241.462 0.251502 241.211 0.561744 241.211H6.17919ZM350.809 159.758V154.421C350.809 154.111 351.061 153.859 351.371 153.859C351.681 153.859 351.933 154.111 351.933 154.421V159.758H357.269C357.58 159.758 357.831 160.009 357.831 160.319C357.831 160.63 357.58 160.881 357.269 160.881H351.933V166.218C351.933 166.528 351.681 166.779 351.371 166.779C351.061 166.779 350.809 166.528 350.809 166.218V160.881H345.473C345.163 160.881 344.911 160.63 344.911 160.319C344.911 160.009 345.163 159.758 345.473 159.758H350.809ZM208.126 143.186V137.85C208.126 137.539 208.378 137.288 208.688 137.288C208.998 137.288 209.25 137.539 209.25 137.85V143.186H214.586C214.897 143.186 215.148 143.438 215.148 143.748C215.148 144.058 214.897 144.31 214.586 144.31H209.25V149.646C209.25 149.956 208.998 150.208 208.688 150.208C208.378 150.208 208.126 149.956 208.126 149.646V144.31H202.79C202.48 144.31 202.228 144.058 202.228 143.748C202.228 143.438 202.48 143.186 202.79 143.186H208.126Z" fill="white" stroke="white" stroke-width="1.12349" mask="url(#path-51-inside-5)"/>
<path d="M146.329 264.415C147.907 263.527 149.996 263.922 152.679 265.833C154.86 269.437 155.302 272.496 154.122 275.055C153.225 277 151.984 277.863 150.757 278.251C149.693 278.589 148.632 278.575 147.751 278.563C147.597 278.561 147.449 278.559 147.307 278.559C146.531 278.559 145.768 277.942 144.933 276.753C144.11 275.582 143.282 273.952 142.349 272.112C141.474 270.388 141.817 268.847 142.703 267.537C143.599 266.213 145.045 265.139 146.329 264.415Z" fill="#D1F4F2" stroke="#0BC3B8" stroke-width="0.561744"/>
<path d="M152.457 267.298C152.268 269.249 151.627 270.409 150.622 270.92C149.687 271.394 148.188 271.685 146.091 271.767C145.316 271.797 144.663 271.194 144.633 270.419C144.622 270.153 144.687 269.89 144.82 269.66C145.395 268.667 145.932 267.874 146.432 267.276C146.934 266.675 147.387 266.287 147.786 266.084C148.654 265.644 149.813 265.528 151.292 265.777C152.019 265.9 152.528 266.564 152.457 267.298Z" fill="white" stroke="#0BC3B8" stroke-width="0.561744"/>
<path d="M152.315 268.035L151.801 267.839C151.576 268.192 151.11 268.456 150.548 268.456C149.722 268.456 149.143 267.908 149.143 267.333C149.143 266.772 149.694 266.236 150.491 266.21L150.511 265.65C149.319 265.522 148.317 265.65 147.522 266.054C147.07 266.283 146.594 266.713 146.097 267.312C145.598 267.915 145.063 268.708 144.497 269.685C144.351 269.938 144.279 270.227 144.291 270.519C144.324 271.372 145.043 272.036 145.895 272.002C147.957 271.921 149.503 271.638 150.484 271.14C151.47 270.64 152.065 269.58 152.315 268.035ZM151.332 265.787L151.146 266.317C151.263 266.361 151.371 266.418 151.467 266.485L151.799 266.032C151.661 265.926 151.503 265.842 151.332 265.787ZM152.675 267.433C152.474 269.51 151.768 270.804 150.611 271.39C149.611 271.898 148.058 272.199 145.906 272.283C144.899 272.322 144.05 271.538 144.01 270.53C143.997 270.185 144.081 269.843 144.254 269.544C145.45 267.478 146.487 266.264 147.395 265.803C148.352 265.317 149.601 265.194 151.161 265.457C152.106 265.616 152.767 266.479 152.675 267.433Z" fill="#0BC3B8" stroke="#0BC3B8" stroke-width="0.561744"/>
<path d="M166.485 257.438C167.888 256.693 169.195 256.491 170.421 256.797C171.142 256.978 171.543 257.247 171.72 257.556C171.876 257.827 171.896 258.193 171.702 258.697C170.398 258.775 169.253 258.771 168.266 258.687C167.531 258.624 166.916 258.363 166.407 257.907C166.383 257.885 166.362 257.859 166.347 257.831L166.347 257.831C166.274 257.694 166.325 257.524 166.462 257.45L166.485 257.438Z" fill="#D1F4F2" stroke="#0BC3B8" stroke-width="0.561744"/>
<path d="M166.595 257.951C167.131 258.431 167.777 258.701 168.535 258.765C169.511 258.849 170.633 258.854 171.899 258.781L172.087 258.771L172.149 258.594C172.314 258.12 172.321 257.676 172.046 257.307C171.789 256.962 171.329 256.748 170.736 256.6C169.447 256.278 168.094 256.507 166.677 257.265L166.677 257.265C166.472 257.375 166.395 257.631 166.504 257.836C166.527 257.879 166.558 257.918 166.595 257.951ZM166.595 257.951L166.781 257.743L166.595 257.951C166.595 257.951 166.595 257.951 166.595 257.951ZM172.303 258.963L172.559 259.078L172.303 258.963C172.282 259.01 172.236 259.042 172.184 259.046C170.788 259.136 169.565 259.135 168.512 259.045C167.687 258.975 166.985 258.678 166.407 258.16C166.346 258.105 166.295 258.04 166.257 257.968C166.074 257.626 166.203 257.201 166.545 257.018C168.043 256.216 169.464 255.992 170.805 256.328C171.636 256.536 172.141 256.884 172.377 257.302C172.607 257.712 172.618 258.26 172.303 258.963Z" fill="#0BC3B8" stroke="#0BC3B8" stroke-width="0.561744"/>
<mask id="path-57-inside-6" fill="white">
<path fill-rule="evenodd" clip-rule="evenodd" d="M519.614 94.0352L513.996 95.4395L528.321 109.483L530.006 103.866"/>
</mask>
<path fill-rule="evenodd" clip-rule="evenodd" d="M519.614 94.0352L513.996 95.4395L528.321 109.483L530.006 103.866" fill="white"/>
<path d="M513.996 95.4395L513.86 94.8945L512.886 95.138L513.603 95.8406L513.996 95.4395ZM528.321 109.483L527.927 109.884L528.591 110.535L528.859 109.645L528.321 109.483ZM519.477 93.4902L513.86 94.8945L514.132 95.9845L519.75 94.5801L519.477 93.4902ZM513.603 95.8406L527.927 109.884L528.714 109.082L514.389 95.0384L513.603 95.8406ZM528.859 109.645L530.544 104.027L529.468 103.704L527.783 109.322L528.859 109.645Z" fill="#0BC3B8" mask="url(#path-57-inside-6)"/>
<path d="M308.117 375.748C308.117 377.92 306.356 379.68 304.185 379.68C302.013 379.68 300.253 377.92 300.253 375.748C300.253 373.577 302.013 371.816 304.185 371.816C306.356 371.816 308.117 373.577 308.117 375.748Z" fill="white" stroke="#0BC3B8" stroke-width="0.561744"/>
<path d="M308.337 375.75C308.337 378.154 306.388 380.103 303.984 380.103C301.579 380.103 299.63 378.154 299.63 375.75C299.63 373.345 301.579 371.396 303.984 371.396C306.388 371.396 308.337 373.345 308.337 375.75ZM299.911 375.75C299.911 377.999 301.734 379.822 303.984 379.822C306.233 379.822 308.056 377.999 308.056 375.75C308.056 373.5 306.233 371.677 303.984 371.677C301.734 371.677 299.911 373.5 299.911 375.75Z" fill="#0BC3B8" stroke="#0BC3B8" stroke-width="0.561744"/>
<path d="M371.594 308.901C371.594 311.072 369.834 312.833 367.662 312.833C365.49 312.833 363.73 311.072 363.73 308.901C363.73 306.729 365.49 304.968 367.662 304.968C369.834 304.968 371.594 306.729 371.594 308.901Z" fill="white" stroke="#0BC3B8" stroke-width="0.561744"/>
<path d="M372.015 308.902C372.015 311.306 370.066 313.255 367.662 313.255C365.257 313.255 363.308 311.306 363.308 308.902C363.308 306.498 365.257 304.548 367.662 304.548C370.066 304.548 372.015 306.498 372.015 308.902ZM363.589 308.902C363.589 311.151 365.412 312.975 367.662 312.975C369.911 312.975 371.734 311.151 371.734 308.902C371.734 306.653 369.911 304.829 367.662 304.829C365.412 304.829 363.589 306.653 363.589 308.902Z" fill="#0BC3B8" stroke="#0BC3B8" stroke-width="0.561744"/>
<path d="M306.371 375.749C306.371 376.895 305.322 377.855 303.983 377.855C302.644 377.855 301.596 376.895 301.596 375.749C301.596 374.602 302.644 373.642 303.983 373.642C305.322 373.642 306.371 374.602 306.371 375.749ZM301.877 375.749C301.877 376.783 302.851 377.574 303.983 377.574C305.115 377.574 306.09 376.783 306.09 375.749C306.09 374.714 305.115 373.923 303.983 373.923C302.851 373.923 301.877 374.714 301.877 375.749Z" fill="#0BC3B8" stroke="#0BC3B8" stroke-width="0.561744"/>
<path d="M370.049 308.901C370.049 310.048 369.001 311.008 367.662 311.008C366.323 311.008 365.275 310.048 365.275 308.901C365.275 307.755 366.323 306.795 367.662 306.795C369.001 306.795 370.049 307.755 370.049 308.901ZM365.555 308.901C365.555 309.936 366.53 310.727 367.662 310.727C368.794 310.727 369.768 309.936 369.768 308.901C369.768 307.867 368.794 307.075 367.662 307.075C366.53 307.075 365.555 307.867 365.555 308.901Z" fill="#0BC3B8" stroke="#0BC3B8" stroke-width="0.561744"/>
<path d="M149.226 206.523C141.789 206.712 135.678 206.357 130.882 205.457C126.081 204.556 122.629 203.113 120.479 201.15C120.422 201.098 120.418 201.009 120.47 200.952C120.522 200.894 120.611 200.89 120.668 200.943C122.826 202.913 126.303 204.325 131.05 205.203C135.804 206.081 141.863 206.429 149.219 206.243C163.949 205.87 174.434 203.638 180.602 199.525C180.667 199.482 180.754 199.5 180.797 199.564C180.84 199.629 180.823 199.716 180.758 199.759C174.568 203.886 164.081 206.147 149.226 206.523Z" fill="#0BC3B8" stroke="#0BC3B8" stroke-width="0.561744"/>
<path d="M563.234 37.2733C577.704 25.0598 591.895 16.5656 605.806 11.7795C606.509 11.5375 607.289 11.7105 607.824 12.2272C608.356 12.7413 608.55 13.5131 608.324 14.2177C603.779 28.3869 595.722 42.8022 584.142 57.4632C572.238 72.5358 555.572 89.1833 534.14 107.406L515.066 88.9873C532.297 67.0699 548.353 49.8337 563.234 37.2733Z" fill="#D1F4F2" stroke="#0BC3B8" stroke-width="0.561744"/>
<path d="M606.704 18.7985C605.141 22.7496 602.397 28.2966 598.466 35.4447L584.123 22.1846C591.264 18.0741 596.83 15.1717 600.825 13.4726C602.855 12.6093 604.467 12.0621 605.668 11.8219C606.269 11.7017 606.754 11.661 607.132 11.6904C607.51 11.72 607.754 11.8181 607.902 11.9495C608.046 12.0782 608.161 12.2969 608.214 12.65C608.267 13.0032 608.253 13.4665 608.162 14.0483C607.979 15.2116 607.497 16.7923 606.704 18.7985Z" fill="#5BD7CF" stroke="#0BC3B8" stroke-width="0.561744"/>
<path d="M526.136 107.256L525.918 107.041L525.723 107.278L517.461 117.292L518.208 110.072L518.248 109.677L517.863 109.77L511.4 111.321L513.971 105.665L514.151 105.268H513.715H506.379L515.95 97.7122L516.2 97.5145L515.972 97.2912L513.719 95.0815L519.307 93.6844L519.375 93.9568L514.76 95.1105L514.273 95.2322L514.632 95.5836L527.921 108.612L528.253 108.937L528.386 108.492L529.79 103.812L530.06 103.892L528.388 109.463L526.136 107.256Z" fill="#0BC3B8" stroke="#0BC3B8" stroke-width="0.561744"/>
<path d="M515.026 88.6113L514.869 88.8107L515.052 88.987L533.942 107.229L534.125 107.406L534.319 107.241C555.702 89.0532 572.346 72.4255 584.244 57.3608C595.825 42.6974 603.896 28.2673 608.45 14.0712C608.692 13.3156 608.484 12.488 607.914 11.9368C607.34 11.3834 606.505 11.1981 605.752 11.4573C591.812 16.2532 577.606 24.7622 563.135 36.9765C548.262 49.5302 532.225 66.7438 515.026 88.6113ZM608.717 14.157L608.985 14.2428L608.717 14.157C604.156 28.3773 596.074 42.8363 584.465 57.5349C572.505 72.6771 555.756 89.3986 534.21 107.702C534.155 107.749 534.074 107.747 534.022 107.696L514.583 88.9247C514.531 88.8747 514.526 88.7936 514.57 88.737C531.876 66.7037 548.003 49.3808 562.954 36.7619C577.462 24.5167 591.697 15.9959 605.661 11.1917C606.514 10.8982 607.46 11.108 608.109 11.7347C608.756 12.3603 608.993 13.2995 608.717 14.157Z" fill="#0BC3B8" stroke="#0BC3B8" stroke-width="0.561744"/>
<path d="M494.235 88.4605L542.842 59.9738L540.865 63.4946L514.855 88.5696L495.538 89.7186L494.235 88.4605ZM559.071 80.8899L562.557 78.851L534.923 127.948L533.642 126.668L534.454 107.333L559.071 80.8899Z" fill="white" stroke="#0BC3B8" stroke-width="0.561744"/>
<mask id="path-71-inside-7" fill="white">
<path d="M543.108 59.0427C543.479 58.8253 543.899 59.2377 543.689 59.6125L541.183 64.0736L541.108 64.1706L514.994 89.3463C514.922 89.416 514.827 89.4576 514.726 89.4635L495.182 90.626C495.065 90.633 494.949 90.5904 494.865 90.5085L493.207 88.9076C493.006 88.7138 493.046 88.3821 493.286 88.241L543.108 59.0427ZM494.192 88.6872L495.317 89.7739L514.521 88.6316L540.478 63.607L542.192 60.5563L494.192 88.6872ZM540.523 63.564L540.448 63.661L540.478 63.607L540.523 63.564ZM562.824 77.9204C563.195 77.7033 563.615 78.1161 563.404 78.4907L535.079 128.815C534.942 129.058 534.611 129.103 534.414 128.906L532.785 127.276C532.701 127.193 532.657 127.078 532.662 126.961L533.483 107.399C533.487 107.299 533.527 107.203 533.595 107.13L558.311 80.5804L558.407 80.5038L562.824 77.9204ZM558.886 81.1998L534.318 107.59L533.511 126.811L534.617 127.917L561.906 79.4332L558.886 81.1998Z"/>
</mask>
<path d="M543.108 59.0427C543.479 58.8253 543.899 59.2377 543.689 59.6125L541.183 64.0736L541.108 64.1706L514.994 89.3463C514.922 89.416 514.827 89.4576 514.726 89.4635L495.182 90.626C495.065 90.633 494.949 90.5904 494.865 90.5085L493.207 88.9076C493.006 88.7138 493.046 88.3821 493.286 88.241L543.108 59.0427ZM494.192 88.6872L495.317 89.7739L514.521 88.6316L540.478 63.607L542.192 60.5563L494.192 88.6872ZM540.523 63.564L540.448 63.661L540.478 63.607L540.523 63.564ZM562.824 77.9204C563.195 77.7033 563.615 78.1161 563.404 78.4907L535.079 128.815C534.942 129.058 534.611 129.103 534.414 128.906L532.785 127.276C532.701 127.193 532.657 127.078 532.662 126.961L533.483 107.399C533.487 107.299 533.527 107.203 533.595 107.13L558.311 80.5804L558.407 80.5038L562.824 77.9204ZM558.886 81.1998L534.318 107.59L533.511 126.811L534.617 127.917L561.906 79.4332L558.886 81.1998Z" fill="#0BC3B8"/>
<path d="M543.108 59.0427L543.392 59.5273V59.5273L543.108 59.0427ZM543.689 59.6125L544.178 59.8876V59.8876L543.689 59.6125ZM541.183 64.0736L541.627 64.417L541.652 64.3845L541.673 64.3487L541.183 64.0736ZM541.108 64.1706L541.498 64.575L541.527 64.5465L541.552 64.514L541.108 64.1706ZM514.994 89.3463L514.604 88.9419L514.994 89.3463ZM514.726 89.4635L514.693 88.9028H514.693L514.726 89.4635ZM495.182 90.626L495.149 90.0652L495.149 90.0652L495.182 90.626ZM494.865 90.5085L494.474 90.9126H494.474L494.865 90.5085ZM493.207 88.9076L493.597 88.5035H493.597L493.207 88.9076ZM493.286 88.241L493.57 88.7257H493.57L493.286 88.241ZM494.192 88.6872L493.908 88.2026L493.269 88.5769L493.801 89.0913L494.192 88.6872ZM495.317 89.7739L494.927 90.1779L495.104 90.3493L495.35 90.3346L495.317 89.7739ZM514.521 88.6316L514.554 89.1924L514.762 89.1801L514.911 89.0361L514.521 88.6316ZM540.478 63.607L540.868 64.0114L540.928 63.9541L540.968 63.8821L540.478 63.607ZM542.192 60.5563L542.682 60.8315L543.698 59.0228L541.908 60.0717L542.192 60.5563ZM540.523 63.564L540.968 63.9074L540.133 63.1596L540.523 63.564ZM540.448 63.661L539.958 63.3857L540.893 64.0044L540.448 63.661ZM540.478 63.607L540.088 63.2026L540.029 63.2599L539.989 63.3317L540.478 63.607ZM562.824 77.9204L562.54 77.4355L562.824 77.9204ZM563.404 78.4907L562.914 78.2151V78.2152L563.404 78.4907ZM535.079 128.815L534.59 128.539V128.539L535.079 128.815ZM534.414 128.906L534.017 129.303L534.414 128.906ZM532.785 127.276L533.182 126.879L532.785 127.276ZM532.662 126.961L533.223 126.984L532.662 126.961ZM533.483 107.399L532.922 107.376L533.483 107.399ZM533.595 107.13L533.184 106.747L533.595 107.13ZM558.311 80.5804L557.96 80.1419L557.928 80.1675L557.9 80.1976L558.311 80.5804ZM558.407 80.5038L558.123 80.0189L558.088 80.0396L558.056 80.0653L558.407 80.5038ZM558.886 81.1998L558.602 80.715L558.531 80.7566L558.475 80.8171L558.886 81.1998ZM534.318 107.59L533.907 107.207L533.766 107.359L533.757 107.566L534.318 107.59ZM533.511 126.811L532.95 126.788L532.94 127.034L533.114 127.208L533.511 126.811ZM534.617 127.917L534.22 128.315L534.744 128.838L535.107 128.193L534.617 127.917ZM561.906 79.4332L562.396 79.7088L563.413 77.901L561.623 78.9484L561.906 79.4332ZM543.392 59.5273C543.373 59.5387 543.337 59.5485 543.297 59.5422C543.262 59.5367 543.238 59.5214 543.223 59.5064C543.208 59.4914 543.192 59.4674 543.186 59.4327C543.179 59.3927 543.188 59.357 543.199 59.3374L544.178 59.8876C544.67 59.0131 543.69 58.0509 542.824 58.558L543.392 59.5273ZM543.199 59.3374L540.693 63.7985L541.673 64.3487L544.178 59.8876L543.199 59.3374ZM540.738 63.7302L540.663 63.8272L541.552 64.514L541.627 64.417L540.738 63.7302ZM540.718 63.7662L514.604 88.9419L515.384 89.7507L541.498 64.575L540.718 63.7662ZM514.604 88.9419C514.628 88.9186 514.66 88.9048 514.693 88.9028L514.76 90.0243C514.994 90.0104 515.215 89.9133 515.384 89.7507L514.604 88.9419ZM514.693 88.9028L495.149 90.0652L495.216 91.1867L514.76 90.0243L514.693 88.9028ZM495.149 90.0652C495.188 90.0629 495.227 90.0771 495.255 90.1044L494.474 90.9126C494.672 91.1036 494.941 91.2031 495.216 91.1867L495.149 90.0652ZM495.255 90.1044L493.597 88.5035L492.817 89.3117L494.474 90.9126L495.255 90.1044ZM493.597 88.5035C493.664 88.5681 493.651 88.6787 493.57 88.7257L493.002 87.7564C492.441 88.0855 492.348 88.8595 492.817 89.3117L493.597 88.5035ZM493.57 88.7257L543.392 59.5273L542.824 58.558L493.002 87.7564L493.57 88.7257ZM493.801 89.0913L494.927 90.1779L495.707 89.3698L494.582 88.2831L493.801 89.0913ZM495.35 90.3346L514.554 89.1924L514.488 88.0709L495.284 89.2131L495.35 90.3346ZM514.911 89.0361L540.868 64.0114L540.089 63.2025L514.131 88.2272L514.911 89.0361ZM540.968 63.8821L542.682 60.8315L541.702 60.2812L539.989 63.3318L540.968 63.8821ZM541.908 60.0717L493.908 88.2026L494.476 89.1719L542.476 61.041L541.908 60.0717ZM540.078 63.2206L540.004 63.3175L540.893 64.0044L540.968 63.9074L540.078 63.2206ZM540.938 63.9362L540.968 63.8822L539.989 63.3317L539.958 63.3857L540.938 63.9362ZM540.868 64.0113L540.913 63.9683L540.133 63.1596L540.088 63.2026L540.868 64.0113ZM563.107 78.4053C563.088 78.4166 563.052 78.4264 563.012 78.42C562.978 78.4145 562.953 78.3991 562.938 78.3842C562.923 78.3692 562.907 78.3452 562.901 78.3104C562.894 78.2705 562.903 78.2347 562.914 78.2151L563.893 78.7662C564.385 77.8921 563.406 76.9291 562.54 77.4355L563.107 78.4053ZM562.914 78.2152L534.59 128.539L535.569 129.09L563.893 78.7662L562.914 78.2152ZM534.59 128.539C534.635 128.458 534.746 128.443 534.811 128.509L534.017 129.303C534.477 129.763 535.25 129.657 535.569 129.09L534.59 128.539ZM534.811 128.509L533.182 126.879L532.387 127.673L534.017 129.303L534.811 128.509ZM533.182 126.879C533.21 126.907 533.225 126.945 533.223 126.984L532.1 126.937C532.089 127.212 532.193 127.479 532.387 127.673L533.182 126.879ZM533.223 126.984L534.044 107.423L532.922 107.376L532.1 126.937L533.223 126.984ZM534.044 107.423C534.043 107.456 534.029 107.488 534.007 107.513L533.184 106.747C533.024 106.919 532.931 107.141 532.922 107.376L534.044 107.423ZM534.007 107.513L558.723 80.9631L557.9 80.1976L533.184 106.747L534.007 107.513ZM558.663 81.0189L558.758 80.9423L558.056 80.0653L557.96 80.1419L558.663 81.0189ZM558.691 80.9887L563.107 78.4053L562.54 77.4355L558.123 80.0189L558.691 80.9887ZM558.475 80.8171L533.907 107.207L534.729 107.973L559.297 81.5826L558.475 80.8171ZM533.757 107.566L532.95 126.788L534.072 126.835L534.879 107.614L533.757 107.566ZM533.114 127.208L534.22 128.315L535.015 127.52L533.908 126.414L533.114 127.208ZM535.107 128.193L562.396 79.7088L561.417 79.1577L534.128 127.642L535.107 128.193ZM561.623 78.9484L558.602 80.715L559.17 81.6847L562.19 79.9181L561.623 78.9484Z" fill="#0BC3B8" mask="url(#path-71-inside-7)"/>
<path d="M583.372 46.2855C583.372 50.7841 579.725 54.4308 575.226 54.4308C570.728 54.4308 567.081 50.7841 567.081 46.2855C567.081 41.787 570.728 38.1402 575.226 38.1402C579.725 38.1402 583.372 41.787 583.372 46.2855Z" fill="white" stroke="#0BC3B8" stroke-width="0.561744"/>
<path d="M583.906 46.0897C583.906 50.8209 580.071 54.6563 575.34 54.6563C570.608 54.6563 566.773 50.8209 566.773 46.0897C566.773 41.3585 570.608 37.5231 575.34 37.5231C580.071 37.5231 583.906 41.3585 583.906 46.0897ZM567.054 46.0897C567.054 50.6657 570.764 54.3754 575.34 54.3754C579.916 54.3754 583.625 50.6657 583.625 46.0897C583.625 41.5136 579.916 37.8039 575.34 37.8039C570.764 37.8039 567.054 41.5136 567.054 46.0897Z" fill="#0BC3B8" stroke="#0BC3B8" stroke-width="0.561744"/>
<path d="M575.227 50.3592C572.977 50.3592 571.154 48.5358 571.154 46.2866C571.154 44.0373 572.977 42.2139 575.227 42.2139C577.476 42.2139 579.299 44.0373 579.299 46.2866C579.299 48.5358 577.476 50.3592 575.227 50.3592ZM575.227 50.0783C577.321 50.0783 579.018 48.3807 579.018 46.2866C579.018 44.1924 577.321 42.4948 575.227 42.4948C573.132 42.4948 571.435 44.1924 571.435 46.2866C571.435 48.3807 573.132 50.0783 575.227 50.0783ZM598.367 35.805L583.762 22.1451L583.954 21.94L598.559 35.5999L598.367 35.805Z" fill="#0BC3B8" stroke="#0BC3B8" stroke-width="0.561744"/>
<path d="M265.307 221.753C269.631 215.216 277.513 208.326 288.986 201.077L289.135 201.315C277.729 208.522 269.853 215.389 265.541 221.908C261.223 228.436 257.318 239.486 253.826 255.011L253.552 254.95C257.062 239.345 260.98 228.295 265.307 221.753Z" fill="#0BC3B8" stroke="#0BC3B8" stroke-width="0.561744"/>
<path d="M126.237 296.274C130.775 297.888 134.976 299.115 138.84 299.955C142.619 300.777 147.055 301.486 152.148 302.082C153.073 302.191 153.734 303.028 153.626 303.953C153.618 304.024 153.605 304.095 153.587 304.165L153.532 304.385C153.289 305.363 152.345 305.998 151.348 305.856C146.624 305.184 142.212 304.438 138.112 303.618C133.973 302.791 129.792 301.361 125.568 299.327C124.764 298.939 124.342 298.04 124.559 297.174C124.731 296.485 125.429 296.066 126.118 296.238C126.158 296.248 126.198 296.26 126.237 296.274Z" fill="white" stroke="#0BC3B8" stroke-width="0.561744"/>
<path d="M153.753 304.121L153.753 304.121C153.771 304.051 153.784 303.981 153.792 303.909C153.9 302.985 153.238 302.147 152.314 302.039C147.221 301.442 142.785 300.733 139.006 299.912C135.229 299.091 131.064 297.687 126.51 295.703M153.753 304.121L126.51 295.703M153.753 304.121L153.698 304.342M153.753 304.121L154.026 304.189L153.971 304.41M126.51 295.703C126.429 295.668 126.345 295.639 126.259 295.618L126.326 295.346L126.259 295.618C125.402 295.404 124.534 295.926 124.32 296.783C124.32 296.783 124.32 296.783 124.32 296.783L124.232 297.137L124.232 297.137C123.999 298.07 124.475 299.034 125.357 299.417C129.844 301.364 134.151 302.75 138.278 303.575C142.378 304.395 146.789 305.141 151.514 305.813C152.511 305.955 153.455 305.319 153.698 304.342M126.51 295.703L153.698 304.342M153.971 304.41L153.698 304.342M153.971 304.41L153.698 304.342L153.698 304.342M153.971 304.41L153.698 304.342M143.25 301.325L143.317 301.036L143.026 300.985C141.59 300.732 140.23 300.465 138.946 300.186C137.386 299.847 135.76 299.409 134.067 298.872L133.777 298.78L133.708 299.077L133.101 301.707L133.042 301.964L133.295 302.039C135.003 302.549 136.682 302.969 138.333 303.3C139.639 303.561 140.976 303.814 142.345 304.06L142.608 304.108L142.668 303.847L143.25 301.325ZM143.855 301.128L143.594 301.084L143.535 301.342L142.952 303.869L142.885 304.157L143.177 304.208C145.85 304.679 148.643 305.121 151.553 305.535C152.408 305.656 153.217 305.112 153.426 304.274L153.426 304.274L153.481 304.053C153.481 304.053 153.481 304.053 153.481 304.053C153.495 303.995 153.506 303.936 153.513 303.877C153.603 303.106 153.052 302.408 152.281 302.318L152.248 302.597L152.281 302.318C149.238 301.961 146.429 301.565 143.855 301.128ZM133.451 298.942L133.509 298.693L133.266 298.612C131.085 297.889 128.796 297.005 126.398 295.961L126.398 295.961C126.331 295.932 126.262 295.908 126.191 295.89C125.484 295.714 124.769 296.144 124.593 296.851L124.593 296.851L124.504 297.205L124.748 297.266L124.504 297.205C124.305 298.005 124.713 298.831 125.468 299.159C127.857 300.196 130.196 301.073 132.483 301.791L132.773 301.881L132.841 301.586L133.451 298.942Z" fill="#0BC3B8" stroke="#0BC3B8" stroke-width="0.561744"/>
<path d="M83.9008 256.278L80.4549 258.493L76.7682 250.066L80.1935 248.598L83.9008 256.278ZM89.5985 252.728C88.5645 252.728 87.6057 252.554 86.9831 251.963C86.3045 251.318 85.9471 250.155 85.9471 249.077C85.9471 248.658 86.0258 248.148 86.167 247.662C86.309 247.173 86.5073 246.732 86.7318 246.439L86.5089 246.268L86.7318 246.439C87.3642 245.613 88.3379 245.425 89.5985 245.425C90.7369 245.425 91.5755 245.509 92.202 246.179C92.4963 246.494 92.7604 246.969 92.951 247.501C93.141 248.031 93.2498 248.596 93.2498 249.077C93.2498 250.328 92.8264 251.58 91.9592 252.221C91.6802 252.428 91.3135 252.557 90.8954 252.633C90.4788 252.709 90.0296 252.728 89.5985 252.728Z" fill="#D1F4F2" stroke="#0BC3B8" stroke-width="0.561744"/>
<path d="M80.541 258.398L80.673 258.699L80.9502 258.521L84.1529 256.462L84.3621 256.328L84.254 256.104L80.6591 248.657L80.5423 248.416L80.2955 248.521L77.1237 249.881L76.8636 249.992L76.977 250.251L80.541 258.398ZM80.5478 259.114L76.4928 249.845L80.6785 248.052L84.7231 256.43L80.5478 259.114ZM89.8792 253.149C88.5659 253.149 87.6223 252.883 86.9738 252.268C86.2431 251.574 85.8065 250.342 85.8065 249.076C85.8065 248.592 85.897 248.031 86.0546 247.505C86.2129 246.976 86.4327 246.502 86.6781 246.182C87.3372 245.322 88.2713 245.004 89.8792 245.004C90.6543 245.004 91.2193 245.054 91.6723 245.189C92.1154 245.322 92.4608 245.538 92.7905 245.891C93.1173 246.24 93.4097 246.757 93.6203 247.336C93.8304 247.913 93.9518 248.532 93.9518 249.076C93.9518 250.557 93.4205 251.871 92.4906 252.56C91.9112 252.988 91.1096 253.149 89.8792 253.149ZM89.8792 252.868C90.9592 252.868 91.7775 252.738 92.3235 252.334C93.203 251.683 93.671 250.419 93.671 249.076C93.671 248.557 93.5522 247.976 93.3621 247.448C93.1729 246.922 92.9039 246.423 92.5854 246.083C91.9803 245.436 91.2406 245.284 89.8792 245.284C88.4462 245.284 87.524 245.54 86.9011 246.353C86.6593 246.668 86.4582 247.129 86.3174 247.607C86.1757 248.088 86.0874 248.615 86.0874 249.076C86.0874 250.229 86.4772 251.409 87.1672 252.064C87.7802 252.646 88.7055 252.868 89.8792 252.868Z" fill="#0BC3B8" stroke="#0BC3B8" stroke-width="0.561744"/>
<path d="M247.729 131.953H296.601C297.377 131.953 298.005 132.582 298.005 133.357C298.005 134.133 297.377 134.761 296.601 134.761H247.729C246.954 134.761 246.325 134.133 246.325 133.357C246.325 132.582 246.954 131.953 247.729 131.953Z" fill="white" stroke="#0BC3B8" stroke-width="0.561744"/>
<path d="M247.729 131.953H296.601C297.377 131.953 298.005 132.582 298.005 133.357C298.005 134.133 297.377 134.761 296.601 134.761H247.729C246.954 134.761 246.325 134.133 246.325 133.357C246.325 132.582 246.954 131.953 247.729 131.953ZM247.729 132.234C247.109 132.234 246.606 132.737 246.606 133.357C246.606 133.978 247.109 134.481 247.729 134.481H296.601C297.221 134.481 297.724 133.978 297.724 133.357C297.724 132.737 297.221 132.234 296.601 132.234H247.729Z" fill="#0BC3B8" stroke="#0BC3B8" stroke-width="0.561744"/>
<path d="M174.283 362.4L152.096 318.855C151.779 318.233 151.018 317.985 150.396 318.302C149.774 318.619 149.527 319.38 149.843 320.002L172.031 363.547C172.348 364.169 173.109 364.417 173.731 364.1C174.353 363.783 174.6 363.022 174.283 362.4Z" fill="white" stroke="#0BC3B8" stroke-width="0.842617"/>
<path d="M160.543 250.158C160.425 250.258 160.221 250.317 159.893 250.291C159.57 250.265 159.167 250.159 158.702 249.983C157.772 249.632 156.652 249.029 155.517 248.353C154.514 247.756 153.51 247.108 152.629 246.541C152.516 246.468 152.405 246.396 152.296 246.326C151.354 245.719 150.558 245.214 150.129 245.032C149.409 244.728 149.073 243.898 149.377 243.178C149.656 242.519 150.384 242.172 151.073 242.37C153.534 243.081 155.452 243.692 156.832 244.205C157.522 244.461 158.072 244.691 158.486 244.894C158.908 245.101 159.162 245.268 159.283 245.392C160.067 246.191 160.744 247.11 161.035 247.974C161.18 248.403 161.225 248.804 161.154 249.165C161.084 249.521 160.898 249.857 160.543 250.158Z" fill="white" stroke="#0BC3B8" stroke-width="0.561744"/>
<path d="M215.795 278.362L215.795 278.362L215.801 278.372L222.221 289.48C222.296 289.61 222.256 289.775 222.13 289.857L205.652 300.488C205.521 300.572 205.347 300.534 205.263 300.404C205.263 300.404 205.263 300.404 205.263 300.404L205.259 300.397L198.54 289.285C198.461 289.155 198.501 288.985 198.63 288.903L215.408 278.275C215.539 278.192 215.712 278.231 215.795 278.362Z" fill="white" stroke="#0BC3B8" stroke-width="0.561744"/>
<path d="M198.226 289.163L197.988 289.312L198.137 289.55L204.983 300.507L205.132 300.745L205.37 300.596L222.52 289.88L222.759 289.731L222.61 289.492L215.763 278.536L215.614 278.297L215.376 278.446L198.226 289.163ZM197.839 289.073L215.465 278.059C215.597 277.977 215.77 278.017 215.852 278.149L222.997 289.582C223.079 289.713 223.039 289.887 222.907 289.969L205.281 300.983C205.15 301.065 204.976 301.025 204.894 300.894L197.75 289.46C197.668 289.329 197.708 289.156 197.839 289.073Z" fill="#0BC3B8" stroke="#0BC3B8" stroke-width="0.561744"/>
<path d="M206.848 296.867L206.996 297.106L207.235 296.957L218.191 290.11L218.43 289.961L218.281 289.723L213.816 282.577L213.667 282.339L213.429 282.488L202.472 289.335L202.234 289.483L202.382 289.722L206.848 296.867ZM202.085 289.245L213.518 282.101C213.65 282.019 213.823 282.059 213.905 282.19L218.668 289.812C218.75 289.944 218.71 290.117 218.579 290.199L207.145 297.344C207.014 297.426 206.84 297.386 206.758 297.254L201.995 289.632C201.913 289.501 201.953 289.327 202.085 289.245Z" fill="#0BC3B8" stroke="#0BC3B8" stroke-width="0.561744"/>
</svg>
