<svg width="30" height="30" viewBox="0 0 30 30" fill="none" xmlns="http://www.w3.org/2000/svg">
<path d="M12.4996 2.04323C14.0466 1.15007 15.9526 1.15007 17.4996 2.04323L24.9704 6.35648C26.5174 7.24964 27.4704 8.90028 27.4704 10.6866V19.3131C27.4704 21.0994 26.5174 22.7501 24.9704 23.6432L17.4996 27.9565C15.9526 28.8496 14.0466 28.8496 12.4996 27.9565L5.02884 23.6432C3.48184 22.7501 2.52884 21.0994 2.52884 19.3131V10.6866C2.52884 8.90028 3.48184 7.24964 5.02884 6.35648L12.4996 2.04323Z" fill="#3E77FF"/>
<path d="M21.2812 18.5172C20.4969 19.9181 19.2668 21.0166 17.7865 21.6382C16.3063 22.2598 14.6607 22.3689 13.1113 21.948C11.562 21.5271 10.1977 20.6004 9.23545 19.3153C8.27315 18.0301 7.768 16.4602 7.80028 14.855C7.83256 13.2499 8.40042 11.7015 9.41361 10.4561C10.4268 9.21067 11.8272 8.33961 13.3922 7.98135C14.9572 7.62309 16.5971 7.79819 18.0512 8.47882C19.5053 9.15945 20.6901 10.3066 21.4175 11.7378L18.5317 13.2044C18.1314 12.4166 17.4792 11.7852 16.6789 11.4106C15.8785 11.036 14.9759 10.9396 14.1145 11.1368C13.2531 11.334 12.4823 11.8134 11.9247 12.4989C11.367 13.1844 11.0545 14.0366 11.0367 14.9201C11.0189 15.8036 11.297 16.6677 11.8266 17.3751C12.3563 18.0824 13.1072 18.5925 13.9599 18.8241C14.8127 19.0558 15.7184 18.9958 16.5332 18.6536C17.348 18.3115 18.025 17.7068 18.4567 16.9358L21.2812 18.5172Z" fill="white"/>
<path fill-rule="evenodd" clip-rule="evenodd" d="M3.20312 21.8199C3.63461 22.5646 4.25819 23.1981 5.0294 23.6433L12.5002 27.9566C14.0472 28.8497 15.9532 28.8497 17.5002 27.9566L24.9709 23.6433C26.5179 22.7501 27.4709 21.0995 27.4709 19.3132V10.6867C27.4709 9.76895 27.2194 8.88703 26.765 8.12524L3.20312 21.8199Z" fill="#2E60D8"/>
<path fill-rule="evenodd" clip-rule="evenodd" d="M15.0127 14.9558L26.8624 21.7037C26.4296 22.4987 25.7819 23.175 24.9709 23.6432L17.5002 27.9565C15.9532 28.8496 14.0472 28.8496 12.5002 27.9565L5.0294 23.6432C4.2582 23.198 3.63461 22.5645 3.20312 21.8198L15.0127 14.9558Z" fill="#23428A"/>
<path d="M21.3194 18.4481C20.5635 19.8337 19.3731 20.9325 17.9316 21.5754C16.49 22.2184 14.8771 22.3698 13.3411 22.0064C11.8051 21.6429 10.431 20.7848 9.43042 19.5641C8.42981 18.3434 7.85807 16.8276 7.80318 15.2502C7.7483 13.6727 8.21331 12.1209 9.12666 10.8336C10.04 9.54622 11.3511 8.59469 12.8581 8.1254C14.3652 7.6561 15.9847 7.69505 17.4675 8.23623C18.9502 8.77742 20.214 9.79086 21.0645 11.1206L18.3374 12.8647C17.8693 12.1328 17.1737 11.575 16.3576 11.2771C15.5415 10.9792 14.6501 10.9578 13.8206 11.2161C12.9911 11.4744 12.2695 11.9981 11.7667 12.7067C11.264 13.4152 11.0081 14.2693 11.0383 15.1376C11.0685 16.0059 11.3832 16.8401 11.9339 17.512C12.4847 18.1839 13.241 18.6562 14.0864 18.8563C14.9318 19.0563 15.8196 18.973 16.613 18.6191C17.4065 18.2652 18.0616 17.6604 18.4777 16.8977L21.3194 18.4481Z" fill="white"/>
<path fill-rule="evenodd" clip-rule="evenodd" d="M20.9659 13.354H19.7316V14.3825H18.7031V15.6168H19.7316V16.6454H20.9659V15.6168H21.9946V14.3825H20.9659V13.354Z" fill="white"/>
<path fill-rule="evenodd" clip-rule="evenodd" d="M25.4914 13.354H24.2572V14.3825H23.2285V15.6168H24.2572V16.6454H25.4914V15.6168H26.5199V14.3825H25.4914V13.354Z" fill="white"/>
</svg>
