<svg width="68" height="68" viewBox="0 0 68 68" fill="none" xmlns="http://www.w3.org/2000/svg">
<rect width="68" height="68" rx="34" fill="#D8F5F3"/>
<path d="M41 37.0001C41 41.0001 36 44.0001 36 47.0001H32C32 44.0001 27 41.0001 27 37.0001C27 33.1401 30.14 30.0001 34 30.0001C37.86 30.0001 41 33.1401 41 37.0001ZM36 49.0001H32V50.0001C32 51.1001 32.9 52.0001 34 52.0001C35.1 52.0001 36 51.1001 36 50.0001V49.0001ZM48 36.0001C48 38.7801 47.18 41.3801 45.76 43.5601C45.26 44.3401 45.38 45.3801 46.04 46.0401C46.92 46.9201 48.44 46.8001 49.12 45.7401C50.94 42.9401 52 39.6001 52 36.0001C52 31.2801 50.18 26.9801 47.2 23.7601C46.42 22.9201 45.1 22.9001 44.3 23.7001C43.54 24.4601 43.54 25.6801 44.26 26.4801C46.58 28.9801 48 32.3201 48 36.0001ZM41.3 19.3001L35.72 13.7201C35.08 13.0801 34 13.5201 34 14.4201V18.0001C24.06 18.0001 16 26.0601 16 36.0001C16 39.6001 17.06 42.9401 18.88 45.7601C19.56 46.8201 21.08 46.9401 21.96 46.0601C22.62 45.4001 22.74 44.3801 22.24 43.6001C19.46 39.3001 18.96 33.4001 22.5 27.6001C24.9 23.7001 29.42 21.6201 34 22.0001V25.5801C34 26.4801 35.08 26.9201 35.7 26.2801L41.28 20.7001C41.68 20.3201 41.68 19.6801 41.3 19.3001Z" fill="#169095"/>
</svg>
