<svg width="620" height="620" viewBox="0 0 620 620" fill="none" xmlns="http://www.w3.org/2000/svg">
<path d="M433.587 387.498C454.46 396.695 420.463 397.832 374.79 401.448C329.117 405.168 303.283 401.862 269.287 401.345C235.393 400.828 185.173 403.205 181.763 393.078C178.25 382.952 206.667 376.132 209.25 370.448C211.73 364.868 148.903 367.968 150.453 361.458C150.97 359.288 152.933 357.325 156.137 355.568C183.83 340.172 303.8 338.725 362.183 338.312C427.283 337.795 494.76 336.865 521.627 352.262C525.243 354.328 526.793 356.085 526.69 357.635C526.277 367.762 458.077 368.278 437.72 371.482C413.953 375.098 412.713 378.302 433.587 387.498Z" fill="#C7D4FF"/>
<path d="M403 370.552C418.397 376.546 393.287 377.166 359.6 379.542C325.81 381.816 306.693 379.749 281.687 379.336C256.577 378.922 219.583 380.472 217 373.859C214.417 367.246 235.393 362.906 237.253 359.289C239.113 355.672 192.613 357.636 193.75 353.296C194.163 351.849 195.61 350.609 197.883 349.472C218.343 339.552 307.003 338.829 350.093 338.519C398.143 338.209 458.697 335.006 467.893 344.822C472.337 349.576 420.98 358.152 405.893 360.116C388.43 362.492 387.5 364.559 403 370.552Z" fill="#99ADF9"/>
<path d="M433.587 387.498C454.46 396.695 420.463 397.832 374.79 401.448C329.117 405.168 303.283 401.862 269.287 401.345C235.393 400.828 185.173 403.205 181.763 393.078C178.25 382.952 206.667 376.132 209.25 370.448C211.73 364.868 148.903 367.968 150.453 361.458C150.97 359.288 152.933 357.325 156.137 355.568C156.963 357.118 160.27 358.668 169.467 359.392C190.443 360.942 220.1 362.078 221.857 366.522C223.613 370.965 192.717 383.158 196.643 389.358C200.57 395.455 283.753 392.975 333.457 394.732C383.16 396.488 427.387 393.285 421.703 389.875C416.02 386.465 402.173 378.922 412.61 372.102C423.047 365.282 480.603 364.145 504.887 361.768C514.807 360.838 521.833 359.185 526.587 357.635C526.173 367.762 457.973 368.278 437.617 371.482C413.953 375.098 412.713 378.302 433.587 387.498Z" fill="#99ADF9"/>
<path d="M489.8 350.195C483.497 350.712 484.013 356.912 494.76 355.465C505.403 354.122 502.097 349.162 489.8 350.195Z" fill="#99ADF9"/>
<path d="M452.497 354.845C446.193 355.362 446.71 361.562 457.457 360.115C468.203 358.875 464.793 353.812 452.497 354.845Z" fill="#99ADF9"/>
<path d="M181.04 352.262C174.737 352.779 175.253 358.979 186 357.532C196.747 356.292 193.337 351.332 181.04 352.262Z" fill="#99ADF9"/>
<path d="M214.727 373.652C208.423 374.169 208.94 380.369 219.687 378.922C230.33 377.579 227.023 372.619 214.727 373.652Z" fill="#99ADF9"/>
<path d="M547.977 382.333C540.847 387.189 529.893 388.223 513.67 388.429C501.993 388.636 495.38 384.916 496.207 381.299C496.827 378.613 501.683 376.029 511.603 374.996C530.1 373.136 547.047 375.409 549.32 379.026C550.043 380.059 549.63 381.196 547.977 382.333Z" fill="#C7D4FF"/>
<path d="M198.09 337.073C189.513 342.033 176.08 343.376 156.033 343.996C141.67 344.409 133.403 340.896 134.437 337.279C135.16 334.593 141.05 331.803 153.243 330.666C175.873 328.393 196.85 330.253 199.847 333.869C200.673 334.799 200.157 335.833 198.09 337.073Z" fill="#C7D4FF"/>
<path d="M526.793 184.037C526.793 184.037 540.847 182.59 556.45 202.844C568.85 218.86 566.06 237.977 566.06 237.977C566.06 237.977 575.567 218.344 562.753 200.054C549.01 180.524 526.793 184.037 526.793 184.037Z" fill="#C7D4FF"/>
<path d="M519.353 247.174C519.353 247.174 523.073 255.854 519.56 268.254C516.047 280.654 509.433 285.82 509.433 285.82C509.433 285.82 521.317 282.617 524.21 268.77C527.207 254.821 519.353 247.174 519.353 247.174Z" fill="#C7D4FF"/>
<path d="M221.03 256.681C221.03 256.681 219.583 248.621 230.95 233.431C242.317 218.241 258.85 212.454 258.85 212.454L238.803 171.018C238.803 171.018 246.347 200.054 235.29 208.734C224.13 217.414 205.737 206.254 205.737 206.254C205.737 206.254 216.69 225.474 213.177 233.948C209.767 242.421 191.167 243.868 191.167 243.868L221.03 256.681Z" fill="#99ADF9"/>
<path d="M284.993 420.566L272.593 435.446C271.353 436.996 268.977 437.203 267.427 435.86C265.877 434.62 265.67 432.243 267.013 430.693C267.117 430.59 267.323 430.383 267.427 430.28L282.1 417.57C282.927 416.846 284.27 416.95 284.993 417.776C285.717 418.706 285.613 419.843 284.993 420.566Z" fill="#99ADF9"/>
<path d="M302.25 422.323L299.77 452.496C299.667 454.149 298.117 455.389 296.463 455.286C294.81 455.183 293.57 453.633 293.673 451.979V451.876L297.703 421.806C297.91 420.566 299.047 419.739 300.287 419.843C301.527 420.049 302.353 421.186 302.25 422.323Z" fill="#99ADF9"/>
<path d="M319.92 421.186L328.083 442.576C328.807 444.436 327.877 446.606 326.017 447.329C324.157 448.052 321.987 447.122 321.263 445.262C321.16 445.159 321.16 444.952 321.16 444.746L315.993 422.426C315.787 421.289 316.407 420.256 317.543 419.946C318.577 419.739 319.61 420.256 319.92 421.186Z" fill="#99ADF9"/>
<path d="M336.557 417.776L348.853 426.042C350.507 427.179 351.023 429.452 349.887 431.106C348.75 432.759 346.477 433.276 344.823 432.139C344.617 432.036 344.41 431.829 344.307 431.726L333.663 421.392C332.733 420.462 332.733 419.016 333.663 418.189C334.387 417.259 335.627 417.156 336.557 417.776Z" fill="#99ADF9"/>
<path d="M553.04 263.087C546.943 282.1 520.283 291.814 520.283 291.814C520.283 291.814 520.593 291.504 521.11 290.987C524.933 286.647 540.743 266.6 527.207 240.56C511.913 211.007 461.383 221.134 461.383 221.134L460.247 213.797L459.007 206.15C459.007 206.15 486.493 181.66 523.59 195.61C558.93 208.94 559.137 244.177 553.04 263.087Z" fill="#FEC272"/>
<path d="M533.407 279.62C530.513 284.167 525.967 287.99 521.213 290.987C525.037 286.647 540.847 266.6 527.31 240.56C512.017 211.007 461.487 221.134 461.487 221.134L460.35 213.797C471.303 212.247 500.237 209.767 519.87 221.134C543.223 234.67 543.12 264.43 533.407 279.62Z" fill="#FCAA51"/>
<path d="M470.27 244.384C469.753 260.814 467.067 275.074 463.347 283.341C455.39 301.321 449.81 311.551 438.133 320.644C433.793 324.054 428.627 327.258 422.117 330.668C398.247 343.171 333.25 343.998 333.25 343.998C330.667 344.204 328.083 344.411 325.5 344.514C301.837 345.754 279.517 343.171 265.773 335.731C259.367 332.321 254.82 327.774 252.857 322.194C246.347 303.181 243.97 274.144 287.163 200.571C314.96 153.244 349.68 134.541 382.54 134.748C400.003 134.851 416.847 140.328 431.933 149.628C432.553 150.041 433.277 150.454 433.897 150.868C463.037 169.674 471.303 211.421 470.27 244.384Z" fill="#FEC272"/>
<path d="M382.54 134.644C363.113 142.498 333.25 162.028 306.177 210.594C271.767 272.284 266.393 317.854 265.67 335.628C259.263 332.218 254.717 327.671 252.753 322.091C246.243 303.078 243.867 274.041 287.06 200.468C315.063 153.141 349.783 134.438 382.54 134.644Z" fill="#FFCB8D"/>
<path d="M470.27 244.385C469.753 260.815 467.067 275.075 463.347 283.341C452.393 307.935 445.987 318.061 422.117 330.565C398.247 343.068 333.25 343.895 333.25 343.895C330.667 344.101 328.083 344.308 325.5 344.411C324.777 334.595 327.257 321.368 333.043 304.111C350.61 251.411 378.51 231.985 410.027 225.888C437.203 220.721 458.387 233.948 470.27 244.385Z" fill="#FCAA51"/>
<path d="M470.27 244.384C469.753 260.814 467.067 275.074 463.347 283.34C455.39 301.32 449.81 311.55 438.133 320.644C445.367 300.597 452.29 273.007 452.91 239.734C453.633 195.714 441.44 165.85 431.933 149.627C432.553 150.04 433.277 150.454 433.897 150.867C463.037 169.674 471.303 211.42 470.27 244.384Z" fill="#FCAA51"/>
<path d="M470.787 252.029C469.133 271.353 461.073 302.353 453.53 322.916C450.533 331.079 447.64 337.693 445.16 341.103C441.027 346.993 432.967 349.576 424.907 350.093C416.433 350.713 407.857 349.266 403.93 347.096C396.697 343.273 378.717 310.309 382.747 274.349C382.953 272.179 383.263 270.009 383.677 267.839C390.91 229.503 408.89 218.756 436.17 221.753C441.543 222.373 447.227 223.303 452.497 225.163C463.45 229.089 472.233 236.529 470.787 252.029Z" fill="#FEC272"/>
<path d="M453.53 322.916C450.533 331.08 447.64 337.693 445.16 341.103C436.687 353.193 411.68 351.23 403.93 347.2C396.697 343.376 378.717 310.413 382.747 274.453C385.02 291.09 393.287 314.443 420.877 320.436C434.207 323.433 444.953 323.846 453.53 322.916Z" fill="#FCAA51"/>
<path d="M470.787 252.029C469.133 271.352 461.073 302.352 453.53 322.915C450.533 331.079 447.64 337.692 445.16 341.102C441.027 346.992 432.967 349.575 424.907 350.092C433.07 335.419 451.877 295.429 452.807 239.629C452.91 234.669 452.807 229.812 452.6 225.162C463.45 229.089 472.233 236.529 470.787 252.029Z" fill="#FCAA51"/>
<path d="M444.437 354.743C443.507 354.949 442.06 355.156 440.303 355.259C438.96 355.363 437.513 355.569 435.86 355.673C432.76 355.879 429.247 356.086 425.63 356.189C424.183 356.189 422.633 356.293 421.187 356.293C418.087 356.396 415.09 356.293 412.3 356.293C411.887 356.293 411.473 356.293 411.163 356.293C410.027 356.293 408.89 356.189 407.96 356.189C407.547 356.189 407.133 356.086 406.823 356.086C405.17 355.983 403.93 355.673 403 355.466C396.697 353.503 392.873 347.303 397.73 339.759C402.587 332.216 413.127 326.223 427.077 326.223C441.027 326.223 452.703 334.386 453.323 343.169C453.943 351.849 450.947 353.503 444.437 354.743Z" fill="#FEC272"/>
<path d="M425.733 342.445V356.189C424.287 356.189 422.737 356.292 421.29 356.292V342.445C421.29 341.205 422.323 340.172 423.46 340.172C424.597 340.172 425.733 341.205 425.733 342.445Z" fill="#FFA245"/>
<path d="M412.507 342.653V356.293C412.093 356.293 411.68 356.293 411.37 356.293C410.233 356.293 409.097 356.189 408.167 356.189V342.756C408.167 341.413 409.2 340.276 410.337 340.276C411.473 340.173 412.507 341.309 412.507 342.653Z" fill="#FFA245"/>
<path d="M440.407 342.445V355.259C439.063 355.362 437.617 355.569 435.963 355.672V342.445C435.963 341.205 436.997 340.172 438.133 340.172C439.27 340.172 440.407 341.205 440.407 342.445Z" fill="#FFA245"/>
<path d="M270.63 274.041C262.157 291.814 268.253 335.007 262.157 348.337C256.06 361.667 239.527 368.487 222.58 368.177C220.72 368.177 218.963 367.867 217.207 367.454C202.947 363.941 192.82 348.131 200.777 329.427C209.663 308.451 230.743 297.911 239.527 266.807C247.483 238.907 258.643 233.947 270.01 232.707C273.833 232.294 276.21 233.947 277.553 236.944C280.963 244.487 276.83 261.227 270.63 274.041Z" fill="#FF8D76"/>
<path d="M270.63 274.041C262.157 291.815 268.253 335.008 262.157 348.338C256.06 361.668 239.527 368.488 222.58 368.178C220.72 368.178 218.963 367.868 217.207 367.455C214.933 362.185 214.003 354.331 217 342.965C224.543 314.445 239.113 309.071 241.8 289.025C244.59 268.978 244.9 256.578 252.133 245.728C258.643 236.015 274.143 236.635 277.553 236.945C280.963 244.488 276.83 261.228 270.63 274.041Z" fill="#FC7059"/>
<path d="M406.1 332.63C404.963 336.143 403.103 339.14 400.727 341.724C391.427 351.85 374.48 355.157 364.56 353.503C352.16 351.437 339.967 326.534 341.207 308.037C342.447 289.54 329.117 265.257 325.81 253.167C323.33 244.177 323.743 237.357 326.43 233.224C327.36 231.777 328.6 230.64 330.047 229.814C333.457 228.057 346.063 222.58 359.187 242.214C372.207 261.95 371.277 272.49 385.847 287.06C400.417 301.733 411.577 315.373 406.1 332.63Z" fill="#FF8D76"/>
<path d="M400.83 341.724C391.53 351.851 374.583 355.157 364.663 353.504C352.263 351.437 340.07 326.534 341.31 308.037C342.55 289.541 329.22 265.257 325.913 253.167C323.433 244.177 323.847 237.357 326.533 233.224C334.387 232.087 346.787 233.327 352.573 249.551C361.46 274.247 360.22 286.957 373.963 299.047C387.707 311.137 399.073 324.261 400.83 341.517C400.83 341.621 400.83 341.621 400.83 341.724Z" fill="#FC7059"/>
<path d="M383.573 349.679C382.23 361.046 376.237 368.693 362.493 373.549C341.93 380.783 322.813 371.173 315.27 369.933C307.52 368.589 295.843 376.029 284.063 380.163C272.283 384.399 250.17 385.949 238.39 374.273C232.19 368.073 228.16 359.289 227.437 350.093C226.713 342.033 228.573 333.559 233.533 326.119C244.073 310.413 249.653 295.016 251.307 264.739C252.96 234.463 276.52 222.269 299.15 220.306C306.28 219.686 326.12 218.653 341.207 231.983C356.397 245.313 355.157 272.593 360.323 285.923C365.49 299.253 379.44 307.416 382.747 330.149C383.883 337.693 384.297 344.099 383.573 349.679Z" fill="#FEC272"/>
<path d="M324.57 331.906C321.573 340.07 314.237 345.96 309.277 345.96C304.317 345.96 294.707 341.206 290.057 336.866C285.097 332.216 284.787 327.773 285.923 324.776C285.923 324.673 286.027 324.466 286.13 324.363C287.473 321.47 295.533 318.886 305.66 317.543C313.41 316.51 322.193 316.303 324.26 317.646C324.777 318.06 325.293 318.576 325.707 319.403C326.74 321.78 326.843 325.913 324.57 331.906Z" fill="#FCAA51"/>
<path d="M383.573 349.68C382.23 361.046 376.237 368.693 362.493 373.55C341.93 380.783 322.813 371.173 315.27 369.933C307.52 368.59 295.843 376.03 284.063 380.163C272.283 384.4 250.17 385.95 238.39 374.273C232.19 368.073 228.16 359.29 227.437 350.093C232.293 358.05 242.42 371.586 255.75 373.86C274.763 377.063 286.027 360.116 312.377 360.116C346.27 360.116 348.75 373.033 369.933 361.976C375.823 358.773 380.267 354.33 383.573 349.68Z" fill="#FCAA51"/>
<path d="M323.95 361.459C323.743 363.732 323.433 366.316 322.71 368.899C320.747 376.132 312.687 380.576 306.073 376.132C301.837 373.342 299.77 366.936 298.84 362.596C298.323 360.012 298.117 358.256 298.117 358.256L310.723 344.822L324.157 354.122C324.053 354.122 324.26 357.326 323.95 361.459Z" fill="#FC7059"/>
<path d="M323.95 361.459C317.44 362.079 311.447 357.842 311.447 357.842C311.447 357.842 309.07 360.322 304.007 362.182C302.353 362.802 300.493 362.906 298.84 362.699C298.323 360.116 298.117 358.359 298.117 358.359L310.723 344.926L324.157 354.226C324.053 354.122 324.26 357.326 323.95 361.459Z" fill="#F45145"/>
<path d="M270.837 349.163C267.84 352.573 274.97 360.323 286.543 361.873C298.22 363.423 309.277 357.223 310.517 352.366C311.757 347.51 310.62 339.76 310.62 339.76H306.693C306.693 339.76 307.933 350.816 297.91 355.26C282.41 362.08 272.903 346.683 270.837 349.163Z" fill="#1C3177"/>
<path d="M312.48 337.59C312.48 337.59 313.203 348.026 322.813 351.85C332.32 355.673 336.66 353.193 340.277 351.54C344.203 349.68 344.203 345.753 346.993 346.89C348.44 347.51 347.923 352.676 342.963 355.983C337.073 359.91 331.287 360.426 323.227 358.463C315.167 356.5 310.827 352.883 309.793 348.44C308.76 343.997 308.14 338.933 308.14 338.933L312.48 337.59Z" fill="#1C3177"/>
<path d="M324.57 327.256C321.573 335.419 314.237 341.309 309.277 341.309C304.317 341.309 294.707 336.556 290.057 332.216C285.097 327.566 284.787 323.123 285.923 320.126C285.923 320.023 286.027 319.816 286.13 319.713C287.473 316.819 295.533 314.236 305.66 312.893C313.41 311.859 322.193 311.653 324.26 312.996C324.777 313.409 325.293 313.926 325.707 314.753C326.74 317.233 326.843 321.263 324.57 327.256Z" fill="#1C3177"/>
<path d="M324.57 327.255C321.573 335.419 314.237 341.309 309.277 341.309C304.317 341.309 294.707 336.555 290.057 332.215C285.097 327.565 284.787 323.122 285.923 320.125C286.44 320.125 286.957 320.332 287.473 320.952C289.953 323.639 292.123 329.425 301.113 334.489C310.207 339.552 314.34 335.832 318.37 330.562C322.4 325.292 323.123 316.199 325.087 314.959C325.293 314.855 325.397 314.752 325.603 314.752C326.74 317.232 326.843 321.262 324.57 327.255Z" fill="#0B2359"/>
<path d="M271.147 313.72C275.313 313.72 278.69 308.724 278.69 302.56C278.69 296.397 275.313 291.4 271.147 291.4C266.981 291.4 263.603 296.397 263.603 302.56C263.603 308.724 266.981 313.72 271.147 313.72Z" fill="#1C3177"/>
<path d="M338.771 308.3C342.915 307.866 345.753 302.545 345.111 296.414C344.468 290.284 340.589 285.667 336.445 286.101C332.302 286.535 329.463 291.856 330.106 297.986C330.748 304.117 334.627 308.734 338.771 308.3Z" fill="#1C3177"/>
<path d="M265.98 267.426C261.743 271.043 259.367 275.176 258.23 278.276C256.99 281.273 258.437 282.409 262.053 282.513C265.67 282.616 271.767 278.173 275.073 273.006C278.38 267.736 272.49 261.743 265.98 267.426Z" fill="#FF8D76"/>
<path d="M338.313 260.814C343.067 263.707 345.96 267.53 347.717 270.32C349.473 273.11 348.13 274.454 344.617 275.074C341 275.694 334.387 272.284 330.253 267.737C326.12 263.19 330.977 256.267 338.313 260.814Z" fill="#FF8D76"/>
<path d="M42.9686 486.863C37.4618 486.76 33.8705 486.552 33.2719 486.552C30.1593 486.345 27.8848 484.066 28.0045 481.372C28.2439 478.678 30.7579 476.605 33.9902 476.813C34.5887 476.813 76.2488 480.543 110.606 468.316C123.296 463.861 130.359 459.82 131.676 456.608C132.634 454.225 130.479 450.702 126.887 445.107C125.69 443.242 124.373 441.273 123.057 439.097C120.184 434.227 119.944 428.839 122.338 423.658C130.12 407.08 163.041 396.097 172.977 393.196C228.165 376.825 269.705 383.145 271.381 383.456C274.374 383.974 276.409 386.461 275.93 389.155C275.332 391.849 272.459 393.507 269.346 393.092C268.987 392.989 228.763 386.979 176.568 402.521C153.823 409.256 136.584 419.099 132.634 427.389C131.437 429.979 131.556 432.362 132.993 434.745C134.19 436.714 135.387 438.682 136.584 440.444C140.894 446.972 144.844 453.188 142.211 459.923C139.697 466.348 131.437 471.528 114.796 477.434C86.6639 487.381 61.6439 487.278 42.9686 486.863Z" fill="#1C3177"/>
<path d="M262.57 396.386C264.326 400.519 268.563 403.103 275.59 404.343C286.233 406.203 293.053 403.516 293.053 403.516L292.846 399.589L291.4 376.649C291.4 376.649 282.306 375.409 272.8 378.509C264.43 381.299 260.813 385.846 261.536 392.769C261.743 394.009 262.053 395.249 262.57 396.386Z" fill="#F0F6FF"/>
<path d="M291.249 376.429C289.142 376.562 287.82 382.765 288.297 390.283C288.774 397.802 290.869 403.788 292.976 403.654C295.083 403.52 296.405 397.318 295.928 389.799C295.451 382.281 293.357 376.295 291.249 376.429Z" fill="#C2D7EF"/>
<path d="M262.57 396.387C264.326 400.52 268.563 403.103 275.59 404.343C286.233 406.203 293.053 403.517 293.053 403.517L292.846 399.59C288.713 399.383 283.443 399.073 278.38 398.557C271.146 397.627 265.773 396.903 262.57 396.387Z" fill="#C2D7EF"/>
<path d="M303.49 386.156L294.086 387.086C292.846 387.19 291.71 386.26 291.606 385.02L291.503 384.4C291.4 383.16 292.33 382.023 293.57 381.92L302.973 380.99C304.42 380.886 305.66 381.92 305.763 383.263C305.97 384.813 304.936 386.053 303.49 386.156Z" fill="#87AACC"/>
<path d="M304.42 397.73L295.016 398.66C293.776 398.764 292.64 397.834 292.536 396.594L292.433 395.974C292.33 394.734 293.26 393.597 294.5 393.494L303.903 392.564C305.35 392.46 306.59 393.494 306.693 394.837C306.9 396.387 305.866 397.627 304.42 397.73Z" fill="#87AACC"/>
<path d="M554.797 484.841C547.77 484.635 485.977 482.361 468.1 460.248C456.01 445.265 463.14 435.138 469.34 426.148C470.787 424.081 472.233 421.911 473.577 419.741C475.747 416.021 475.85 411.991 473.783 408.168C471.613 404.138 463.553 394.631 436.067 393.495C396.697 391.738 345.65 393.908 345.133 394.011C342.447 394.115 340.173 392.048 340.07 389.361C339.967 386.675 342.033 384.401 344.72 384.298C345.237 384.298 396.8 382.025 436.583 383.781C467.79 385.228 478.64 396.801 482.36 403.621C486.08 410.441 485.873 418.088 482.05 424.701C480.603 427.285 478.95 429.558 477.4 431.728C471.303 440.511 468.203 444.955 475.747 454.255C488.87 470.478 537.953 474.921 555.727 475.231C558.413 475.335 560.48 477.505 560.48 480.191C560.377 482.878 558.207 484.945 555.52 484.945C555.21 484.841 555.003 484.841 554.797 484.841Z" fill="#1C3177"/>
<path d="M351.437 392.461C349.99 396.697 346.063 399.694 339.14 401.451C328.703 404.137 321.677 401.967 321.677 401.967L321.573 398.041L321.16 375.101C321.16 375.101 330.15 373.034 339.76 375.411C348.337 377.477 352.263 381.714 352.16 388.741C352.057 390.084 351.85 391.324 351.437 392.461Z" fill="#F0F6FF"/>
<path d="M351.437 392.461C349.99 396.698 346.063 399.694 339.14 401.451C328.703 404.138 321.677 401.968 321.677 401.968L321.573 398.041C325.707 397.524 330.873 396.801 335.937 395.768C343.067 394.424 348.233 393.288 351.437 392.461Z" fill="#C2D7EF"/>
<path d="M321.712 402.159C323.823 402.12 325.422 395.983 325.283 388.451C325.144 380.92 323.32 374.846 321.209 374.885C319.098 374.924 317.499 381.061 317.638 388.592C317.777 396.124 319.601 402.198 321.712 402.159Z" fill="#C2D7EF"/>
<path d="M321.44 387.59C321.953 387.581 322.332 385.538 322.286 383.027C322.24 380.517 321.786 378.489 321.272 378.498C320.759 378.508 320.38 380.551 320.426 383.061C320.473 385.572 320.926 387.599 321.44 387.59Z" fill="#87AACC"/>
<path d="M321.441 399.371C321.955 399.362 322.333 397.319 322.287 394.808C322.241 392.298 321.787 390.27 321.274 390.28C320.76 390.289 320.381 392.332 320.428 394.843C320.474 397.353 320.928 399.381 321.441 399.371Z" fill="#87AACC"/>
<path d="M255.853 391.116C255.853 391.943 255.853 392.77 255.75 393.493C255.233 398.763 252.65 402.586 247.07 405.17C245.52 405.893 243.66 406.513 241.49 406.926C237.77 407.856 233.12 408.373 227.54 408.683C226.3 408.786 224.957 408.786 223.51 408.786C222.477 408.786 221.547 408.786 220.513 408.786C217 408.786 213.693 408.683 210.593 408.476C208.527 408.27 206.46 407.96 204.703 407.65C197.057 405.996 192.097 402.38 191.167 395.25C191.787 400.52 180.627 366.213 223.303 362.183C243.04 360.22 255.853 379.336 255.853 391.116Z" fill="#FCAA51"/>
<path d="M255.853 391.116C255.853 391.943 255.853 392.769 255.75 393.493C251.617 399.073 241.903 401.759 223.303 402.069C208.527 402.379 196.643 401.346 191.167 395.146C191.787 400.416 180.627 366.109 223.303 362.079C243.04 360.219 255.853 379.336 255.853 391.116Z" fill="#FEC272"/>
<path d="M210.593 408.477C208.527 408.27 206.46 407.96 204.703 407.65C204.393 404.86 203.773 398.144 204.29 392.564C205.013 385.227 207.803 384.814 208.63 386.157C209.457 387.5 208.94 395.354 209.87 402.587C210.077 404.654 210.387 406.72 210.593 408.477Z" fill="#FFA245"/>
<path d="M247.07 405.17C245.52 405.893 243.66 406.513 241.49 406.926C241.283 404.963 241.077 402.586 240.767 400.106C239.94 392.873 237.563 385.33 237.977 383.883C238.39 382.436 241.283 382.126 243.66 389.153C246.037 395.663 246.967 404.033 247.07 405.17Z" fill="#FFA245"/>
<path d="M227.54 408.682C226.3 408.785 224.957 408.785 223.51 408.785C222.477 408.785 221.547 408.785 220.513 408.785C220.513 405.995 220.41 402.275 220.203 398.865C219.893 392.149 219.687 387.809 221.753 387.395C223.82 386.982 225.99 394.422 226.92 402.275C227.23 404.962 227.437 407.029 227.54 408.682Z" fill="#FFA245"/>
<path d="M358.05 385.743C358.05 386.57 358.153 387.397 358.257 388.12C358.877 393.39 361.46 397.213 367.04 399.59C368.693 400.313 370.553 400.83 372.62 401.347C376.34 402.173 380.99 402.69 386.57 402.897C387.81 402.897 389.153 403 390.6 403C391.633 403 392.563 403 393.597 403C397.11 403 400.417 402.897 403.517 402.483C405.583 402.277 407.547 401.967 409.407 401.553C416.95 399.797 421.91 396.18 422.737 388.947C424.08 376.753 409.923 357.947 390.187 356.293C370.45 354.64 357.843 373.86 358.05 385.743Z" fill="#FCAA51"/>
<path d="M358.05 385.743C358.05 386.57 358.153 387.397 358.257 388.12C362.493 393.7 372.207 396.18 390.807 396.283C405.583 396.387 417.467 395.147 422.84 388.947C424.183 376.753 410.027 357.947 390.29 356.293C370.45 354.64 357.843 373.86 358.05 385.743Z" fill="#FEC272"/>
<path d="M403.517 402.483C405.583 402.276 407.547 401.966 409.407 401.553C409.717 398.763 410.233 392.046 409.613 386.466C408.787 379.129 405.997 378.716 405.17 380.059C404.447 381.403 405.067 389.256 404.24 396.489C404.033 398.659 403.723 400.623 403.517 402.483Z" fill="#FFA245"/>
<path d="M367.04 399.59C368.693 400.313 370.553 400.83 372.62 401.346C372.723 399.383 372.93 397.006 373.24 394.526C373.963 387.293 376.237 379.75 375.72 378.303C375.307 376.856 372.413 376.546 370.037 383.573C367.97 390.083 367.143 398.453 367.04 399.59Z" fill="#FFA245"/>
<path d="M386.57 402.793C387.81 402.793 389.153 402.896 390.6 402.896C391.633 402.896 392.563 402.896 393.597 402.896C393.597 400.106 393.597 396.386 393.7 392.976C393.907 386.26 394.01 381.92 392.047 381.506C389.98 381.093 387.913 388.636 387.087 396.49C386.777 399.176 386.673 401.243 386.57 402.793Z" fill="#FFA245"/>
</svg>
