<svg width="620" height="620" viewBox="0 0 620 620" fill="none" xmlns="http://www.w3.org/2000/svg">
<path d="M185.483 449.294C121.933 450.327 92.7935 449.19 115.837 446.71C138.983 444.23 115.733 443.92 79.8768 444.23C44.0201 444.54 28.2101 441.44 81.2201 438.237C134.23 435.034 328.6 431.727 306.28 435.86C283.96 439.994 267.53 440.924 281.067 442.474C294.603 444.024 272.903 447.847 185.483 449.294Z" fill="#99ADF9"/>
<path d="M450.12 428.937C384.193 429.557 354.02 431.52 377.993 433.483C402.07 435.447 391.22 436.17 353.917 436.79C316.613 437.41 287.267 441.337 342.24 443.403C397.317 445.367 598.817 443.61 575.567 439.787C552.317 435.963 535.267 435.447 549.217 433.38C563.373 431.417 540.847 428.11 450.12 428.937Z" fill="#99ADF9"/>
<path d="M292.537 436.272H99.5099C97.8566 436.272 96.4099 434.929 96.4099 433.172V425.319C96.4099 423.665 97.7532 422.219 99.5099 422.219H292.64C294.293 422.219 295.74 423.562 295.74 425.319V433.172C295.637 434.929 294.293 436.272 292.537 436.272Z" fill="#E1ECFF"/>
<path d="M296.463 436.272H176.08C174.427 436.272 172.98 434.929 172.98 433.172V425.319C172.98 423.665 174.323 422.219 176.08 422.219H296.463C298.117 422.219 299.563 423.562 299.563 425.319V433.172C299.563 434.929 298.22 436.272 296.463 436.272Z" fill="#CDE0FC"/>
<path d="M243.143 422.426H102.61C100.337 422.426 98.2699 420.979 97.4433 418.809L65.4099 330.253C64.0666 326.636 66.7533 322.916 70.5766 322.916H211.11C213.383 322.916 215.45 324.363 216.277 326.533L248.31 415.089C249.55 418.603 246.967 422.426 243.143 422.426Z" fill="#CDE0FC"/>
<path d="M234.567 417.362H106.123C103.85 417.362 101.783 415.915 100.957 413.745L72.6433 335.315C71.3 331.699 73.9867 327.979 77.81 327.979H206.357C208.63 327.979 210.697 329.425 211.523 331.595L239.837 410.025C241.077 413.539 238.39 417.362 234.567 417.362Z" fill="#0BC3B8"/>
<path d="M118.73 431.313H105.297C104.78 431.313 104.367 430.9 104.367 430.383V428.11C104.367 427.593 104.78 427.18 105.297 427.18H118.73C119.247 427.18 119.66 427.593 119.66 428.11V430.383C119.66 430.9 119.247 431.313 118.73 431.313Z" fill="#CDE0FC"/>
<path d="M137.433 431.313H124C123.483 431.313 123.07 430.9 123.07 430.383V428.11C123.07 427.593 123.483 427.18 124 427.18H137.433C137.95 427.18 138.363 427.593 138.363 428.11V430.383C138.467 430.9 137.95 431.313 137.433 431.313Z" fill="#CDE0FC"/>
<path d="M129.373 409.406H203.257C206.977 409.406 209.043 405.066 206.77 402.173L158.41 340.69C156.343 338.003 152.107 338.623 150.763 341.723L125.24 403.206C124 406.099 126.17 409.406 129.373 409.406Z" fill="#66F0E3"/>
<path d="M151.177 357.739L159.96 384.399C160.373 385.743 161.717 386.673 163.163 386.673H164.507C166.263 386.673 167.503 385.329 167.4 383.573L165.023 357.119C164.92 355.466 163.473 354.123 161.82 354.123L154.07 353.916C151.9 353.813 150.453 355.776 151.177 357.739Z" fill="white"/>
<path d="M170.603 395.042C170.81 397.729 168.743 399.899 166.057 399.899C163.37 399.899 160.993 397.729 160.787 395.042C160.58 392.356 162.647 390.186 165.333 390.186C168.02 390.186 170.397 392.356 170.603 395.042Z" fill="white"/>
<path d="M45.1565 309.484L57.8665 319.507C57.8665 319.507 61.2765 314.754 68.6132 312.274C75.9498 309.794 85.8698 311.654 85.8698 311.654L91.0365 282.514C91.0365 282.514 84.8365 301.94 75.7432 303.284C66.6498 304.627 59.2098 292.434 59.2098 292.434C59.2098 292.434 64.5832 305.764 59.4165 309.794C54.0432 313.927 45.1565 309.484 45.1565 309.484Z" fill="#1C3177"/>
<path d="M252.753 394.526L262.88 409.923L289.23 379.336L262.88 419.429L252.753 394.526Z" fill="#E1EAF6"/>
<path d="M267.84 297.394L290.987 256.061L273.42 298.531L267.84 297.394Z" fill="#E1EAF6"/>
<path d="M385.227 316.304C383.677 318.267 381.61 320.541 379.44 323.021C368.073 335.421 349.887 352.471 340.483 357.534C329.22 363.527 319.3 364.974 314.65 358.361C310 351.747 309.69 346.581 316.82 338.624C323.95 330.667 350.713 295.224 364.87 283.651C374.893 275.487 387.397 279.207 392.047 287.267C396.8 295.121 394.837 304.421 385.227 316.304Z" fill="#F774B9"/>
<path d="M379.44 322.918C368.073 335.318 349.887 352.368 340.483 357.431C329.22 363.424 319.3 364.871 314.65 358.258C332.113 356.811 365.18 319.404 365.18 319.404L379.44 322.918Z" fill="#F261B4"/>
<path d="M337.383 353.504C327.773 371.898 310.827 360.428 297.6 347.511C284.373 334.594 269.597 314.031 267.427 307.934C266.703 305.971 266.497 303.904 266.703 301.838C267.013 297.601 269.183 293.881 272.18 293.881C276.623 293.881 311.447 317.234 323.02 326.844C331.597 333.974 338.003 340.071 338.83 346.478C339.037 348.854 338.623 351.128 337.383 353.504Z" fill="#F774B9"/>
<path d="M337.383 353.505C327.773 371.898 310.827 360.428 297.6 347.511C284.373 334.595 269.597 314.031 267.427 307.935C266.703 305.971 266.497 303.905 266.703 301.838C269.08 302.148 271.56 303.491 274.04 306.178C274.04 306.178 303.697 345.031 318.68 352.678C323.95 355.365 331.39 352.058 338.727 346.478C339.037 348.855 338.623 351.128 337.383 353.505Z" fill="#F261B4"/>
<path d="M275.693 307.417C274.66 312.48 272.387 324.674 268.047 326.637C263.603 328.6 255.75 326.43 253.787 321.367C251.823 316.2 256.887 309.483 261.847 303.077C266.807 296.67 269.907 293.88 272.697 294.087C275.487 294.294 276.727 301.94 275.693 307.417Z" fill="#F774B9"/>
<path d="M254.303 318.472C254.303 318.989 253.786 315.889 254.303 318.989C254.82 322.089 259.78 321.779 260.503 320.436C262.88 316.199 271.766 297.702 270.113 296.256C268.46 294.809 254.613 309.792 254.303 318.472Z" fill="#FF97C9"/>
<path d="M487.733 397.833C487.733 397.833 513.153 395.663 525.243 375.513C537.333 355.363 517.907 308.139 516.77 289.436C515.633 270.733 531.03 256.059 547.15 270.733C563.27 285.406 562.857 333.766 557.07 356.396C551.18 379.129 533.717 396.489 510.467 404.653C494.037 410.439 484.633 406.823 484.633 406.823L487.733 397.833Z" fill="#F774B9"/>
<path d="M414.573 407.96C408.993 426.043 394.216 435.446 378.51 437.1C362.803 438.753 334.903 439.993 332.216 438.236C330.976 437.41 330.356 435.653 330.563 433.69C330.77 431.313 332.113 428.523 334.696 426.353C339.45 422.323 356.5 422.323 356.5 422.323C356.5 422.323 353.4 421.91 348.956 418.5C344.513 414.986 334.076 408.063 342.343 382.436C350.61 356.81 374.893 350.92 399.073 359.393C404.653 361.356 408.786 365.8 411.576 371.38C417.156 382.023 417.88 397.316 414.573 407.96Z" fill="#F774B9"/>
<path d="M372 422.012C372 422.942 371.173 423.562 370.347 423.562C370.14 423.562 346.27 423.148 338.933 425.215C332.837 426.972 332.527 430.795 332.423 433.172V433.688C332.217 435.755 333.353 435.962 333.56 435.962C334.49 436.065 335.11 436.892 335.007 437.822C334.903 438.648 334.18 439.268 333.353 439.268C333.25 439.268 333.25 439.268 333.147 439.268C331.287 439.062 328.703 437.305 329.117 433.378V432.862C329.323 430.278 329.737 424.388 338.003 422.012C341 421.185 346.477 420.668 351.953 420.462C349.267 419.635 346.89 418.705 345.237 417.568C336.557 411.472 335.007 401.655 339.967 383.778C343.687 370.448 351.23 363.112 358.877 358.978C359.703 358.565 360.737 358.875 361.047 359.805C361.357 360.528 361.047 361.355 360.323 361.768C353.4 365.488 346.477 372.308 343.067 384.605C337.797 403.722 340.897 410.438 347.097 414.882C352.883 418.912 370.243 420.255 370.45 420.255C371.277 420.358 372 421.082 372 422.012Z" fill="#F774B9"/>
<path d="M414.573 407.959C408.993 426.042 394.216 435.445 378.51 437.099C362.803 438.752 334.903 439.992 332.216 438.235C330.976 437.409 330.356 435.652 330.563 433.689C336.35 434.309 357.74 435.652 383.986 422.839C408.89 410.749 411.576 382.022 411.68 371.275C417.156 382.022 417.88 397.315 414.573 407.959Z" fill="#F774B9"/>
<path d="M342.24 391.115C342.24 391.115 350.3 403.619 361.873 410.749C373.447 417.879 379.853 419.325 379.853 419.325C379.853 419.325 369.417 421.702 359.393 421.495C349.37 421.289 341.827 415.605 339.243 406.512C336.557 397.315 342.24 391.115 342.24 391.115Z" fill="#F774B9"/>
<path d="M417.363 434.104C415.813 434.104 414.367 434.104 412.92 434.104C409.303 434.104 405.687 434.001 402.277 433.794C396.593 433.484 391.323 432.864 386.363 432.037C356.087 426.664 339.76 410.544 341 375.927C342.033 347.821 350.61 314.134 356.913 292.847C357.533 290.781 358.05 288.921 358.67 287.164C360.737 280.344 362.493 275.384 363.217 273.007C363.527 272.077 363.733 271.561 363.733 271.561L450.74 256.371L451.567 256.164C451.567 256.164 454.667 263.294 459.213 274.557C460.04 276.521 460.867 278.587 461.693 280.757C462.623 283.134 463.657 285.614 464.69 288.301C472.027 306.694 481.12 330.461 488.457 352.264C490.627 358.671 492.59 364.871 494.347 370.657C496 376.134 497.447 381.404 498.583 386.157C506.23 417.054 467.377 433.587 417.363 434.104Z" fill="#FF97C9"/>
<path d="M452.393 422.84H433.38C427.387 422.84 417.467 423.15 414.47 428.833C413.54 430.486 413.127 432.346 413.023 434.103C409.407 434.103 405.79 434 402.38 433.793L401.553 429.453C401.553 429.453 401.553 429.453 405.687 424.183C409.717 419.12 422.84 392.046 423.563 390.703C423.253 391.633 418.397 405.273 426.56 413.953C434.517 422.633 450.637 422.84 452.393 422.84Z" fill="#F774B9"/>
<path d="M391.53 429.144C391.427 429.247 391.323 429.247 391.22 429.35C389.773 430.28 388.12 431.21 386.363 432.037C355.983 426.664 339.76 410.544 341 375.927C341.827 354.02 347.2 328.807 352.47 308.657C354.02 302.87 355.467 297.6 356.913 292.847C360.737 289.127 366.213 285.82 373.653 285.82C390.91 285.82 400.727 290.574 407.753 344.824C414.573 398.557 405.687 419.534 391.53 429.144Z" fill="#FFBDE0"/>
<path opacity="0.5" d="M391.53 429.143C391.427 429.246 391.323 429.246 391.22 429.35C389.773 430.28 388.12 431.21 386.363 432.036C355.983 426.663 339.76 410.543 341 375.926C341.827 354.02 347.2 328.806 352.47 308.656C351.437 323.536 350.403 362.08 365.18 393.493C374.067 412.403 383.78 423.15 391.53 429.143Z" fill="#66F0E3"/>
<path d="M459.317 274.557C452.91 279 439.993 286.544 422.737 290.987C416.123 292.64 408.89 293.88 401.14 294.294C376.03 295.637 363.94 290.574 358.67 286.957C360.737 280.137 362.493 275.177 363.217 272.8C368.28 274.454 381.197 277.45 402.69 275.177C406.513 274.764 410.337 274.04 414.057 273.11C429.557 269.184 443.197 261.124 450.74 256.06L451.567 255.957C451.67 256.06 454.667 263.294 459.317 274.557Z" fill="#738DE0"/>
<path d="M422.737 290.987C416.123 292.641 408.89 293.881 401.14 294.294C376.03 295.637 363.94 290.574 358.67 286.957C360.737 280.137 362.493 275.177 363.217 272.801C368.28 274.454 381.197 277.451 402.69 275.177C406.513 274.764 410.337 274.041 414.057 273.111L422.737 290.987Z" fill="#5A7FDB"/>
<path d="M383.367 299.047C383.367 299.667 383.367 300.287 383.263 300.907C382.437 307.313 377.373 312.273 371.173 312.273C364.457 312.273 358.98 306.28 358.98 298.943C358.98 295.533 360.117 292.433 362.183 290.057C364.457 287.37 367.66 285.717 371.173 285.717C377.89 285.82 383.367 291.71 383.367 299.047Z" fill="#FCBD92"/>
<path d="M383.367 299.047C383.367 299.667 383.367 300.287 383.263 300.907C381.093 303.594 377.787 305.247 374.273 305.247C367.557 305.247 362.08 299.254 362.08 292.02C362.08 291.4 362.08 290.78 362.183 290.16C364.457 287.474 367.66 285.82 371.173 285.82C377.89 285.82 383.367 291.71 383.367 299.047Z" fill="#FFD3B3"/>
<path d="M370.347 301.94C374.627 301.94 378.097 300.275 378.097 298.22C378.097 296.166 374.627 294.5 370.347 294.5C366.066 294.5 362.597 296.166 362.597 298.22C362.597 300.275 366.066 301.94 370.347 301.94Z" fill="#1C3177"/>
<path d="M368.487 310.724V300.907C368.487 300.081 369.21 299.357 370.14 299.357C371.07 299.357 371.793 300.081 371.793 300.907V310.724C371.793 311.551 371.07 312.274 370.14 312.274C369.21 312.274 368.487 311.551 368.487 310.724Z" fill="#1C3177"/>
<path d="M488.56 352.263C485.873 354.846 482.257 357.016 477.607 356.396C465.31 354.743 466.653 349.473 464.277 337.176C461.9 324.879 444.643 326.326 446.09 302.146C447.02 286.026 456.01 281.789 461.9 280.859C462.83 283.236 463.863 285.716 464.897 288.403C472.13 306.693 481.223 330.459 488.56 352.263Z" fill="#F774B9"/>
<path d="M497.24 407.96C491.66 426.043 476.883 435.446 461.177 437.1C445.47 438.753 417.57 439.993 414.883 438.236C413.643 437.41 413.023 435.653 413.23 433.69C413.437 431.313 414.78 428.523 417.363 426.353C422.117 422.323 439.167 422.323 439.167 422.323C439.167 422.323 436.067 421.91 431.623 418.5C427.18 414.986 416.743 408.063 425.01 382.436C433.277 356.81 457.56 350.92 481.74 359.393C487.32 361.356 491.453 365.8 494.243 371.38C499.823 382.023 500.547 397.316 497.24 407.96Z" fill="#FF97C9"/>
<path d="M454.667 422.012C454.667 422.942 453.84 423.562 453.013 423.562C452.807 423.562 428.937 423.148 421.6 425.215C415.503 426.972 415.193 430.795 415.09 433.172V433.688C414.883 435.755 416.02 435.962 416.227 435.962C417.157 436.065 417.777 436.892 417.673 437.822C417.57 438.648 416.847 439.268 416.02 439.268C415.917 439.268 415.917 439.268 415.813 439.268C413.953 439.062 411.37 437.305 411.783 433.378V432.862C411.99 430.278 412.403 424.388 420.67 422.012C423.667 421.185 429.143 420.668 434.62 420.462C431.933 419.635 429.557 418.705 427.903 417.568C419.223 411.472 417.673 401.655 422.633 383.778C426.353 370.448 433.897 363.112 441.543 358.978C442.37 358.565 443.403 358.875 443.713 359.805C444.023 360.528 443.713 361.355 442.99 361.768C436.067 365.488 429.143 372.308 425.733 384.605C420.463 403.722 423.563 410.438 429.763 414.882C435.55 418.912 452.91 420.255 453.117 420.255C453.943 420.358 454.667 421.082 454.667 422.012Z" fill="#F774B9"/>
<path d="M497.24 407.959C491.66 426.042 476.883 435.445 461.177 437.099C445.47 438.752 417.57 439.992 414.883 438.235C413.643 437.409 413.023 435.652 413.23 433.689C419.017 434.309 440.407 435.652 466.653 422.839C491.557 410.749 494.243 382.022 494.347 371.275C499.823 382.022 500.547 397.315 497.24 407.959Z" fill="#FF8AC7"/>
<path d="M424.907 391.115C424.907 391.115 432.967 403.619 444.54 410.749C456.113 417.879 462.52 419.325 462.52 419.325C462.52 419.325 452.083 421.702 442.06 421.495C432.037 421.289 424.493 415.605 421.91 406.512C419.223 397.315 424.907 391.115 424.907 391.115Z" fill="#FF8AC7"/>
<path d="M403.103 429.453C403.103 429.453 401.45 431.623 402.793 434.93C404.137 438.236 403.93 441.75 400.623 443.403C398.97 444.23 393.183 444.333 387.293 444.23C386.673 444.23 385.95 444.23 385.33 444.126C381.817 444.023 378.51 443.816 376.03 443.61C375.1 443.506 374.273 443.506 373.653 443.403C373.55 443.403 373.55 443.403 373.447 443.403C369.21 442.99 365.593 440.2 365.593 436.273C365.593 435.343 365.8 434.31 366.317 433.276C368.797 427.8 379.233 423.356 379.233 423.356C379.233 423.356 388.327 409.096 394.63 380.783C400.933 352.47 400.623 339.863 401.76 326.12C402.483 317.853 402.587 302.766 418.81 301.113C428.213 300.183 434 302.973 437.203 307.933C439.58 311.55 440.717 316.303 441.027 321.676C441.853 334.593 439.683 346.166 430.59 373.86C421.497 401.656 403.103 429.453 403.103 429.453Z" fill="#FF97C9"/>
<path d="M403.103 429.454C403.103 429.454 401.45 431.624 402.793 434.93C404.137 438.237 403.93 441.75 400.623 443.404C398.97 444.23 393.183 444.334 387.293 444.23C386.673 444.23 385.95 444.23 385.33 444.127C381.817 444.024 378.51 443.817 376.03 443.61C375.1 443.507 374.273 443.507 373.653 443.404C373.55 443.404 373.55 443.404 373.447 443.404C369.21 442.99 365.593 440.2 365.593 436.274C367.557 436.067 369.727 436.067 371.793 436.274C377.063 436.79 393.803 439.064 395.457 435.447C397.11 431.83 394.63 427.49 394.63 427.49C394.63 427.49 406.72 406.1 417.983 378.614C428.627 352.574 436.48 312.274 437.203 308.037C439.58 311.654 440.717 316.407 441.027 321.78C441.853 334.697 439.683 346.27 430.59 373.964C421.497 401.657 403.103 429.454 403.103 429.454Z" fill="#FF8AC7"/>
<path d="M397.627 445.677C392.46 445.677 373.757 445.16 370.657 444.54C368.59 444.127 366.73 442.68 365.49 440.717C364.147 438.65 363.837 436.17 364.457 433.69C365.697 428.937 375.927 423.77 377.993 422.737C378.82 422.324 379.75 422.634 380.163 423.46C380.577 424.287 380.267 425.217 379.44 425.63C374.893 427.8 368.28 432.037 367.66 434.414C367.247 435.964 367.557 437.514 368.383 438.857C369.107 440.097 370.243 440.924 371.38 441.234C374.377 441.854 396.8 442.474 398.66 442.267C399.693 442.164 401.657 441.337 401.967 438.65C402.277 436.274 400.727 432.657 400.107 431.52C399.797 431.004 399.9 430.28 400.21 429.764C400.21 429.66 404.653 423.667 411.68 411.99C419.12 399.694 428.317 375.927 435.653 349.784C443.093 323.64 436.687 309.897 436.583 309.794C436.17 308.967 436.48 308.037 437.307 307.624C438.133 307.21 439.063 307.52 439.477 308.347C439.787 308.967 446.503 323.227 438.753 350.714C431.313 377.064 422.013 401.244 414.367 413.747C408.683 423.047 404.757 428.834 403.31 430.9C404.033 432.554 405.48 436.067 405.067 439.064C404.55 443.3 401.45 445.367 398.763 445.574C398.66 445.677 398.247 445.677 397.627 445.677Z" fill="#F774B9"/>
<path d="M379.957 429.142C379.957 429.142 376.237 431.416 375.307 435.342C374.583 438.856 375.72 442.782 376.03 443.712C375.1 443.609 374.273 443.609 373.653 443.506C373.137 441.749 372.413 438.236 373.137 434.826C374.17 430.072 378.613 427.386 378.82 427.282C379.337 426.972 380.06 427.179 380.37 427.696C380.577 428.109 380.473 428.832 379.957 429.142Z" fill="#F774B9"/>
<path d="M390.6 429.659C390.497 429.763 387.707 431.726 387.087 436.273C386.467 441.026 387.397 443.196 387.397 443.196C387.5 443.506 387.5 443.919 387.293 444.229C386.673 444.229 385.95 444.229 385.33 444.126C385.227 443.816 384.09 441.336 384.813 435.963C385.537 430.279 389.153 427.903 389.257 427.799C389.773 427.489 390.393 427.593 390.807 428.109C391.22 428.626 391.013 429.349 390.6 429.659Z" fill="#F774B9"/>
<path d="M451.67 256.06C451.67 256.06 449.293 258.23 444.85 261.434C440.407 264.637 420.36 276.107 393.803 276.934C371.587 277.657 339.347 277.45 329.013 255.027C326.947 250.584 325.81 245.21 325.707 238.907C325.19 200.467 371.277 185.794 389.98 185.277C410.027 184.76 431.003 187.034 439.373 200.777C443.507 207.597 447.123 223.51 448.983 234.774C450.843 246.244 451.67 256.06 451.67 256.06Z" fill="#FF97C9"/>
<path d="M389.36 187.86C386.673 190.96 383.16 192.82 379.647 193.957C370.243 196.953 360.117 194.783 360.117 194.783C360.117 194.783 359.083 182.797 359.187 176.39C359.29 173.807 359.497 171.947 360.013 170.603C360.84 168.537 362.08 167.71 364.043 167.503C367.35 167.193 389.36 187.86 389.36 187.86Z" fill="#FF97C9"/>
<path d="M377.477 191.682C369.107 190.545 363.01 192.612 363.01 192.612C363.01 192.612 361.15 182.795 361.253 177.732C361.253 175.665 361.563 174.219 361.977 173.082C363.423 174.219 366.213 176.699 369.933 181.142C373.55 185.689 376.133 189.615 377.477 191.682Z" fill="#FFBDE0"/>
<path d="M442.99 210.179L431.933 205.839L406.927 196.023C406.927 196.023 409.82 175.769 414.47 169.156C414.47 169.053 414.573 169.053 414.573 168.949C419.327 162.543 423.77 163.059 425.733 166.159C427.697 169.259 435.757 187.239 439.063 197.056C442.473 207.079 442.99 210.179 442.99 210.179Z" fill="#FF97C9"/>
<path d="M429.557 192.303L411.473 191.167C411.473 191.167 413.54 177.423 416.95 172.153C418.293 171.843 419.637 172.05 420.877 173.29C423.873 176.39 428.007 186.62 429.247 191.063C429.35 191.373 429.453 191.89 429.557 192.303Z" fill="#FFBDE0"/>
<path d="M415.193 232.81C414.47 232.81 413.747 232.293 413.643 231.57C413.437 230.64 413.953 229.813 414.883 229.607L431.21 225.68C432.14 225.473 432.967 225.99 433.173 226.92C433.38 227.85 432.863 228.677 431.933 228.883L415.607 232.81C415.503 232.707 415.297 232.81 415.193 232.81Z" fill="#F774B9"/>
<path d="M431.107 247.07C431.003 247.07 430.9 247.07 430.797 247.07L415.71 244.074C414.78 243.867 414.263 243.04 414.367 242.11C414.573 241.18 415.4 240.664 416.33 240.767L431.417 243.764C432.347 243.97 432.863 244.797 432.76 245.727C432.553 246.554 431.933 247.07 431.107 247.07Z" fill="#F774B9"/>
<path d="M329.84 242.625C329.013 242.625 328.29 242.005 328.187 241.179C328.083 240.249 328.703 239.422 329.633 239.319L344.617 237.562C345.547 237.459 346.373 238.079 346.477 239.009C346.58 239.939 345.96 240.765 345.03 240.869L330.047 242.625C329.943 242.625 329.943 242.625 329.84 242.625Z" fill="#F774B9"/>
<path d="M344.72 230.432C344.513 230.432 344.41 230.432 344.203 230.328L329.427 225.265C328.6 224.955 328.083 224.025 328.393 223.198C328.703 222.372 329.633 221.855 330.46 222.165L345.237 227.228C346.063 227.538 346.58 228.468 346.27 229.295C345.96 230.018 345.34 230.432 344.72 230.432Z" fill="#F774B9"/>
<path d="M417.57 193.025H407.133C406.203 193.025 405.48 192.302 405.48 191.372C405.48 190.442 406.203 189.719 407.133 189.719H417.57C418.5 189.719 419.223 190.442 419.223 191.372C419.223 192.302 418.5 193.025 417.57 193.025Z" fill="#F774B9"/>
<path d="M380.783 193.025H370.347C369.417 193.025 368.693 192.302 368.693 191.372C368.693 190.442 369.417 189.719 370.347 189.719H380.783C381.713 189.719 382.437 190.442 382.437 191.372C382.333 192.302 381.61 193.025 380.783 193.025Z" fill="#F774B9"/>
<path d="M451.67 256.06C451.67 256.06 449.293 258.23 444.85 261.433C440.407 264.637 420.36 276.107 393.803 276.933C371.587 277.657 339.347 277.45 329.013 255.027C331.907 257.61 346.373 268.253 388.12 266.393C427.593 264.533 444.437 242.317 448.983 234.773C450.843 246.243 451.67 256.06 451.67 256.06Z" fill="#FF8AC7"/>
<path d="M372.62 249.86C372.31 249.86 372 249.756 371.793 249.653C370.967 249.136 370.76 248.206 371.277 247.38L374.377 242.213C375.307 240.663 376.96 239.733 378.717 239.63C380.473 239.526 382.23 240.353 383.263 241.8L387.19 247.173C387.707 247.896 387.603 248.93 386.777 249.446C386.053 249.963 385.02 249.86 384.503 249.033L380.577 243.66C380.163 243.04 379.543 242.833 378.82 242.833C378.097 242.833 377.477 243.246 377.167 243.866L374.067 249.033C373.757 249.55 373.24 249.86 372.62 249.86Z" fill="#1C3177"/>
<path d="M351.437 210.282C351.437 215.139 353.71 219.065 356.397 219.065C359.187 219.065 361.357 215.139 361.357 210.282C361.357 208.422 361.047 206.665 360.427 205.219L352.057 205.942C351.643 207.182 351.437 208.732 351.437 210.282Z" fill="#1C3177"/>
<path d="M363.01 207.699H352.573C351.643 207.699 350.92 206.976 350.92 206.046C350.92 205.116 351.643 204.393 352.573 204.393H363.01C363.94 204.393 364.663 205.116 364.663 206.046C364.663 206.976 363.837 207.699 363.01 207.699Z" fill="#1C3177"/>
<path d="M407.65 212.66C407.65 218.136 405.273 222.58 402.277 222.58C399.28 222.58 396.903 218.136 396.903 212.66C396.903 210.49 397.317 208.526 397.937 206.873L407.03 207.7C407.34 209.146 407.65 210.903 407.65 212.66Z" fill="#1C3177"/>
<path d="M408.373 209.457H397.937C397.007 209.457 396.283 208.734 396.283 207.804C396.283 206.874 397.007 206.15 397.937 206.15H408.373C409.303 206.15 410.027 206.874 410.027 207.804C410.027 208.734 409.2 209.457 408.373 209.457Z" fill="#1C3177"/>
</svg>
