<svg width="14" height="18" viewBox="0 0 14 18" fill="none" xmlns="http://www.w3.org/2000/svg">
<path d="M9.15703 1.15964C8.84036 0.842969 8.41536 0.667969 7.9737 0.667969H1.9987C1.08203 0.667969 0.332031 1.41797 0.332031 2.33464V15.668C0.332031 16.5846 1.0737 17.3346 1.99036 17.3346H11.9987C12.9154 17.3346 13.6654 16.5846 13.6654 15.668V6.35964C13.6654 5.91797 13.4904 5.49297 13.1737 5.18464L9.15703 1.15964ZM9.4987 14.0013H4.4987C4.04036 14.0013 3.66536 13.6263 3.66536 13.168C3.66536 12.7096 4.04036 12.3346 4.4987 12.3346H9.4987C9.95703 12.3346 10.332 12.7096 10.332 13.168C10.332 13.6263 9.95703 14.0013 9.4987 14.0013ZM9.4987 10.668H4.4987C4.04036 10.668 3.66536 10.293 3.66536 9.83464C3.66536 9.3763 4.04036 9.0013 4.4987 9.0013H9.4987C9.95703 9.0013 10.332 9.3763 10.332 9.83464C10.332 10.293 9.95703 10.668 9.4987 10.668ZM7.83203 5.66797V1.91797L12.4154 6.5013H8.66536C8.20703 6.5013 7.83203 6.1263 7.83203 5.66797Z" fill="currentColor"/>
</svg>
