<svg width="14" height="14" viewBox="0 0 14 14" fill="none" xmlns="http://www.w3.org/2000/svg">
<path d="M6.9987 0.333252C3.33203 0.333252 0.332031 3.33325 0.332031 6.99992C0.332031 10.6666 3.33203 13.6666 6.9987 13.6666C10.6654 13.6666 13.6654 10.6666 13.6654 6.99992C13.6654 3.33325 10.6654 0.333252 6.9987 0.333252ZM9.36536 9.53325L6.64536 7.85992C6.44536 7.73992 6.32536 7.52659 6.32536 7.29325V4.16659C6.33203 3.89325 6.5587 3.66659 6.83203 3.66659C7.10536 3.66659 7.33203 3.89325 7.33203 4.16659V7.13325L9.89203 8.67325C10.132 8.81992 10.212 9.13325 10.0654 9.37325C9.9187 9.60659 9.60536 9.67992 9.36536 9.53325Z" fill="currentColor"/>
</svg>
