<svg width="18" height="11" viewBox="0 0 18 11" fill="none" xmlns="http://www.w3.org/2000/svg">
    <path d="M16.5 5.83383C16.279 5.83383 16.067 5.74603 15.9108 5.58975C15.7545 5.43347 15.6667 5.22151 15.6667 5.0005V2.84216L10.425 8.09216C10.3475 8.17027 10.2554 8.23227 10.1538 8.27457C10.0523 8.31688 9.94336 8.33866 9.83335 8.33866C9.72334 8.33866 9.61442 8.31688 9.51287 8.27457C9.41132 8.23227 9.31915 8.17027 9.24168 8.09216L6.50001 5.34216L2.09168 9.75883C1.93476 9.91575 1.72193 10.0039 1.50001 10.0039C1.27809 10.0039 1.06527 9.91575 0.908345 9.75883C0.751426 9.60191 0.663269 9.38908 0.663269 9.16716C0.663269 8.94525 0.751426 8.73242 0.908345 8.5755L5.90835 3.5755C5.98582 3.49739 6.07798 3.4354 6.17953 3.39309C6.28108 3.35078 6.39 3.329 6.50001 3.329C6.61002 3.329 6.71894 3.35078 6.82049 3.39309C6.92204 3.4354 7.01421 3.49739 7.09168 3.5755L9.83335 6.3255L14.4917 1.66716H12.3333C12.1123 1.66716 11.9004 1.57937 11.7441 1.42309C11.5878 1.26681 11.5 1.05484 11.5 0.833831C11.5 0.612818 11.5878 0.400855 11.7441 0.244575C11.9004 0.088295 12.1123 0.000497818 12.3333 0.000497818H16.5C16.6089 0.00181484 16.7165 0.0244637 16.8167 0.0671644C17.0203 0.151727 17.1821 0.31354 17.2667 0.517165C17.3094 0.617351 17.332 0.724934 17.3333 0.833831V5.0005C17.3333 5.22151 17.2456 5.43347 17.0893 5.58975C16.933 5.74603 16.721 5.83383 16.5 5.83383Z" fill="#5CC689"/>
</svg>
