<svg width="20" height="20" viewBox="0 0 20 20" fill="none" xmlns="http://www.w3.org/2000/svg">
<path d="M17.5 9.16617C17.279 9.16617 17.067 9.25397 16.9108 9.41025C16.7545 9.56653 16.6667 9.77849 16.6667 9.9995V12.1578L11.425 6.90784C11.3475 6.82973 11.2554 6.76773 11.1538 6.72543C11.0523 6.68312 10.9434 6.66134 10.8333 6.66134C10.7233 6.66134 10.6144 6.68312 10.5129 6.72543C10.4113 6.76773 10.3191 6.82973 10.2417 6.90784L7.50001 9.65784L3.09168 5.24117C2.93476 5.08425 2.72193 4.99609 2.50001 4.99609C2.27809 4.99609 2.06527 5.08425 1.90835 5.24117C1.75143 5.39809 1.66327 5.61092 1.66327 5.83284C1.66327 6.05475 1.75143 6.26758 1.90835 6.4245L6.90835 11.4245C6.98582 11.5026 7.07798 11.5646 7.17953 11.6069C7.28108 11.6492 7.39 11.671 7.50001 11.671C7.61002 11.671 7.71894 11.6492 7.82049 11.6069C7.92204 11.5646 8.01421 11.5026 8.09168 11.4245L10.8333 8.6745L15.4917 13.3328H13.3333C13.1123 13.3328 12.9004 13.4206 12.7441 13.5769C12.5878 13.7332 12.5 13.9452 12.5 14.1662C12.5 14.3872 12.5878 14.5991 12.7441 14.7554C12.9004 14.9117 13.1123 14.9995 13.3333 14.9995H17.5C17.6089 14.9982 17.7165 14.9755 17.8167 14.9328C18.0203 14.8483 18.1821 14.6865 18.2667 14.4828C18.3094 14.3826 18.332 14.2751 18.3333 14.1662V9.9995C18.3333 9.77849 18.2456 9.56653 18.0893 9.41025C17.933 9.25397 17.721 9.16617 17.5 9.16617Z" fill="#EE5252"/>
</svg>
