<svg width="20" height="20" viewBox="0 0 20 20" fill="none" xmlns="http://www.w3.org/2000/svg">
<path fill-rule="evenodd" clip-rule="evenodd" d="M12.7604 2.063C13.6101 1.81623 14.4957 2.31635 14.7384 3.18005C14.7793 3.32536 14.8 3.47574 14.8 3.62687V4.98841H16.4C17.2837 4.98841 18 5.7166 18 6.61486V16.3735C18 17.2718 17.2837 18 16.4 18H3.6C2.71634 18 2 17.2718 2 16.3735H2.02136C2.00716 16.2861 2 16.1975 2 16.1087V6.41506C2 5.68888 2.47356 5.05069 3.16045 4.85119L12.7604 2.063ZM8.51208 16.3735H16.4V9.86775H14.8V8.24131H16.4V6.61486H14.8V13.3205C14.8 14.0466 14.3264 14.6848 13.6396 14.8843L8.51208 16.3735ZM3.6001 6.41504V16.1086L13.2001 13.3204V3.62685L3.6001 6.41504ZM11.6 8.24131C11.6 8.69044 11.2418 9.05453 10.8 9.05453C10.3582 9.05453 10 8.69044 10 8.24131C10 7.79218 10.3582 7.42809 10.8 7.42809C11.2418 7.42809 11.6 7.79218 11.6 8.24131Z" fill="#0ACCDA"/>
</svg>
