<svg width="155" height="124" viewBox="0 0 155 124" fill="none" xmlns="http://www.w3.org/2000/svg">
<path d="M66.5725 4.5725C63.6275 1.6275 59.675 0 55.5675 0H15.5C6.975 0 0.0774999 6.975 0.0774999 15.5L0 108.5C0 117.025 6.975 124 15.5 124H139.5C148.025 124 155 117.025 155 108.5V31C155 22.475 148.025 15.5 139.5 15.5H77.5L66.5725 4.5725Z" fill="#DBDFEA"/>
<path d="M72.2471 98.425C72.2279 98.1689 72.4379 97.96 72.6947 97.96H84.1647C84.4215 97.96 84.6315 98.1689 84.6123 98.425C84.3725 101.62 81.6833 104.16 78.4297 104.16C75.1761 104.16 72.4869 101.62 72.2471 98.425ZM66.0297 91.76C66.0297 93.465 67.4247 94.86 69.1297 94.86H87.7297C89.4347 94.86 90.8297 93.465 90.8297 91.76C90.8297 90.055 89.4347 88.66 87.7297 88.66H69.1297C67.4247 88.66 66.0297 90.055 66.0297 91.76ZM101.68 65.41C101.68 77.1341 93.5971 83.4495 90.0969 85.4994C90.0265 85.5406 89.9498 85.56 89.8682 85.56H66.9911C66.9096 85.56 66.8328 85.5406 66.7625 85.4994C63.2623 83.4495 55.1797 77.1341 55.1797 65.41C55.1797 52.576 65.5957 42.16 78.4297 42.16C91.2637 42.16 101.68 52.576 101.68 65.41ZM116.849 58.6507C116.802 58.7515 116.721 58.8325 116.62 58.8788L113.448 60.3375C113.087 60.5035 113.087 61.0164 113.448 61.1824L116.62 62.6411C116.721 62.6875 116.802 62.7684 116.849 62.8693L118.307 66.0413C118.473 66.4022 118.986 66.4022 119.152 66.0413L120.611 62.8693C120.657 62.7684 120.738 62.6875 120.839 62.6411L124.011 61.1824C124.372 61.0164 124.372 60.5035 124.011 60.3375L120.839 58.8788C120.738 58.8325 120.657 58.7515 120.611 58.6507L119.152 55.4787C118.986 55.1177 118.473 55.1177 118.307 55.4787L116.849 58.6507ZM109.007 53.6329C109.172 53.9955 109.687 53.9955 109.853 53.6329L112.272 48.3319C112.318 48.23 112.4 48.1484 112.502 48.1019L117.803 45.683C118.165 45.5175 118.165 45.0024 117.803 44.8369L112.502 42.418C112.4 42.3716 112.318 42.2899 112.272 42.188L109.853 36.887C109.687 36.5244 109.172 36.5244 109.007 36.887L106.588 42.188C106.541 42.2899 106.46 42.3716 106.358 42.418L101.057 44.8369C100.694 45.0024 100.694 45.5175 101.057 45.683L106.358 48.1019C106.46 48.1484 106.541 48.23 106.588 48.3319L109.007 53.6329Z" fill="white"/>
</svg>
