<svg width="40" height="40" viewBox="0 0 40 40" fill="none" xmlns="http://www.w3.org/2000/svg">
<path d="M39 20C39 30.4934 30.4934 39 20 39C9.50659 39 1 30.4934 1 20C1 9.50659 9.50659 1 20 1C30.4934 1 39 9.50659 39 20Z" stroke="#0BC3B8" stroke-width="2"/>
<path d="M22.25 15.5V27.0986C22.25 27.2221 22.2805 27.3436 22.3387 27.4525C22.397 27.5614 22.4812 27.6542 22.584 27.7226L23.6145 28.4097C23.7145 28.4763 23.829 28.518 23.9485 28.5311C24.068 28.5443 24.1889 28.5285 24.301 28.4852C24.4131 28.4418 24.5131 28.3722 24.5927 28.2821C24.6722 28.192 24.729 28.0841 24.7581 27.9675L26 23" stroke="#0BC3B8" stroke-width="1.8" stroke-linecap="round" stroke-linejoin="round"/>
<path d="M26 23.0004C26.9946 23.0004 27.9484 22.6053 28.6517 21.902C29.3549 21.1987 29.75 20.2449 29.75 19.2504C29.75 18.2558 29.3549 17.302 28.6517 16.5987C27.9484 15.8954 26.9946 15.5003 26 15.5003H22.25C22.25 15.5003 17.1452 15.5003 12.2327 11.3803C12.1235 11.2883 11.9902 11.2295 11.8487 11.2106C11.7071 11.1918 11.5631 11.2138 11.4336 11.274C11.3042 11.3343 11.1946 11.4302 11.1177 11.5506C11.0409 11.671 11.0001 11.8108 11 11.9536V26.5471C11.0001 26.6899 11.0409 26.8297 11.1177 26.9501C11.1946 27.0705 11.3042 27.1664 11.4336 27.2267C11.5631 27.2869 11.7071 27.3089 11.8487 27.2901C11.9902 27.2712 12.1235 27.2124 12.2327 27.1204C17.1452 23.0003 22.25 23.0004 22.25 23.0004H26Z" stroke="#0BC3B8" stroke-width="1.8" stroke-linecap="round" stroke-linejoin="round"/>
</svg>
