<svg width="40" height="40" viewBox="0 0 40 40" fill="none" xmlns="http://www.w3.org/2000/svg">
<path d="M25 15L26.5667 11.55L30 10L26.5667 8.45L25 5L23.4667 8.45L20 10L23.4667 11.55L25 15Z" fill="white"/>
<path d="M35.0008 13.335C32.5841 13.335 31.2341 15.735 31.7841 17.5183L25.8675 23.4516C25.3675 23.3016 24.6341 23.3016 24.1341 23.4516L19.8841 19.2016C20.4508 17.4183 19.1008 15.0016 16.6675 15.0016C14.2508 15.0016 12.8841 17.4016 13.4508 19.2016L5.85081 26.785C4.06748 26.235 1.66748 27.585 1.66748 30.0016C1.66748 31.835 3.16748 33.335 5.00081 33.335C7.41748 33.335 8.76748 30.935 8.21748 29.1516L15.8008 21.5516C16.3008 21.7016 17.0341 21.7016 17.5341 21.5516L21.7841 25.8016C21.2175 27.585 22.5675 30.0016 25.0008 30.0016C27.4175 30.0016 28.7841 27.6016 28.2175 25.8016L34.1508 19.885C35.9341 20.435 38.3341 19.085 38.3341 16.6683C38.3341 14.835 36.8341 13.335 35.0008 13.335Z" fill="white"/>
<path d="M6.66748 15L5.83415 18.3333L5.00081 15L1.66748 14.1667L5.00081 13.3333L5.83415 10L6.66748 13.3333L10.0008 14.1667L6.66748 15Z" fill="white"/>
</svg>
