<svg width="100%" height="100%" viewBox="0 0 48 64" fill="none" xmlns="http://www.w3.org/2000/svg">
<path d="M23.6834 11.8583C20.7262 13.9382 17.3745 16.2957 15.5787 20.1959C12.4595 27 21.9615 34.4223 22.3675 34.735C22.4619 34.8078 22.5748 34.8439 22.6875 34.8439C22.8071 34.8439 22.9269 34.803 23.0243 34.7216C23.2129 34.5638 23.2665 34.2958 23.1531 34.0776C23.1187 34.0113 19.7081 27.3863 19.8348 22.6334C19.8797 20.9782 22.1963 19.1004 24.6489 17.1122C26.8951 15.2912 29.4413 13.2273 30.9311 10.8129C34.2016 5.49842 30.5666 0.272679 30.5295 0.22064C30.3851 0.0179391 30.1186 -0.0557131 29.8908 0.0443784C29.6631 0.14468 29.537 0.391026 29.589 0.634226C29.5964 0.668639 30.3033 4.12442 28.3363 7.68469C27.5257 9.15585 25.7452 10.4084 23.6834 11.8583Z" fill="#CA3132"/>
<path d="M36.142 14.2015C36.3506 14.0443 36.4119 13.7577 36.2856 13.529C36.1592 13.3003 35.8842 13.1993 35.6399 13.2921C35.1376 13.483 23.3379 18.0312 23.3379 23.527C23.3379 27.3152 24.9561 29.3166 26.1377 30.7781C26.6012 31.3511 27.0014 31.8461 27.1332 32.2688C27.5044 33.4866 26.625 35.6878 26.2552 36.4331C26.1486 36.6476 26.2009 36.9072 26.3822 37.0637C26.4802 37.1483 26.6025 37.1911 26.7251 37.1911C26.8293 37.1911 26.934 37.16 27.0245 37.0971C27.2274 36.9558 31.9829 33.5937 31.1299 29.5428C30.8122 28.0032 30.0556 26.8781 29.3879 25.8854C28.3536 24.3475 27.6066 23.2364 28.7399 21.1844C30.0681 18.7915 36.0814 14.247 36.142 14.2015Z" fill="#CA3132"/>
<path d="M5.4277 37.2787C5.22542 37.8841 5.32089 38.4853 5.70363 39.0168C6.98279 40.7924 11.5136 41.7705 18.462 41.7705C18.4625 41.7705 18.4627 41.7705 18.4629 41.7705C19.4044 41.7705 20.3984 41.752 21.4165 41.7155C32.5258 41.3176 36.6464 37.8568 36.8163 37.7097C37.0016 37.5494 37.0511 37.2823 36.9359 37.0662C36.8207 36.8502 36.5723 36.7418 36.335 36.807C32.4226 37.8753 25.1166 38.2545 20.049 38.2545C14.3786 38.2545 11.4909 37.8461 10.784 37.5446C11.1468 37.0464 13.3842 36.1569 16.1568 35.6116C16.4218 35.5595 16.6039 35.3149 16.5777 35.0461C16.5515 34.7773 16.3257 34.5723 16.0556 34.5723C14.4303 34.5725 6.27963 34.703 5.4277 37.2787Z" fill="#3174B9"/>
<path d="M42.6004 33.7148C40.309 33.7148 38.1362 34.8631 38.0447 34.912C37.8327 35.0255 37.7253 35.2685 37.7834 35.5018C37.8418 35.7349 38.0514 35.8988 38.2919 35.899C38.3406 35.8992 43.1796 35.9387 43.6179 38.7035C44.0061 41.0887 39.0393 44.9534 37.0927 46.2414C36.8824 46.3805 36.8008 46.6495 36.8984 46.8818C36.9812 47.0797 37.1741 47.2035 37.3818 47.2035C37.4181 47.2035 37.4548 47.1997 37.4913 47.1917C37.9534 47.0931 48.792 44.7048 47.6461 38.394C46.9469 34.5265 44.5162 33.7148 42.6004 33.7148Z" fill="#3174B9"/>
<path d="M35.169 45.4686C35.2068 45.2664 35.1226 45.0607 34.9543 44.9428L32.3555 43.1225C32.2288 43.0337 32.0687 43.0058 31.9199 43.0452C31.8928 43.0524 29.175 43.7667 25.2293 44.2048C23.6633 44.3804 21.9093 44.4732 20.1565 44.4732C16.2118 44.4732 13.6325 44.0096 13.2569 43.6697C13.2072 43.5742 13.2229 43.5308 13.2318 43.5067C13.3 43.3168 13.6657 43.0912 13.9015 43.002C14.162 42.9057 14.3023 42.6228 14.2213 42.3572C14.1406 42.0915 13.8667 41.935 13.5964 42.0001C10.9895 42.6291 9.71471 43.509 9.80745 44.6148C9.97217 46.5753 14.5136 47.5817 18.353 47.848C18.9051 47.8857 19.5023 47.905 20.1274 47.905C20.1278 47.905 20.128 47.905 20.1284 47.905C26.5126 47.905 34.6971 45.9019 34.7789 45.8816C34.9787 45.8323 35.131 45.6709 35.169 45.4686Z" fill="#3174B9"/>
<path d="M15.5746 49.6777C15.7714 49.5495 15.8587 49.3063 15.7889 49.0822C15.7192 48.8581 15.5096 48.711 15.2741 48.7139C14.9248 48.7231 11.8555 48.8616 11.6406 50.8158C11.5756 51.3998 11.7428 51.9332 12.1379 52.4013C13.24 53.7074 16.2146 54.4835 21.2305 54.7746C21.8239 54.81 22.4266 54.8279 23.0223 54.8279C29.3992 54.8279 33.6939 52.8313 33.8737 52.7463C34.0481 52.6639 34.1631 52.4926 34.1734 52.3C34.1837 52.1076 34.0876 51.9248 33.923 51.8243L30.6387 49.8193C30.5248 49.7499 30.3884 49.7268 30.2583 49.7534C30.2375 49.7578 28.1522 50.1903 25.005 50.6177C24.4095 50.6985 23.6638 50.7397 22.7888 50.7397C19.645 50.7397 16.1483 50.226 15.4777 49.8898C15.468 49.8267 15.4804 49.7469 15.5746 49.6777Z" fill="#3174B9"/>
<path d="M20.0509 60.8556C34.6575 60.8432 42.4972 58.2456 44.0074 56.611C44.542 56.0325 44.5997 55.4851 44.5542 55.1275C44.442 54.2474 43.6406 53.7088 43.5495 53.6503C43.3302 53.5092 43.0361 53.5462 42.865 53.7434C42.6944 53.9409 42.6905 54.229 42.8617 54.426C42.9538 54.5446 43.0071 54.7429 42.7377 55.0125C42.134 55.5763 36.0445 57.288 25.9057 57.8021C24.5168 57.8744 23.0601 57.911 21.5762 57.9112C12.4983 57.9112 5.85469 56.6679 4.98262 55.9431C5.31898 55.4603 7.66872 54.6885 10.1679 54.2523C10.4495 54.2032 10.6398 53.9377 10.5961 53.6553C10.5525 53.3729 10.2921 53.1783 10.0075 53.2155C9.93704 53.2249 9.69804 53.2396 9.42085 53.2564C5.29737 53.5082 0.53222 54.0695 0.283565 56.1939C0.208024 56.8414 0.400443 57.429 0.855576 57.9405C1.96917 59.1918 5.17021 60.8554 20.0503 60.8554C20.0507 60.8556 20.0507 60.8556 20.0509 60.8556Z" fill="#3174B9"/>
<path d="M46.8772 57.072C46.6707 56.9765 46.4269 57.0248 46.2727 57.191C46.2511 57.2141 44.0551 59.5105 37.4523 60.8589C34.9244 61.3654 30.1794 61.6223 23.349 61.6223C16.5059 61.6223 9.99447 61.3531 9.92942 61.3503C9.65747 61.3371 9.42477 61.5348 9.38783 61.8025C9.35069 62.0703 9.52318 62.3223 9.78589 62.3848C9.85367 62.401 16.6777 63.9997 26.0083 63.9997C30.4834 63.9997 34.8381 63.6361 38.9517 62.9188C46.6218 61.5742 47.1588 57.771 47.1779 57.6098C47.2046 57.3844 47.0833 57.1675 46.8772 57.072Z" fill="#3174B9"/>
</svg>
