<svg width="30" height="40" viewBox="0 0 30 40" fill="none" xmlns="http://www.w3.org/2000/svg">
<g filter="url(#filter0_d_10650:21822)">
<path d="M10.0007 33.9987C10.0007 34.9154 10.7507 35.6654 11.6673 35.6654H18.334C19.2507 35.6654 20.0007 34.9154 20.0007 33.9987V32.332H10.0007V33.9987ZM15.0007 2.33203C8.56732 2.33203 3.33398 7.56536 3.33398 13.9987C3.33398 17.9654 5.31732 21.4487 8.33398 23.5654V27.332C8.33398 28.2487 9.08398 28.9987 10.0007 28.9987H20.0007C20.9173 28.9987 21.6673 28.2487 21.6673 27.332V23.5654C24.684 21.4487 26.6673 17.9654 26.6673 13.9987C26.6673 7.56536 21.434 2.33203 15.0007 2.33203ZM19.7507 20.832L18.334 21.832V25.6654H11.6673V21.832L10.2507 20.832C8.00065 19.2654 6.66732 16.7154 6.66732 13.9987C6.66732 9.3987 10.4007 5.66536 15.0007 5.66536C19.6007 5.66536 23.334 9.3987 23.334 13.9987C23.334 16.7154 22.0007 19.2654 19.7507 20.832Z" fill="white"/>
</g>
<defs>
<filter id="filter0_d_10650:21822" x="0.333984" y="0.332031" width="29.3333" height="39.3333" filterUnits="userSpaceOnUse" color-interpolation-filters="sRGB">
<feFlood flood-opacity="0" result="BackgroundImageFix"/>
<feColorMatrix in="SourceAlpha" type="matrix" values="0 0 0 0 0 0 0 0 0 0 0 0 0 0 0 0 0 0 127 0" result="hardAlpha"/>
<feOffset dy="1"/>
<feGaussianBlur stdDeviation="1.5"/>
<feComposite in2="hardAlpha" operator="out"/>
<feColorMatrix type="matrix" values="0 0 0 0 0.113725 0 0 0 0 0.360784 0 0 0 0 0.34902 0 0 0 0.16 0"/>
<feBlend mode="normal" in2="BackgroundImageFix" result="effect1_dropShadow_10650:21822"/>
<feBlend mode="normal" in="SourceGraphic" in2="effect1_dropShadow_10650:21822" result="shape"/>
</filter>
</defs>
</svg>
