<svg width="40" height="40" viewBox="0 0 40 40" fill="none" xmlns="http://www.w3.org/2000/svg">
<path d="M10.8333 35H4.99992C4.08325 35 3.33325 34.25 3.33325 33.3333V16.6667C3.33325 15.75 4.08325 15 4.99992 15H10.8333C11.7499 15 12.4999 15.75 12.4999 16.6667V33.3333C12.4999 34.25 11.7499 35 10.8333 35ZM22.9166 5H17.0833C16.1666 5 15.4166 5.75 15.4166 6.66667V33.3333C15.4166 34.25 16.1666 35 17.0833 35H22.9166C23.8333 35 24.5833 34.25 24.5833 33.3333V6.66667C24.5833 5.75 23.8333 5 22.9166 5ZM34.9999 18.3333H29.1666C28.2499 18.3333 27.4999 19.0833 27.4999 20V33.3333C27.4999 34.25 28.2499 35 29.1666 35H34.9999C35.9166 35 36.6666 34.25 36.6666 33.3333V20C36.6666 19.0833 35.9166 18.3333 34.9999 18.3333Z" fill="white"/>
</svg>
