<svg width="104" height="104" viewBox="0 0 104 104" fill="none" xmlns="http://www.w3.org/2000/svg">
<path fill-rule="evenodd" clip-rule="evenodd" d="M43.332 64.9987C43.332 60.232 47.232 56.332 51.9987 56.332C56.7654 56.332 60.6654 60.232 60.6654 64.9987C60.6654 69.7654 56.7654 73.6654 51.9987 73.6654C47.232 73.6654 43.332 69.7654 43.332 64.9987ZM73.6654 34.6654H77.9987C82.7654 34.6654 86.6654 38.5654 86.6654 43.332V86.6654C86.6654 91.432 82.7654 95.332 77.9987 95.332H25.9987C21.232 95.332 17.332 91.432 17.332 86.6654V43.332C17.332 38.5654 21.232 34.6654 25.9987 34.6654H64.9987V25.9987C64.9987 18.8487 59.1487 12.9987 51.9987 12.9987C46.062 12.9987 40.9054 17.0287 39.432 22.7487C38.8254 25.0887 36.442 26.4754 34.1454 25.8687C31.8054 25.262 30.4187 22.922 31.0254 20.582C33.4954 11.0054 42.1187 4.33203 51.9987 4.33203C63.9587 4.33203 73.6654 14.0387 73.6654 25.9987V34.6654ZM73.6654 86.6654C76.0487 86.6654 77.9987 84.7154 77.9987 82.332V86.6654H73.6654ZM30.332 86.6654H25.9987V82.332C25.9987 84.7154 27.9487 86.6654 30.332 86.6654ZM25.9987 47.6654C25.9987 45.282 27.9487 43.332 30.332 43.332H25.9987V47.6654ZM77.9987 47.6654V43.332H73.6654C76.0487 43.332 77.9987 45.282 77.9987 47.6654Z" fill="white"/>
<path d="M21.6654 38.9987H30.332V51.9987H21.6654V38.9987Z" fill="white"/>
<path d="M21.6654 77.9987H30.332V90.9987H21.6654V77.9987Z" fill="white"/>
<path d="M69.332 38.9987H82.332V51.9987H69.332V38.9987Z" fill="white"/>
<path d="M73.6654 77.9987H82.332V90.9987H73.6654V77.9987Z" fill="white"/>
</svg>
