<svg width="20" height="20" viewBox="0 0 20 20" fill="none" xmlns="http://www.w3.org/2000/svg">
<path fill-rule="evenodd" clip-rule="evenodd" d="M10.1833 2C7.92358 2 6.09169 3.83188 6.09169 6.09163V8.18291H5.54596C4.69223 8.18291 4.00014 8.87499 4.00014 9.72872V14.912C4.00014 16.6194 5.38431 18.0036 7.09177 18.0036H13.275C14.9825 18.0036 16.3667 16.6194 16.3667 14.912V9.72872C16.3667 8.87499 15.6746 8.18291 14.8208 8.18291H14.275V6.09163C14.275 3.83188 12.4431 2 10.1833 2ZM12.275 8.18291V6.09163C12.275 4.93645 11.3385 4 10.1833 4C9.02815 4 8.09169 4.93645 8.09169 6.09163V8.18291H12.275ZM11.7292 13.5933C11.7292 14.447 11.0371 15.1391 10.1834 15.1391C9.32967 15.1391 8.63758 14.447 8.63758 13.5933C8.63758 12.7395 9.32967 12.0474 10.1834 12.0474C11.0371 12.0474 11.7292 12.7395 11.7292 13.5933Z" fill="#9FA4B1"/>
</svg>
