<svg width="104" height="104" viewBox="0 0 104 104" fill="none" xmlns="http://www.w3.org/2000/svg">
<path d="M78.217 92.2554C76.527 93.9454 73.797 93.9454 72.107 92.2554L62.9203 83.0687C61.2303 81.3787 61.2303 78.6487 62.9203 76.9587C64.6103 75.2687 67.3403 75.2687 69.0303 76.9587L75.1403 83.0687L90.4803 67.7287C92.1703 66.0387 94.9003 66.0387 96.5903 67.7287C98.2803 69.4187 98.2803 72.1487 96.5903 73.8387L78.217 92.2554ZM52.347 86.6654H17.3337C12.567 86.6654 8.66699 82.7654 8.66699 77.9987V25.9987C8.66699 21.232 12.567 17.332 17.3337 17.332H86.667C91.4337 17.332 95.3337 21.232 95.3337 25.9987V54.9454C91.3903 53.082 87.0137 51.9987 82.3337 51.9987C65.5637 51.9987 52.0003 65.562 52.0003 82.332C52.0003 83.8054 52.1303 85.2354 52.347 86.6654ZM49.7037 54.902C51.0903 55.7687 52.9103 55.7687 54.297 54.902L84.9337 35.7487C86.017 35.0554 86.667 33.8854 86.667 32.6287C86.667 29.7254 83.5037 27.992 81.0337 29.5087L52.0003 47.6654L22.967 29.5087C20.497 27.992 17.3337 29.7254 17.3337 32.6287C17.3337 33.8854 17.9837 35.0554 19.067 35.7487L49.7037 54.902Z" fill="white"/>
</svg>
