<svg width="30" height="30" viewBox="0 0 30 30" fill="none" xmlns="http://www.w3.org/2000/svg">
<path d="M18.3379 11.2344L15.3359 22.4378C15.304 22.557 15.302 22.6823 15.3301 22.8026C15.3582 22.9228 15.4155 23.0342 15.497 23.127L16.3146 24.0573C16.394 24.1476 16.4938 24.2175 16.6058 24.2611C16.7178 24.3047 16.8387 24.3208 16.9582 24.3079C17.0777 24.2951 17.1923 24.2537 17.2925 24.1873C17.3926 24.1208 17.4754 24.0313 17.5337 23.9262L20.019 19.4494" stroke="white" stroke-width="3" stroke-linecap="round" stroke-linejoin="round"/>
<path d="M20.0188 19.4504C20.9795 19.7078 22.0031 19.5731 22.8644 19.0758C23.7257 18.5785 24.3542 17.7594 24.6116 16.7988C24.869 15.8381 24.7342 14.8145 24.237 13.9532C23.7397 13.0919 22.9206 12.4634 21.9599 12.206L18.3377 11.2354C18.3377 11.2354 13.4068 9.91417 9.72812 4.66303C9.64639 4.54593 9.53292 4.45461 9.40106 4.3998C9.2692 4.34498 9.12443 4.32896 8.98377 4.35361C8.84312 4.37827 8.71242 4.44258 8.60707 4.53897C8.50171 4.63536 8.42606 4.75984 8.38903 4.89775L4.61194 18.9941C4.57505 19.132 4.57832 19.2776 4.62137 19.4138C4.66441 19.55 4.74544 19.671 4.85493 19.7627C4.96441 19.8543 5.0978 19.9129 5.2394 19.9313C5.38101 19.9498 5.52494 19.9274 5.65427 19.8669C11.4657 17.1586 16.3966 18.4798 16.3966 18.4798L20.0188 19.4504Z" stroke="white" stroke-width="3" stroke-linecap="round" stroke-linejoin="round"/>
</svg>
