<svg width="24" height="24" viewBox="0 0 24 24" fill="none" xmlns="http://www.w3.org/2000/svg">
<path d="M12 17.25C14.8995 17.25 17.25 14.8995 17.25 12C17.25 9.10051 14.8995 6.75 12 6.75C9.10051 6.75 6.75 9.10051 6.75 12C6.75 14.8995 9.10051 17.25 12 17.25Z" stroke="#5A6275" stroke-width="2" stroke-linecap="round" stroke-linejoin="round"/>
<path d="M20.2498 11.2498L21.2161 9.80035C21.279 9.70697 21.3207 9.60088 21.338 9.4896C21.3554 9.37832 21.348 9.26458 21.3165 9.15647C21.1342 8.55619 20.8939 7.97507 20.5991 7.42132C20.5451 7.32274 20.47 7.23731 20.3791 7.17111C20.2883 7.10491 20.184 7.05958 20.0736 7.03837L18.3638 6.69638L17.3031 5.63574L16.9611 3.92586C16.9399 3.81548 16.8946 3.71114 16.8284 3.62029C16.7622 3.52945 16.6767 3.45434 16.5782 3.40034C16.0244 3.10556 15.4432 2.86534 14.843 2.68307C14.7348 2.65152 14.6211 2.64415 14.5098 2.6615C14.3985 2.67885 14.2925 2.72048 14.1991 2.78345L12.7498 3.74966H11.2498L9.80045 2.78345C9.70707 2.72048 9.60097 2.67885 9.4897 2.6615C9.37842 2.64415 9.26468 2.65152 9.15657 2.68307C8.55629 2.86534 7.97516 3.10556 7.42138 3.40033C7.32279 3.45434 7.23734 3.52945 7.17113 3.62029C7.10493 3.71114 7.0596 3.81549 7.03839 3.92588L6.69648 5.63564L5.63575 6.69637L3.92597 7.03828C3.81558 7.05949 3.71124 7.10482 3.6204 7.17102C3.52955 7.23722 3.45444 7.32266 3.40044 7.42124C3.10562 7.97503 2.86536 8.55617 2.68306 9.15648C2.65151 9.26459 2.64415 9.37832 2.6615 9.4896C2.67886 9.60087 2.72049 9.70696 2.78346 9.80034L3.74967 11.2497V12.7497L2.78345 14.199C2.72049 14.2924 2.67886 14.3984 2.66151 14.5097C2.64416 14.621 2.65152 14.7347 2.68307 14.8428C2.86532 15.4431 3.10554 16.0243 3.40033 16.5781C3.45434 16.6767 3.52945 16.7621 3.62029 16.8283C3.71114 16.8945 3.81547 16.9398 3.92586 16.961L5.63575 17.303L6.69639 18.3637L7.0383 20.0736C7.05951 20.1839 7.10484 20.2883 7.17103 20.3791C7.23723 20.47 7.32267 20.5451 7.42125 20.5991C7.975 20.8939 8.55613 21.1341 9.15642 21.3164C9.26452 21.3479 9.37825 21.3553 9.48952 21.3379C9.60079 21.3206 9.70687 21.2789 9.80024 21.216L11.2497 20.2498H12.7497L14.1991 21.216C14.2925 21.279 14.3985 21.3206 14.5098 21.338C14.6211 21.3553 14.7348 21.348 14.8429 21.3164C15.4432 21.1342 16.0243 20.894 16.5781 20.5992C16.6767 20.5452 16.7621 20.4701 16.8283 20.3792C16.8945 20.2884 16.9398 20.184 16.961 20.0737L17.303 18.3638L18.3637 17.303L20.0736 16.9611C20.1839 16.9399 20.2883 16.8946 20.3791 16.8284C20.47 16.7622 20.5451 16.6767 20.5991 16.5782C20.8939 16.0244 21.1342 15.4433 21.3165 14.843C21.348 14.7349 21.3554 14.6212 21.338 14.5099C21.3207 14.3986 21.279 14.2925 21.2161 14.1992L20.2498 12.7498V11.2498Z" stroke="#5A6275" stroke-width="2" stroke-linecap="round" stroke-linejoin="round"/>
</svg>
