<svg width="155" height="125" viewBox="0 0 155 125" fill="none" xmlns="http://www.w3.org/2000/svg">
<path d="M66.5725 4.57445C63.6275 1.62945 59.675 0.00195312 55.5675 0.00195312H15.5C6.975 0.00195312 0.0774999 6.97695 0.0774999 15.502L0 108.502C0 117.027 6.975 124.002 15.5 124.002H139.5C148.025 124.002 155 117.027 155 108.502V31.002C155 22.477 148.025 15.502 139.5 15.502H77.5L66.5725 4.57445Z" fill="#DBDFEA"/>
<path d="M72.2471 98.4279C72.2279 98.1718 72.4379 97.9629 72.6947 97.9629H84.1647C84.4215 97.9629 84.6315 98.1718 84.6123 98.4279C84.3725 101.623 81.6833 104.163 78.4297 104.163C75.1761 104.163 72.4869 101.623 72.2471 98.4279ZM66.0297 91.7629C66.0297 93.4679 67.4247 94.8629 69.1297 94.8629H87.7297C89.4347 94.8629 90.8297 93.4679 90.8297 91.7629C90.8297 90.0579 89.4347 88.6629 87.7297 88.6629H69.1297C67.4247 88.6629 66.0297 90.0579 66.0297 91.7629ZM101.68 65.4129C101.68 77.137 93.5971 83.4524 90.0969 85.5023C90.0265 85.5436 89.9498 85.5629 89.8682 85.5629H66.9911C66.9096 85.5629 66.8328 85.5436 66.7625 85.5023C63.2623 83.4524 55.1797 77.137 55.1797 65.4129C55.1797 52.5789 65.5957 42.1629 78.4297 42.1629C91.2637 42.1629 101.68 52.5789 101.68 65.4129ZM116.849 58.6536C116.802 58.7544 116.721 58.8354 116.62 58.8818L113.448 60.3404C113.087 60.5064 113.087 61.0194 113.448 61.1854L116.62 62.644C116.721 62.6904 116.802 62.7713 116.849 62.8722L118.307 66.0442C118.473 66.4052 118.986 66.4052 119.152 66.0442L120.611 62.8722C120.657 62.7713 120.738 62.6904 120.839 62.644L124.011 61.1854C124.372 61.0194 124.372 60.5064 124.011 60.3404L120.839 58.8818C120.738 58.8354 120.657 58.7544 120.611 58.6536L119.152 55.4816C118.986 55.1206 118.473 55.1206 118.307 55.4816L116.849 58.6536ZM109.007 53.6358C109.172 53.9984 109.687 53.9984 109.853 53.6358L112.272 48.3348C112.318 48.233 112.4 48.1513 112.502 48.1048L117.803 45.6859C118.165 45.5205 118.165 45.0053 117.803 44.8399L112.502 42.421C112.4 42.3745 112.318 42.2928 112.272 42.191L109.853 36.89C109.687 36.5274 109.172 36.5274 109.007 36.89L106.588 42.191C106.541 42.2928 106.46 42.3745 106.358 42.421L101.057 44.8399C100.694 45.0053 100.694 45.5205 101.057 45.6859L106.358 48.1048C106.46 48.1513 106.541 48.233 106.588 48.3348L109.007 53.6358Z" fill="white"/>
</svg>
