<svg width="65" height="64" viewBox="0 0 65 64" fill="none" xmlns="http://www.w3.org/2000/svg">
<g clip-path="url(#clip0)">
<path fill-rule="evenodd" clip-rule="evenodd" d="M31.6193 7.65919C30.9484 7.5044 30.2789 7.92188 30.1237 8.59278C29.9684 9.26368 30.3868 9.9336 31.0577 10.0889C34.1593 10.8057 36.9943 12.3804 39.2555 14.6416C45.9034 21.2896 45.9034 32.1074 39.2555 38.7554C32.6075 45.4038 21.7897 45.4038 15.1417 38.7554C8.49329 32.1074 8.49329 21.2896 15.1417 14.6416C17.0504 12.7329 19.3092 11.3408 21.8556 10.5029C22.5094 10.2881 22.8654 9.58351 22.6505 8.92921C22.4352 8.27491 21.7301 7.91896 21.0763 8.13429C18.1554 9.09474 15.5656 10.6909 13.3785 12.8784C5.75793 20.499 5.75793 32.8984 13.3785 40.5191C17.1886 44.3291 22.1935 46.2344 27.1989 46.2344C32.2037 46.2339 37.2086 44.3291 41.0192 40.5191C48.6393 32.8984 48.6393 20.499 41.0192 12.8784C38.4269 10.2866 35.1769 8.48146 31.6193 7.65919Z" fill="#9FA4B1"/>
<path fill-rule="evenodd" clip-rule="evenodd" d="M62.8018 54.0884L49.7354 41.022C56.4355 30.5151 54.9683 16.7114 46.0771 7.81982C41.0347 2.77734 34.3301 0 27.1987 0C20.0669 0 13.3623 2.77734 8.31982 7.81982C3.27686 12.8623 0.5 19.5669 0.5 26.6987C0.5 33.8301 3.27686 40.5347 8.31982 45.5771C13.3623 50.6196 20.0664 53.3965 27.1978 53.3965C32.3159 53.3965 37.2461 51.9609 41.522 49.2354L54.5884 62.3018C55.6816 63.3955 57.1401 63.9976 58.6953 63.9976C60.25 63.9976 61.7085 63.3955 62.8022 62.3018C65.0659 60.0371 65.0659 56.353 62.8018 54.0884ZM61.0386 60.5386C60.416 61.1606 59.584 61.5034 58.6953 61.5034C57.8062 61.5034 56.9741 61.1606 56.3516 60.5386L42.5635 46.7505C42.3223 46.5088 42.0029 46.3853 41.6816 46.3853C41.4346 46.3853 41.1865 46.458 40.9712 46.6074C36.9199 49.4175 32.1567 50.9028 27.1978 50.9028C20.7324 50.9028 14.6543 48.3853 10.083 43.814C0.645508 34.3765 0.645508 19.0205 10.083 9.58301C14.6548 5.01123 20.7329 2.49365 27.1987 2.49365C33.6641 2.49365 39.7422 5.01123 44.314 9.58301C52.5991 17.8687 53.7744 30.8589 47.1074 40.4712C46.7637 40.9668 46.8237 41.6367 47.2505 42.0635L61.0386 55.8516C62.3306 57.1436 62.3306 59.2461 61.0386 60.5386Z" fill="#9FA4B1"/>
<path fill-rule="evenodd" clip-rule="evenodd" d="M34.7255 19.1718C34.2386 18.6849 33.4496 18.6849 32.9623 19.1718L27.1986 24.9354L21.4344 19.1718C20.9476 18.6849 20.1581 18.6849 19.6713 19.1718C19.1844 19.6586 19.1844 20.4481 19.6713 20.9349L25.4349 26.6991L19.6713 32.4628C19.1844 32.9496 19.1844 33.7391 19.6713 34.226C19.9144 34.4696 20.2338 34.5912 20.5526 34.5912C20.8719 34.5912 21.1908 34.4696 21.4344 34.226L27.1981 28.4623L32.9618 34.226C33.2054 34.4696 33.5248 34.5912 33.8436 34.5912C34.163 34.5912 34.4818 34.4696 34.7255 34.226C35.2123 33.7391 35.2123 32.9496 34.7255 32.4628L28.9613 26.6991L34.7255 20.9349C35.2123 20.4481 35.2123 19.6586 34.7255 19.1718Z" fill="#9FA4B1"/>
<path fill-rule="evenodd" clip-rule="evenodd" d="M26.3721 9.66553C27.0586 9.66553 27.6187 9.10547 27.6187 8.41846C27.6187 7.73193 27.0586 7.17188 26.3721 7.17188C25.6851 7.17188 25.125 7.73193 25.125 8.41846C25.125 9.10547 25.6851 9.66553 26.3721 9.66553Z" fill="#9FA4B1"/>
</g>
<defs>
<clipPath id="clip0">
<rect width="64" height="64" fill="white" transform="translate(0.5)"/>
</clipPath>
</defs>
</svg>
