<svg width="16" height="16" viewBox="0 0 16 16" fill="none" xmlns="http://www.w3.org/2000/svg">
    <path fill-rule="evenodd" clip-rule="evenodd" d="M11.1356 2.47386L10.9428 2.66669L13.3333 5.05722L13.5256 4.86494L13.5262 4.86438L13.5314 4.8588C13.5379 4.85193 13.5493 4.83948 13.5645 4.82187C13.5952 4.78647 13.6406 4.73124 13.6919 4.65941C13.7963 4.51314 13.9154 4.31226 13.9925 4.08087C14.0687 3.85226 14.0999 3.60728 14.0494 3.35473C13.9999 3.10709 13.8628 2.80561 13.5286 2.47143C13.1944 2.13725 12.8929 2.00015 12.6453 1.95062C12.3927 1.90011 12.1477 1.93128 11.9191 2.00748C11.6877 2.08461 11.4869 2.20366 11.3406 2.30814C11.2688 2.35945 11.2135 2.40478 11.1781 2.43546C11.1605 2.45072 11.1481 2.46214 11.1412 2.46856L11.1356 2.47386ZM12.3905 6.00002L9.99998 3.6095L2.66665 10.9428V13.3334H5.05717L12.3905 6.00002ZM12.9068 0.64318C13.4404 0.749902 13.9722 1.02947 14.4714 1.52862C14.9705 2.02778 15.2501 2.55963 15.3568 3.09324C15.4626 3.62193 15.3896 4.10613 15.2574 4.50251C15.1262 4.89613 14.9328 5.21608 14.7768 5.43439C14.6979 5.54485 14.6261 5.63285 14.5721 5.69511C14.5451 5.72632 14.5223 5.75131 14.5051 5.76967C14.4965 5.77886 14.4893 5.78641 14.4837 5.79227L14.4763 5.79979L14.4735 5.8026L14.4724 5.80376L14.4719 5.80428C14.4716 5.80453 14.4714 5.80476 14 5.33336L14.4714 5.80476L5.80472 14.4714C5.67969 14.5964 5.51012 14.6667 5.33331 14.6667H1.99998C1.63179 14.6667 1.33331 14.3682 1.33331 14V10.6667C1.33331 10.4899 1.40355 10.3203 1.52858 10.1953L10.1952 1.52862L10.6666 2.00003C10.1952 1.52862 10.1955 1.52838 10.1957 1.52814L10.1962 1.52762L10.1974 1.52647L10.2002 1.52369L10.2077 1.51635C10.2136 1.51068 10.2211 1.50346 10.2303 1.49487C10.2487 1.47769 10.2737 1.45492 10.3049 1.42787C10.3672 1.37392 10.4552 1.30206 10.5656 1.22316C10.7839 1.06722 11.1039 0.873775 11.4975 0.74257C11.8939 0.610441 12.3781 0.537441 12.9068 0.64318Z" fill="#0ACCDA"/>
</svg>
