<svg width="30" height="30" viewBox="0 0 30 30" fill="none" xmlns="http://www.w3.org/2000/svg">
<g clip-path="url(#clip0_12155_49353)">
<path d="M21.387 3.11155H20.3284L20.3053 3.09595C19.4409 2.49895 17.7584 1.33923 15.4546 1.6708C15.4584 1.67607 15.4601 1.68223 15.4636 1.6875C13.7548 1.97051 11.8412 3.30293 11.2027 5.10008C10.5868 6.83152 11.0634 8.91409 12.6208 11.2918L15.0024 14.9309C18.6037 13.1302 18.475 10.3871 18.3983 8.7482C18.3869 8.50672 18.3794 8.33203 18.3794 8.17691C18.3794 7.71021 18.7571 7.33272 19.2236 7.33272C19.6903 7.33272 20.0678 7.71021 20.0678 8.17691C20.0678 8.30808 20.0752 8.4564 20.0827 8.61724C20.1684 10.4476 20.3416 14.1491 15.7576 16.441C15.4715 16.5843 14.9969 16.8667 14.7082 16.8667C14.4311 16.8667 14.1615 16.7306 14.0009 16.485L11.2077 12.2168C9.34688 9.37398 8.80943 6.78933 9.61143 4.5345C9.79007 4.03242 10.0362 3.60044 10.3047 3.199C4.875 3.8551 0.605495 8.492 0.603298 14.2084C0.583303 15.0594 0.565725 17.6489 2.82232 20.9747C3.61048 22.1372 4.02774 23.5899 4.02774 25.1761V27.5942C4.02774 28.0609 4.40523 28.4383 4.87193 28.4383H8.24868C8.71538 28.4383 9.08167 28.0609 9.08167 27.5942V23.373H12.4699V27.5942C12.4699 28.0609 12.8476 28.4383 13.3143 28.4383H16.691C17.1577 28.4383 17.524 28.0609 17.524 27.5942C17.524 24.3202 18.2056 21.3878 19.5857 18.6284L20.5446 16.7107L22.1736 16.982C23.3995 17.1864 24.2892 18.2367 24.2892 19.4801V20.8404C24.2892 21.5321 23.3402 21.9278 22.848 21.4372C22.5184 21.1074 21.984 21.1074 21.6542 21.4372L19.2682 23.8232C18.9386 24.153 18.9386 24.6872 19.2682 25.017C20.6971 26.4474 22.7342 27.031 24.7128 26.5777C27.2291 26.0014 29.3996 23.2064 29.3996 20.475V11.0788C29.3996 6.6854 25.7807 3.11155 21.387 3.11155ZM23.445 11.5539C22.9789 11.5539 22.6008 11.1757 22.6008 10.7095C22.6008 10.2432 22.9789 9.86529 23.445 9.86529C23.9112 9.86529 24.2894 10.2432 24.2894 10.7095C24.2894 11.1757 23.9112 11.5539 23.445 11.5539Z" fill="#7A5AD6"/>
</g>
<defs>
<clipPath id="clip0_12155_49353">
<rect width="28.8" height="28.8" fill="white" transform="translate(0.599609 0.599854)"/>
</clipPath>
</defs>
</svg>
