<svg width="64" height="64" viewBox="0 0 64 64" fill="none" xmlns="http://www.w3.org/2000/svg">
<g clip-path="url(#clip0)">
<path d="M11.2471 22.4644C11.2471 23.4995 12.0864 24.3389 13.1216 24.3389C14.1567 24.3389 14.9961 23.4995 14.9961 22.4644C14.9961 21.4292 14.1567 20.5898 13.1216 20.5898C12.0864 20.5898 11.2471 21.4292 11.2471 22.4644Z" fill="#777BB3"/>
<path d="M17.6909 5.5937H20.1664C20.184 5.58149 20.2016 5.56929 20.2197 5.55708C22.5756 3.93306 26.9609 0.911092 33.2284 2.91158C33.391 2.96382 35.7157 3.727 38.0448 5.5937H39.6146C53.0516 5.5937 63.9832 16.5253 63.9832 29.9623C63.9832 30.0346 63.9862 30.1249 63.9886 30.2333C64.034 32.1225 64.1722 37.871 59.1634 45.2562C57.4115 47.8387 56.4857 51.0648 56.4852 54.5853V59.9544C56.4852 60.9896 55.6463 61.8289 54.6107 61.8289H46.9877C45.9525 61.8289 45.1132 60.9896 45.1132 59.9544V50.5819H37.6151V59.9544C37.6151 60.9896 36.7758 61.8289 35.7406 61.8289H28.1176C27.0824 61.8289 26.2431 60.9896 26.2431 59.9544C26.2431 52.6839 24.7543 46.1722 21.6918 40.0463L19.5619 35.7875L15.9457 36.3905C13.2231 36.8441 11.247 39.1771 11.247 41.9374V44.9584C11.247 45.9921 12.0878 46.8329 13.1215 46.8329C13.622 46.8329 14.0927 46.6376 14.4467 46.2836C15.1782 45.5521 16.3661 45.5516 17.0976 46.2836L22.3959 51.5819C23.1279 52.3138 23.1279 53.5008 22.3959 54.2328C19.2787 57.3509 14.7807 58.722 10.3081 57.6976C4.47702 56.3626 -3.05176e-05 50.0345 -3.05176e-05 44.1468V23.2841C-3.05176e-05 13.5297 7.93599 5.5937 17.6909 5.5937ZM3.74899 44.1468C3.74899 48.5165 7.20504 53.141 11.145 54.0433C13.6914 54.6263 16.2109 54.1649 18.2905 52.7782L15.5473 50.035C14.7997 50.3934 13.975 50.5819 13.1215 50.5819C10.021 50.5819 7.498 48.0594 7.498 44.9584V41.9379C7.498 37.3373 10.7919 33.4491 15.33 32.6928L20.3115 31.8627C21.1235 31.7269 21.9286 32.1371 22.2963 32.8734L25.0448 38.3705C28.1073 44.4955 29.7221 50.9608 29.9613 58.0804H33.8666V48.7074C33.8666 47.6722 34.7055 46.8329 35.7411 46.8329H39.495C38.3153 45.2655 37.6151 43.3177 37.6151 41.2094C37.6151 40.1742 38.4545 39.3348 39.4896 39.3348C40.5248 39.3348 41.3641 40.1742 41.3641 41.2094C41.3641 44.3104 43.8871 46.8329 46.9877 46.8329C48.0233 46.8329 48.8622 47.6722 48.8622 48.7074V58.0804H52.7362V54.5853C52.7367 50.3119 53.8861 46.3583 56.0604 43.1522C60.3954 36.7606 60.2787 31.9154 60.2406 30.3236C60.2372 30.1796 60.2342 30.059 60.2342 29.9628C60.2342 19.1791 51.9139 10.3027 41.3558 9.41596C41.6791 9.98676 41.9647 10.602 42.1991 11.2631C43.7694 15.686 42.642 20.8656 38.8495 26.6586L33.56 34.7382C33.039 35.5346 32.0043 35.8134 31.1532 35.3881C27.2436 33.433 24.6347 30.7284 23.3989 27.349C22.3627 24.5146 22.4877 21.8442 22.579 19.894C22.6005 19.4389 22.6191 19.0458 22.6191 18.7153C22.6191 17.6801 23.4584 16.8407 24.4936 16.8407C25.5287 16.8407 26.3681 17.6801 26.3681 18.7153C26.3681 19.1337 26.3466 19.5883 26.3241 20.0697C26.1684 23.3901 25.9599 27.8437 31.3788 31.2255L35.7128 24.6049C38.8275 19.8471 39.8222 15.7826 38.6684 12.5234C37.1181 8.1435 32.1381 6.49946 32.0883 6.48384C27.5727 5.04243 24.4281 7.20991 22.3471 8.64448C21.7704 9.04145 21.414 9.3432 20.7446 9.3432H17.6904C10.0029 9.3432 3.74899 15.5971 3.74899 23.2846V44.1468Z" fill="#777BB3"/>
</g>
<defs>
<clipPath id="clip0">
<rect width="64" height="64" fill="white" transform="matrix(-1 0 0 1 64 0)"/>
</clipPath>
</defs>
</svg>
