<svg width="64" height="64" viewBox="0 0 64 64" fill="none" xmlns="http://www.w3.org/2000/svg">
<path d="M54.625 18.25H45.75V9.375C45.75 4.20557 41.5444 0 36.375 0H27.625C22.4556 0 18.25 4.20557 18.25 9.375V18.25H9.375C4.20557 18.25 0 22.4556 0 27.625V36.375C0 41.5444 4.20557 45.75 9.375 45.75H18.25V54.625C18.25 59.7944 22.4556 64 27.625 64H36.375C41.5444 64 45.75 59.7944 45.75 54.625V45.75H54.625C59.7944 45.75 64 41.5444 64 36.375V27.625C64 22.4556 59.7944 18.25 54.625 18.25ZM9.375 42C6.27344 42 3.75 39.4766 3.75 36.375V27.625C3.75 24.5234 6.27344 22 9.375 22H32C33.0356 22 33.875 21.1606 33.875 20.125C33.875 19.0894 33.0356 18.25 32 18.25H22V9.375C22 6.27344 24.5234 3.75 27.625 3.75H36.375C39.4766 3.75 42 6.27344 42 9.375V30.125H20.125C19.0894 30.125 18.25 30.9644 18.25 32V42H9.375ZM60.25 36.375C60.25 39.4766 57.7266 42 54.625 42H32C30.9644 42 30.125 42.8394 30.125 43.875C30.125 44.9106 30.9644 45.75 32 45.75H42V54.625C42 57.7266 39.4766 60.25 36.375 60.25H27.625C24.5234 60.25 22 57.7266 22 54.625V33.875H43.875C44.9106 33.875 45.75 33.0356 45.75 32V22H54.625C57.7266 22 60.25 24.5234 60.25 27.625V36.375Z" fill="#558DBB"/>
<path d="M29.5 11.25C29.5 12.2856 28.6606 13.125 27.625 13.125C26.5894 13.125 25.75 12.2856 25.75 11.25C25.75 10.2144 26.5894 9.375 27.625 9.375C28.6606 9.375 29.5 10.2144 29.5 11.25Z" fill="#558DBB"/>
<path d="M38.25 52.75C38.25 53.7856 37.4106 54.625 36.375 54.625C35.3394 54.625 34.5 53.7856 34.5 52.75C34.5 51.7144 35.3394 50.875 36.375 50.875C37.4106 50.875 38.25 51.7144 38.25 52.75Z" fill="#558DBB"/>
</svg>
