<svg width="30" height="30" viewBox="0 0 30 30" fill="none" xmlns="http://www.w3.org/2000/svg">
<g clip-path="url(#clip0_12178_43092)">
<path d="M19.6772 14.1421C21.8639 13.1509 22.1898 5.60642 20.8998 3.38428C19.2146 0.483341 11.2041 1.06589 8.67462 3.13944C8.38419 4.16946 8.41458 6.03869 8.42809 7.52462H16.3677V8.2203H8.42978C8.42978 8.23043 4.89563 8.24225 4.89563 8.24225C-1.19837 8.24225 -1.07172 21.4771 6.96918 21.4771C6.96918 21.4771 7.26467 18.5458 7.78137 17.0768C9.37706 12.543 16.0806 15.7732 19.6772 14.1421ZM11.3645 6.45069C10.4493 6.45069 9.70801 5.70942 9.70801 4.79253C9.70801 3.87734 10.4493 3.13437 11.3645 3.13437C12.2814 3.13437 13.0226 3.87734 13.0226 4.79253C13.0243 5.70773 12.2814 6.45069 11.3645 6.45069Z" fill="#3E77FF"/>
<path d="M22.7543 8.521C22.7543 8.521 22.5433 11.454 22.0266 12.9214C20.4309 17.4535 13.729 14.2249 10.1307 15.8561C7.94569 16.8473 7.61643 24.3917 8.90817 26.6139C10.5917 29.5165 18.6022 28.9339 21.1333 26.8587C21.4237 25.8304 21.3933 23.9611 21.3798 22.4752H13.4386V21.7795H21.3765C21.3765 21.7694 25.2888 21.7576 25.2888 21.7576C30.905 21.7576 31.4082 8.521 22.7543 8.521ZM18.1581 23.2604C19.0733 23.2604 19.8162 24.0017 19.8162 24.9186C19.8162 25.8338 19.0733 26.575 18.1581 26.575C17.2429 26.575 16.5016 25.8338 16.5016 24.9186C16.5016 24.0017 17.2429 23.2604 18.1581 23.2604Z" fill="#FDDC67"/>
</g>
<defs>
<clipPath id="clip0_12178_43092">
<rect width="28.8" height="28.8" fill="white" transform="translate(0.599609 0.599854)"/>
</clipPath>
</defs>
</svg>
