<svg width="14" height="145" viewBox="0 0 14 171" fill="none" xmlns="http://www.w3.org/2000/svg">
<path d="M14 0.0113583C10.5348 2.52797 9.52188 6.69835 8.93546 11.0125C7.81593 19.2095 8.08248 27.4784 8.08248 35.7472C8.08248 46.317 8.18911 56.9587 7.92255 67.5285C7.81593 71.2674 7.44275 74.9345 6.48316 78.4577C5.84342 80.9025 4.7239 82.9157 3.12457 84.3538C2.32491 85.0728 2.32491 85.72 3.07126 86.3671C6.37654 89.2432 7.33613 93.7731 7.60269 98.5906C8.50898 115.344 7.81593 132.098 8.08248 148.851C8.18911 154.316 8.29573 159.852 9.89506 165.029C10.6414 167.546 11.9209 169.487 13.5735 170.997C11.3878 171.069 9.73513 169.775 8.45566 167.618C6.6964 164.742 6.10998 161.218 5.73681 157.623C4.99045 150.577 5.04376 143.386 5.09707 136.268C5.15038 124.907 5.2037 113.475 5.04376 102.114C4.99045 97.6559 4.56396 93.126 2.69808 89.1713C2.11166 87.949 1.36531 86.9423 0.512334 86.0795C0.139157 85.72 -0.340643 85.2885 0.352399 84.5695C4.56396 80.471 4.99045 74.2874 5.04376 68.1756C5.2037 52.9321 5.15039 37.6167 5.2037 22.3733C5.2037 17.1243 5.57687 12.0192 6.85634 6.98597C8.02918 2.67177 10.6947 -0.204351 14 0.0113583Z" fill="#F16635"/>
</svg>
