<svg width="170" height="170" viewBox="0 0 170 170" fill="none" xmlns="http://www.w3.org/2000/svg">
<path d="M68.3369 24.3955L64.4014 34.0948L78.3374 35.9113L94.2473 35.1537L105.313 34.0948L101.823 25.4562L88.4924 25.1561L68.3369 24.3955Z" fill="#D8F5F3"/>
<path d="M69.7045 119.717L80.3111 109.111L93.1905 109.868L100.009 119.717L96.9786 143.961L85.6144 155.325L78.7958 148.507L71.2197 131.839L69.7045 119.717Z" fill="#D8F5F3"/>
<path d="M64.3998 55.3151L75.0064 44.7085L90.9163 39.4052L100.008 48.4965L104.553 53.0422L106.826 76.5283L99.25 84.1044L79.5521 85.6197L71.2183 81.8316L64.3998 55.3151Z" fill="#D8F5F3"/>
<g filter="url(#filter0_d_12685_64526)">
<path d="M67.8535 25.5745C71.0936 18.4121 74.514 12.3675 77.2576 7.93712C77.6247 7.34339 78.0587 6.79483 78.5467 6.30678C80.478 4.37553 83.1554 3.44943 85.8914 3.76687C88.6128 4.08269 91.0026 5.60212 92.4482 7.93672C95.1918 12.3671 98.6119 18.4122 101.852 25.5745L67.8535 25.5745ZM127.449 74.6526C128.455 75.3238 129.13 76.3878 129.307 77.5842L135.149 116.964C135.354 118.345 134.873 119.688 133.941 120.619C133.455 121.105 132.847 121.479 132.151 121.689C130.118 122.3 127.943 121.329 127.043 119.406C126.973 119.258 121.083 106.822 113.998 101.269C111.207 99.0812 108.414 97.6485 106.07 96.7071C105.212 97.9813 104.263 99.1574 103.238 100.251L107.499 108.217C108.208 109.543 108.169 111.144 107.396 112.434C107.214 112.738 106.997 113.015 106.752 113.26C105.959 114.052 104.875 114.513 103.726 114.513L102.768 114.513C104.234 118.862 105.57 124.949 104.646 131.242C103.134 141.541 91.8214 153.537 88.3889 156.969C88.0215 157.337 87.8149 157.534 87.8149 157.534C86.1592 159.12 83.5455 159.122 81.8913 157.534C80.3461 156.052 66.7443 142.718 65.0599 131.242C64.1362 124.95 65.4717 118.861 66.9379 114.513L65.9791 114.513C64.4758 114.513 63.0822 113.723 62.3094 112.434C61.537 111.144 61.4975 109.543 62.2074 108.217L66.4652 100.257C65.4402 99.1655 64.502 97.9788 63.6445 96.7059C61.2962 97.6473 58.5002 99.0808 55.7086 101.269C55.0128 101.814 54.2916 102.459 53.5644 103.187C47.408 109.343 42.7102 119.304 42.6638 119.404C41.7643 121.329 39.5891 122.3 37.5558 121.688C35.5217 121.076 34.2455 119.065 34.5572 116.964L40.3978 77.5846C40.5752 76.3883 41.2509 75.323 42.256 74.6526C42.6271 74.405 44.2336 73.4172 49.3381 71.0773C51.8417 69.9298 54.7147 68.9363 57.134 68.1861C57.4946 55.9976 60.4911 44.3017 64.3133 34.1307L105.391 34.1303C109.213 44.3013 112.21 55.9976 112.571 68.1853C114.99 68.9355 117.863 69.929 120.367 71.0769C125.471 73.4168 127.078 74.4054 127.449 74.6526ZM93.6115 114.513H76.0883C74.733 117.692 72.6267 123.878 73.525 129.999C74.3672 135.738 80.5147 143.543 84.8499 148.293C90.0402 142.629 95.4072 135.262 96.18 130C97.0739 123.91 94.9647 117.702 93.6115 114.513ZM101.626 62.1463C101.626 57.6659 99.8812 53.4541 96.7129 50.2858C93.545 47.1179 89.3323 45.373 84.8527 45.373C80.3719 45.3734 76.1601 47.1175 72.9918 50.2858C69.8235 53.4541 68.0794 57.6659 68.079 62.1467C68.079 66.6272 69.8239 70.8389 72.9918 74.0069C76.1597 77.1748 80.3723 78.9197 84.8523 78.9201C89.3332 78.9197 93.5449 77.1756 96.7133 74.0073C99.8816 70.8389 101.626 66.6267 101.626 62.1463ZM79.0425 56.3356C77.4904 57.8877 76.6361 59.9513 76.6357 62.1459C76.6352 64.3414 77.49 66.4045 79.0421 67.9566C80.5941 69.5087 82.6573 70.3634 84.8531 70.3634C87.0482 70.3634 89.1113 69.5087 90.6634 67.9566C92.2155 66.4045 93.0698 64.341 93.0702 62.1463C93.0706 59.9509 92.2159 57.8877 90.6634 56.3352C89.1113 54.7831 87.0482 53.9284 84.8527 53.9288C82.6577 53.9296 80.5942 54.7839 79.0425 56.3356Z" fill="#0BC3B8"/>
</g>
<defs>
<filter id="filter0_d_12685_64526" x="30.5117" y="3.70508" width="108.684" height="163.02" filterUnits="userSpaceOnUse" color-interpolation-filters="sRGB">
<feFlood flood-opacity="0" result="BackgroundImageFix"/>
<feColorMatrix in="SourceAlpha" type="matrix" values="0 0 0 0 0 0 0 0 0 0 0 0 0 0 0 0 0 0 127 0" result="hardAlpha"/>
<feOffset dy="4"/>
<feGaussianBlur stdDeviation="2"/>
<feComposite in2="hardAlpha" operator="out"/>
<feColorMatrix type="matrix" values="0 0 0 0 0.113725 0 0 0 0 0.360784 0 0 0 0 0.34902 0 0 0 0.24 0"/>
<feBlend mode="normal" in2="BackgroundImageFix" result="effect1_dropShadow_12685_64526"/>
<feBlend mode="normal" in="SourceGraphic" in2="effect1_dropShadow_12685_64526" result="shape"/>
</filter>
</defs>
</svg>
