<svg width="32" height="32" viewBox="0 0 32 32" fill="none" xmlns="http://www.w3.org/2000/svg">
<path d="M11.7566 23.0706C10.3424 27.3133 4.68555 27.3133 4.68555 27.3133C4.68555 27.3133 4.68555 21.6564 8.92819 20.2422" stroke="white" stroke-width="2" stroke-linecap="round" stroke-linejoin="round"/>
<path d="M24.4859 13.1725L16.0006 21.6578L10.3438 16.0009L18.829 7.51564C22.042 4.30262 25.2551 4.33396 26.6253 4.53841C26.8363 4.56986 27.0316 4.66825 27.1824 4.81908C27.3333 4.96991 27.4317 5.16521 27.4631 5.37619C27.6676 6.74646 27.6989 9.95947 24.4859 13.1725Z" stroke="white" stroke-width="2" stroke-linecap="round" stroke-linejoin="round"/>
<path d="M23.0711 14.5859V22.657C23.0711 22.7883 23.0452 22.9184 22.9949 23.0397C22.9447 23.161 22.871 23.2713 22.7782 23.3641L18.7355 27.4068C18.6075 27.5348 18.4471 27.6257 18.2716 27.6697C18.096 27.7137 17.9118 27.7093 17.7386 27.6568C17.5653 27.6044 17.4096 27.5059 17.2879 27.3719C17.1663 27.2379 17.0833 27.0733 17.0478 26.8958L16 21.657" stroke="white" stroke-width="2" stroke-linecap="round" stroke-linejoin="round"/>
<path d="M17.4146 8.92969H9.3435C9.21218 8.92969 9.08214 8.95555 8.96082 9.00581C8.83949 9.05606 8.72925 9.12972 8.63639 9.22258L4.59367 13.2653C4.46569 13.3933 4.37484 13.5536 4.33081 13.7292C4.28679 13.9047 4.29124 14.089 4.34369 14.2622C4.39614 14.4354 4.49463 14.5912 4.62864 14.7128C4.76266 14.8345 4.92718 14.9175 5.10467 14.953L10.3435 16.0008" stroke="white" stroke-width="2" stroke-linecap="round" stroke-linejoin="round"/>
</svg>
