<svg width="620" height="620" viewBox="0 0 620 620" fill="none" xmlns="http://www.w3.org/2000/svg">
<path d="M418.707 552.111H178.663C176.907 552.111 175.46 550.664 175.46 548.907V548.287C175.46 546.531 176.907 545.084 178.663 545.084H418.603C420.36 545.084 421.807 546.531 421.807 548.287V548.907C421.91 550.664 420.463 552.111 418.707 552.111Z" fill="#99ADF9"/>
<path d="M166.677 186.826C166.16 186.826 165.747 186.413 165.747 185.896V181.039C165.747 180.523 166.16 180.109 166.677 180.109C167.193 180.109 167.607 180.523 167.607 181.039V185.896C167.503 186.413 167.09 186.826 166.677 186.826Z" fill="#C5DFFF"/>
<path d="M166.677 230.226C166.16 230.226 165.747 229.813 165.747 229.296V218.446C165.747 217.93 166.16 217.516 166.677 217.516C167.193 217.516 167.607 217.93 167.607 218.446V229.296C167.503 229.813 167.09 230.226 166.677 230.226ZM166.677 208.526C166.16 208.526 165.747 208.113 165.747 207.596V196.746C165.747 196.23 166.16 195.816 166.677 195.816C167.193 195.816 167.607 196.23 167.607 196.746V207.596C167.503 208.113 167.09 208.526 166.677 208.526Z" fill="#C5DFFF"/>
<path d="M178.766 186.826C178.25 186.826 177.836 186.413 177.836 185.896V181.039C177.836 180.523 178.25 180.109 178.766 180.109C179.283 180.109 179.696 180.523 179.696 181.039V185.896C179.696 186.413 179.283 186.826 178.766 186.826Z" fill="#C5DFFF"/>
<path d="M178.766 230.226C178.25 230.226 177.836 229.813 177.836 229.296V218.446C177.836 217.93 178.25 217.516 178.766 217.516C179.283 217.516 179.696 217.93 179.696 218.446V229.296C179.696 229.813 179.283 230.226 178.766 230.226ZM178.766 208.526C178.25 208.526 177.836 208.113 177.836 207.596V196.746C177.836 196.23 178.25 195.816 178.766 195.816C179.283 195.816 179.696 196.23 179.696 196.746V207.596C179.696 208.113 179.283 208.526 178.766 208.526Z" fill="#C5DFFF"/>
<path d="M190.857 186.826C190.34 186.826 189.927 186.413 189.927 185.896V181.039C189.927 180.523 190.34 180.109 190.857 180.109C191.373 180.109 191.787 180.523 191.787 181.039V185.896C191.787 186.413 191.373 186.826 190.857 186.826Z" fill="#C5DFFF"/>
<path d="M190.857 251.823C190.34 251.823 189.927 251.41 189.927 250.893V240.043C189.927 239.526 190.34 239.113 190.857 239.113C191.373 239.113 191.787 239.526 191.787 240.043V250.893C191.787 251.513 191.373 251.823 190.857 251.823ZM190.857 230.226C190.34 230.226 189.927 229.813 189.927 229.296V218.446C189.927 217.93 190.34 217.516 190.857 217.516C191.373 217.516 191.787 217.93 191.787 218.446V229.296C191.787 229.813 191.373 230.226 190.857 230.226ZM190.857 208.526C190.34 208.526 189.927 208.113 189.927 207.596V196.746C189.927 196.23 190.34 195.816 190.857 195.816C191.373 195.816 191.787 196.23 191.787 196.746V207.596C191.787 208.113 191.373 208.526 190.857 208.526Z" fill="#C5DFFF"/>
<path d="M203.05 186.826C202.533 186.826 202.12 186.413 202.12 185.896V181.039C202.12 180.523 202.533 180.109 203.05 180.109C203.567 180.109 203.98 180.523 203.98 181.039V185.896C203.877 186.413 203.463 186.826 203.05 186.826Z" fill="#C5DFFF"/>
<path d="M203.05 251.823C202.533 251.823 202.12 251.41 202.12 250.893V240.043C202.12 239.526 202.533 239.113 203.05 239.113C203.567 239.113 203.98 239.526 203.98 240.043V250.893C203.877 251.513 203.463 251.823 203.05 251.823ZM203.05 230.226C202.533 230.226 202.12 229.813 202.12 229.296V218.446C202.12 217.93 202.533 217.516 203.05 217.516C203.567 217.516 203.98 217.93 203.98 218.446V229.296C203.877 229.813 203.463 230.226 203.05 230.226ZM203.05 208.526C202.533 208.526 202.12 208.113 202.12 207.596V196.746C202.12 196.23 202.533 195.816 203.05 195.816C203.567 195.816 203.98 196.23 203.98 196.746V207.596C203.877 208.113 203.463 208.526 203.05 208.526Z" fill="#C5DFFF"/>
<path d="M215.14 186.826C214.623 186.826 214.21 186.413 214.21 185.896V181.039C214.21 180.523 214.623 180.109 215.14 180.109C215.657 180.109 216.07 180.523 216.07 181.039V185.896C216.07 186.413 215.657 186.826 215.14 186.826Z" fill="#C5DFFF"/>
<path d="M215.14 251.823C214.623 251.823 214.21 251.41 214.21 250.893V240.043C214.21 239.526 214.623 239.113 215.14 239.113C215.657 239.113 216.07 239.526 216.07 240.043V250.893C216.07 251.513 215.657 251.823 215.14 251.823ZM215.14 230.226C214.623 230.226 214.21 229.813 214.21 229.296V218.446C214.21 217.93 214.623 217.516 215.14 217.516C215.657 217.516 216.07 217.93 216.07 218.446V229.296C216.07 229.813 215.657 230.226 215.14 230.226ZM215.14 208.526C214.623 208.526 214.21 208.113 214.21 207.596V196.746C214.21 196.23 214.623 195.816 215.14 195.816C215.657 195.816 216.07 196.23 216.07 196.746V207.596C216.07 208.113 215.657 208.526 215.14 208.526Z" fill="#C5DFFF"/>
<path d="M215.14 267.633C214.623 267.633 214.21 267.219 214.21 266.703V261.846C214.21 261.329 214.623 260.916 215.14 260.916C215.657 260.916 216.07 261.329 216.07 261.846V266.703C216.07 267.219 215.657 267.633 215.14 267.633Z" fill="#C5DFFF"/>
<path d="M227.23 186.826C226.713 186.826 226.3 186.413 226.3 185.896V181.039C226.3 180.523 226.713 180.109 227.23 180.109C227.746 180.109 228.16 180.523 228.16 181.039V185.896C228.16 186.413 227.746 186.826 227.23 186.826Z" fill="#C5DFFF"/>
<path d="M227.23 251.823C226.713 251.823 226.3 251.41 226.3 250.893V240.043C226.3 239.526 226.713 239.113 227.23 239.113C227.746 239.113 228.16 239.526 228.16 240.043V250.893C228.16 251.513 227.746 251.823 227.23 251.823ZM227.23 230.226C226.713 230.226 226.3 229.813 226.3 229.296V218.446C226.3 217.93 226.713 217.516 227.23 217.516C227.746 217.516 228.16 217.93 228.16 218.446V229.296C228.16 229.813 227.746 230.226 227.23 230.226ZM227.23 208.526C226.713 208.526 226.3 208.113 226.3 207.596V196.746C226.3 196.23 226.713 195.816 227.23 195.816C227.746 195.816 228.16 196.23 228.16 196.746V207.596C228.16 208.113 227.746 208.526 227.23 208.526Z" fill="#C5DFFF"/>
<path d="M227.23 267.633C226.713 267.633 226.3 267.219 226.3 266.703V261.846C226.3 261.329 226.713 260.916 227.23 260.916C227.746 260.916 228.16 261.329 228.16 261.846V266.703C228.16 267.219 227.746 267.633 227.23 267.633Z" fill="#C5DFFF"/>
<path d="M257.507 158.307C256.99 158.307 256.577 157.893 256.577 157.377V152.52C256.577 152.003 256.99 151.59 257.507 151.59C258.023 151.59 258.437 152.003 258.437 152.52V157.377C258.437 157.893 258.023 158.307 257.507 158.307Z" fill="#C5DFFF"/>
<path d="M257.507 201.604C256.99 201.604 256.577 201.19 256.577 200.674V189.824C256.577 189.307 256.99 188.894 257.507 188.894C258.023 188.894 258.437 189.307 258.437 189.824V200.674C258.437 201.294 258.023 201.604 257.507 201.604ZM257.507 180.007C256.99 180.007 256.577 179.594 256.577 179.077V168.227C256.577 167.71 256.99 167.297 257.507 167.297C258.023 167.297 258.437 167.71 258.437 168.227V179.077C258.437 179.594 258.023 180.007 257.507 180.007Z" fill="#C5DFFF"/>
<path d="M269.596 158.307C269.08 158.307 268.667 157.893 268.667 157.377V152.52C268.667 152.003 269.08 151.59 269.596 151.59C270.113 151.59 270.526 152.003 270.526 152.52V157.377C270.526 157.893 270.113 158.307 269.596 158.307Z" fill="#C5DFFF"/>
<path d="M269.596 201.604C269.08 201.604 268.667 201.19 268.667 200.674V189.824C268.667 189.307 269.08 188.894 269.596 188.894C270.113 188.894 270.526 189.307 270.526 189.824V200.674C270.526 201.294 270.113 201.604 269.596 201.604ZM269.596 180.007C269.08 180.007 268.667 179.594 268.667 179.077V168.227C268.667 167.71 269.08 167.297 269.596 167.297C270.113 167.297 270.526 167.71 270.526 168.227V179.077C270.526 179.594 270.113 180.007 269.596 180.007Z" fill="#C5DFFF"/>
<path d="M281.79 158.307C281.273 158.307 280.86 157.893 280.86 157.377V152.52C280.86 152.003 281.273 151.59 281.79 151.59C282.307 151.59 282.72 152.003 282.72 152.52V157.377C282.617 157.893 282.203 158.307 281.79 158.307Z" fill="#C5DFFF"/>
<path d="M281.79 223.304C281.273 223.304 280.86 222.89 280.86 222.374V211.524C280.86 211.007 281.273 210.594 281.79 210.594C282.307 210.594 282.72 211.007 282.72 211.524V222.374C282.617 222.994 282.203 223.304 281.79 223.304ZM281.79 201.604C281.273 201.604 280.86 201.19 280.86 200.674V189.824C280.86 189.307 281.273 188.894 281.79 188.894C282.307 188.894 282.72 189.307 282.72 189.824V200.674C282.617 201.294 282.203 201.604 281.79 201.604ZM281.79 180.007C281.273 180.007 280.86 179.594 280.86 179.077V168.227C280.86 167.71 281.273 167.297 281.79 167.297C282.307 167.297 282.72 167.71 282.72 168.227V179.077C282.617 179.594 282.203 180.007 281.79 180.007Z" fill="#C5DFFF"/>
<path d="M318.06 158.307C317.543 158.307 317.13 157.893 317.13 157.377V152.52C317.13 152.003 317.543 151.59 318.06 151.59C318.577 151.59 318.99 152.003 318.99 152.52V157.377C318.99 157.893 318.577 158.307 318.06 158.307Z" fill="#C5DFFF"/>
<path d="M318.06 223.304C317.543 223.304 317.13 222.89 317.13 222.374V211.524C317.13 211.007 317.543 210.594 318.06 210.594C318.577 210.594 318.99 211.007 318.99 211.524V222.374C318.99 222.994 318.577 223.304 318.06 223.304ZM318.06 201.604C317.543 201.604 317.13 201.19 317.13 200.674V189.824C317.13 189.307 317.543 188.894 318.06 188.894C318.577 188.894 318.99 189.307 318.99 189.824V200.674C318.99 201.294 318.577 201.604 318.06 201.604ZM318.06 180.007C317.543 180.007 317.13 179.594 317.13 179.077V168.227C317.13 167.71 317.543 167.297 318.06 167.297C318.577 167.297 318.99 167.71 318.99 168.227V179.077C318.99 179.594 318.577 180.007 318.06 180.007Z" fill="#C5DFFF"/>
<path d="M329.943 158.307C329.427 158.307 329.013 157.893 329.013 157.377V152.52C329.013 152.003 329.427 151.59 329.943 151.59C330.46 151.59 330.873 152.003 330.873 152.52V157.377C330.77 157.893 330.357 158.307 329.943 158.307Z" fill="#C5DFFF"/>
<path d="M329.943 223.304C329.427 223.304 329.013 222.89 329.013 222.374V211.524C329.013 211.007 329.427 210.594 329.943 210.594C330.46 210.594 330.873 211.007 330.873 211.524V222.374C330.77 222.994 330.357 223.304 329.943 223.304ZM329.943 201.604C329.427 201.604 329.013 201.19 329.013 200.674V189.824C329.013 189.307 329.427 188.894 329.943 188.894C330.46 188.894 330.873 189.307 330.873 189.824V200.674C330.77 201.294 330.357 201.604 329.943 201.604ZM329.943 180.007C329.427 180.007 329.013 179.594 329.013 179.077V168.227C329.013 167.71 329.427 167.297 329.943 167.297C330.46 167.297 330.873 167.71 330.873 168.227V179.077C330.77 179.594 330.357 180.007 329.943 180.007Z" fill="#C5DFFF"/>
<path d="M342.034 158.307C341.517 158.307 341.104 157.893 341.104 157.377V152.52C341.104 152.003 341.517 151.59 342.034 151.59C342.55 151.59 342.964 152.003 342.964 152.52V157.377C342.964 157.893 342.55 158.307 342.034 158.307Z" fill="#C5DFFF"/>
<path d="M342.034 223.304C341.517 223.304 341.104 222.89 341.104 222.374V211.524C341.104 211.007 341.517 210.594 342.034 210.594C342.55 210.594 342.964 211.007 342.964 211.524V222.374C342.964 222.994 342.55 223.304 342.034 223.304ZM342.034 201.604C341.517 201.604 341.104 201.19 341.104 200.674V189.824C341.104 189.307 341.517 188.894 342.034 188.894C342.55 188.894 342.964 189.307 342.964 189.824V200.674C342.964 201.294 342.55 201.604 342.034 201.604ZM342.034 180.007C341.517 180.007 341.104 179.594 341.104 179.077V168.227C341.104 167.71 341.517 167.297 342.034 167.297C342.55 167.297 342.964 167.71 342.964 168.227V179.077C342.964 179.594 342.55 180.007 342.034 180.007Z" fill="#C5DFFF"/>
<path d="M354.123 158.307C353.607 158.307 353.193 157.893 353.193 157.377V152.52C353.193 152.003 353.607 151.59 354.123 151.59C354.64 151.59 355.053 152.003 355.053 152.52V157.377C355.053 157.893 354.64 158.307 354.123 158.307Z" fill="#C5DFFF"/>
<path d="M354.123 223.304C353.607 223.304 353.193 222.89 353.193 222.374V211.524C353.193 211.007 353.607 210.594 354.123 210.594C354.64 210.594 355.053 211.007 355.053 211.524V222.374C355.053 222.994 354.64 223.304 354.123 223.304ZM354.123 201.604C353.607 201.604 353.193 201.19 353.193 200.674V189.824C353.193 189.307 353.607 188.894 354.123 188.894C354.64 188.894 355.053 189.307 355.053 189.824V200.674C355.053 201.294 354.64 201.604 354.123 201.604ZM354.123 180.007C353.607 180.007 353.193 179.594 353.193 179.077V168.227C353.193 167.71 353.607 167.297 354.123 167.297C354.64 167.297 355.053 167.71 355.053 168.227V179.077C355.053 179.594 354.64 180.007 354.123 180.007Z" fill="#C5DFFF"/>
<path d="M305.97 242.73C305.453 242.73 305.04 242.316 305.04 241.8V230.95C305.04 230.433 305.453 230.02 305.97 230.02C306.487 230.02 306.9 230.433 306.9 230.95V241.8C306.9 242.316 306.487 242.73 305.97 242.73Z" fill="#C5DFFF"/>
<path d="M318.06 242.73C317.543 242.73 317.13 242.316 317.13 241.8V230.95C317.13 230.433 317.543 230.02 318.06 230.02C318.577 230.02 318.99 230.433 318.99 230.95V241.8C318.99 242.316 318.577 242.73 318.06 242.73Z" fill="#C5DFFF"/>
<path d="M329.943 242.73C329.427 242.73 329.013 242.316 329.013 241.8V230.95C329.013 230.433 329.427 230.02 329.943 230.02C330.46 230.02 330.873 230.433 330.873 230.95V241.8C330.77 242.316 330.357 242.73 329.943 242.73Z" fill="#C5DFFF"/>
<path d="M342.034 264.43C341.517 264.43 341.104 264.016 341.104 263.5V252.65C341.104 252.133 341.517 251.72 342.034 251.72C342.55 251.72 342.964 252.133 342.964 252.65V263.5C342.964 264.016 342.55 264.43 342.034 264.43ZM342.034 242.73C341.517 242.73 341.104 242.316 341.104 241.8V230.95C341.104 230.433 341.517 230.02 342.034 230.02C342.55 230.02 342.964 230.433 342.964 230.95V241.8C342.964 242.316 342.55 242.73 342.034 242.73Z" fill="#C5DFFF"/>
<path d="M354.123 286.13C353.607 286.13 353.193 285.716 353.193 285.2V274.35C353.193 273.833 353.607 273.42 354.123 273.42C354.64 273.42 355.053 273.833 355.053 274.35V285.2C355.053 285.716 354.64 286.13 354.123 286.13ZM354.123 264.43C353.607 264.43 353.193 264.016 353.193 263.5V252.65C353.193 252.133 353.607 251.72 354.123 251.72C354.64 251.72 355.053 252.133 355.053 252.65V263.5C355.053 264.016 354.64 264.43 354.123 264.43ZM354.123 242.73C353.607 242.73 353.193 242.316 353.193 241.8V230.95C353.193 230.433 353.607 230.02 354.123 230.02C354.64 230.02 355.053 230.433 355.053 230.95V241.8C355.053 242.316 354.64 242.73 354.123 242.73Z" fill="#C5DFFF"/>
<path d="M366.317 286.13C365.8 286.13 365.387 285.716 365.387 285.2V274.35C365.387 273.833 365.8 273.42 366.317 273.42C366.833 273.42 367.247 273.833 367.247 274.35V285.2C367.143 285.716 366.73 286.13 366.317 286.13ZM366.317 264.43C365.8 264.43 365.387 264.016 365.387 263.5V252.65C365.387 252.133 365.8 251.72 366.317 251.72C366.833 251.72 367.247 252.133 367.247 252.65V263.5C367.143 264.016 366.73 264.43 366.317 264.43ZM366.317 242.73C365.8 242.73 365.387 242.316 365.387 241.8V230.95C365.387 230.433 365.8 230.02 366.317 230.02C366.833 230.02 367.247 230.433 367.247 230.95V241.8C367.143 242.316 366.73 242.73 366.317 242.73Z" fill="#C5DFFF"/>
<path d="M378.407 286.13C377.89 286.13 377.477 285.716 377.477 285.2V274.35C377.477 273.833 377.89 273.42 378.407 273.42C378.923 273.42 379.337 273.833 379.337 274.35V285.2C379.233 285.716 378.923 286.13 378.407 286.13ZM378.407 264.43C377.89 264.43 377.477 264.016 377.477 263.5V252.65C377.477 252.133 377.89 251.72 378.407 251.72C378.923 251.72 379.337 252.133 379.337 252.65V263.5C379.233 264.016 378.923 264.43 378.407 264.43ZM378.407 242.73C377.89 242.73 377.477 242.316 377.477 241.8V230.95C377.477 230.433 377.89 230.02 378.407 230.02C378.923 230.02 379.337 230.433 379.337 230.95V241.8C379.233 242.316 378.923 242.73 378.407 242.73Z" fill="#C5DFFF"/>
<path d="M378.407 301.836C377.89 301.836 377.477 301.422 377.477 300.906V296.049C377.477 295.532 377.89 295.119 378.407 295.119C378.923 295.119 379.337 295.532 379.337 296.049V300.906C379.233 301.422 378.923 301.836 378.407 301.836Z" fill="#C5DFFF"/>
<path d="M390.496 286.13C389.98 286.13 389.566 285.716 389.566 285.2V274.35C389.566 273.833 389.98 273.42 390.496 273.42C391.013 273.42 391.426 273.833 391.426 274.35V285.2C391.426 285.716 391.013 286.13 390.496 286.13ZM390.496 264.43C389.98 264.43 389.566 264.016 389.566 263.5V252.65C389.566 252.133 389.98 251.72 390.496 251.72C391.013 251.72 391.426 252.133 391.426 252.65V263.5C391.426 264.016 391.013 264.43 390.496 264.43ZM390.496 242.73C389.98 242.73 389.566 242.316 389.566 241.8V230.95C389.566 230.433 389.98 230.02 390.496 230.02C391.013 230.02 391.426 230.433 391.426 230.95V241.8C391.426 242.316 391.013 242.73 390.496 242.73Z" fill="#C5DFFF"/>
<path d="M390.496 301.836C389.98 301.836 389.566 301.422 389.566 300.906V296.049C389.566 295.532 389.98 295.119 390.496 295.119C391.013 295.119 391.426 295.532 391.426 296.049V300.906C391.426 301.422 391.013 301.836 390.496 301.836Z" fill="#C5DFFF"/>
<path d="M366.317 158.307C365.8 158.307 365.387 157.893 365.387 157.377V152.52C365.387 152.003 365.8 151.59 366.317 151.59C366.833 151.59 367.247 152.003 367.247 152.52V157.377C367.143 157.893 366.73 158.307 366.317 158.307Z" fill="#C5DFFF"/>
<path d="M366.317 223.304C365.8 223.304 365.387 222.89 365.387 222.374V211.524C365.387 211.007 365.8 210.594 366.317 210.594C366.833 210.594 367.247 211.007 367.247 211.524V222.374C367.143 222.994 366.73 223.304 366.317 223.304ZM366.317 201.604C365.8 201.604 365.387 201.19 365.387 200.674V189.824C365.387 189.307 365.8 188.894 366.317 188.894C366.833 188.894 367.247 189.307 367.247 189.824V200.674C367.143 201.294 366.73 201.604 366.317 201.604ZM366.317 180.007C365.8 180.007 365.387 179.594 365.387 179.077V168.227C365.387 167.71 365.8 167.297 366.317 167.297C366.833 167.297 367.247 167.71 367.247 168.227V179.077C367.143 179.594 366.73 180.007 366.317 180.007Z" fill="#C5DFFF"/>
<path d="M378.407 158.307C377.89 158.307 377.477 157.893 377.477 157.377V152.52C377.477 152.003 377.89 151.59 378.407 151.59C378.923 151.59 379.337 152.003 379.337 152.52V157.377C379.233 157.893 378.923 158.307 378.407 158.307Z" fill="#C5DFFF"/>
<path d="M378.407 223.304C377.89 223.304 377.477 222.89 377.477 222.374V211.524C377.477 211.007 377.89 210.594 378.407 210.594C378.923 210.594 379.337 211.007 379.337 211.524V222.374C379.233 222.994 378.923 223.304 378.407 223.304ZM378.407 201.604C377.89 201.604 377.477 201.19 377.477 200.674V189.824C377.477 189.307 377.89 188.894 378.407 188.894C378.923 188.894 379.337 189.307 379.337 189.824V200.674C379.233 201.294 378.923 201.604 378.407 201.604ZM378.407 180.007C377.89 180.007 377.477 179.594 377.477 179.077V168.227C377.477 167.71 377.89 167.297 378.407 167.297C378.923 167.297 379.337 167.71 379.337 168.227V179.077C379.233 179.594 378.923 180.007 378.407 180.007Z" fill="#C5DFFF"/>
<path d="M390.496 158.307C389.98 158.307 389.566 157.893 389.566 157.377V152.52C389.566 152.003 389.98 151.59 390.496 151.59C391.013 151.59 391.426 152.003 391.426 152.52V157.377C391.426 157.893 391.013 158.307 390.496 158.307Z" fill="#C5DFFF"/>
<path d="M390.496 223.304C389.98 223.304 389.566 222.89 389.566 222.374V211.524C389.566 211.007 389.98 210.594 390.496 210.594C391.013 210.594 391.426 211.007 391.426 211.524V222.374C391.426 222.994 391.013 223.304 390.496 223.304ZM390.496 201.604C389.98 201.604 389.566 201.19 389.566 200.674V189.824C389.566 189.307 389.98 188.894 390.496 188.894C391.013 188.894 391.426 189.307 391.426 189.824V200.674C391.426 201.294 391.013 201.604 390.496 201.604ZM390.496 180.007C389.98 180.007 389.566 179.594 389.566 179.077V168.227C389.566 167.71 389.98 167.297 390.496 167.297C391.013 167.297 391.426 167.71 391.426 168.227V179.077C391.426 179.594 391.013 180.007 390.496 180.007Z" fill="#C5DFFF"/>
<path d="M293.88 158.307C293.364 158.307 292.95 157.893 292.95 157.377V152.52C292.95 152.003 293.364 151.59 293.88 151.59C294.397 151.59 294.81 152.003 294.81 152.52V157.377C294.707 157.893 294.397 158.307 293.88 158.307Z" fill="#C5DFFF"/>
<path d="M293.88 223.304C293.364 223.304 292.95 222.89 292.95 222.374V211.524C292.95 211.007 293.364 210.594 293.88 210.594C294.397 210.594 294.81 211.007 294.81 211.524V222.374C294.707 222.994 294.397 223.304 293.88 223.304ZM293.88 201.604C293.364 201.604 292.95 201.19 292.95 200.674V189.824C292.95 189.307 293.364 188.894 293.88 188.894C294.397 188.894 294.81 189.307 294.81 189.824V200.674C294.707 201.294 294.397 201.604 293.88 201.604ZM293.88 180.007C293.364 180.007 292.95 179.594 292.95 179.077V168.227C292.95 167.71 293.364 167.297 293.88 167.297C294.397 167.297 294.81 167.71 294.81 168.227V179.077C294.707 179.594 294.397 180.007 293.88 180.007Z" fill="#C5DFFF"/>
<path d="M305.97 158.307C305.453 158.307 305.04 157.893 305.04 157.377V152.52C305.04 152.003 305.453 151.59 305.97 151.59C306.487 151.59 306.9 152.003 306.9 152.52V157.377C306.9 157.893 306.487 158.307 305.97 158.307Z" fill="#C5DFFF"/>
<path d="M305.97 223.304C305.453 223.304 305.04 222.89 305.04 222.374V211.524C305.04 211.007 305.453 210.594 305.97 210.594C306.487 210.594 306.9 211.007 306.9 211.524V222.374C306.9 222.994 306.487 223.304 305.97 223.304ZM305.97 201.604C305.453 201.604 305.04 201.19 305.04 200.674V189.824C305.04 189.307 305.453 188.894 305.97 188.894C306.487 188.894 306.9 189.307 306.9 189.824V200.674C306.9 201.294 306.487 201.604 305.97 201.604ZM305.97 180.007C305.453 180.007 305.04 179.594 305.04 179.077V168.227C305.04 167.71 305.453 167.297 305.97 167.297C306.487 167.297 306.9 167.71 306.9 168.227V179.077C306.9 179.594 306.487 180.007 305.97 180.007Z" fill="#C5DFFF"/>
<path d="M417.054 242.42C416.537 242.42 416.124 242.006 416.124 241.49V236.633C416.124 236.116 416.537 235.703 417.054 235.703C417.57 235.703 417.983 236.116 417.983 236.633V241.49C417.88 242.006 417.467 242.42 417.054 242.42Z" fill="#C5DFFF"/>
<path d="M417.054 307.417C416.537 307.417 416.124 307.003 416.124 306.487V295.637C416.124 295.12 416.537 294.707 417.054 294.707C417.57 294.707 417.983 295.12 417.983 295.637V306.487C417.88 307.003 417.467 307.417 417.054 307.417ZM417.054 285.717C416.537 285.717 416.124 285.303 416.124 284.787V273.937C416.124 273.42 416.537 273.007 417.054 273.007C417.57 273.007 417.983 273.42 417.983 273.937V284.787C417.88 285.303 417.467 285.717 417.054 285.717ZM417.054 264.017C416.537 264.017 416.124 263.603 416.124 263.087V252.237C416.124 251.72 416.537 251.307 417.054 251.307C417.57 251.307 417.983 251.72 417.983 252.237V263.087C417.88 263.707 417.467 264.017 417.054 264.017Z" fill="#C5DFFF"/>
<path d="M417.054 323.123C416.537 323.123 416.124 322.71 416.124 322.193V317.336C416.124 316.82 416.537 316.406 417.054 316.406C417.57 316.406 417.983 316.82 417.983 317.336V322.193C417.88 322.813 417.467 323.123 417.054 323.123Z" fill="#C5DFFF"/>
<path d="M429.143 242.42C428.627 242.42 428.213 242.006 428.213 241.49V236.633C428.213 236.116 428.627 235.703 429.143 235.703C429.66 235.703 430.073 236.116 430.073 236.633V241.49C429.97 242.006 429.66 242.42 429.143 242.42Z" fill="#C5DFFF"/>
<path d="M429.143 307.417C428.627 307.417 428.213 307.003 428.213 306.487V295.637C428.213 295.12 428.627 294.707 429.143 294.707C429.66 294.707 430.073 295.12 430.073 295.637V306.487C429.97 307.003 429.66 307.417 429.143 307.417ZM429.143 285.717C428.627 285.717 428.213 285.303 428.213 284.787V273.937C428.213 273.42 428.627 273.007 429.143 273.007C429.66 273.007 430.073 273.42 430.073 273.937V284.787C429.97 285.303 429.66 285.717 429.143 285.717ZM429.143 264.017C428.627 264.017 428.213 263.603 428.213 263.087V252.237C428.213 251.72 428.627 251.307 429.143 251.307C429.66 251.307 430.073 251.72 430.073 252.237V263.087C429.97 263.707 429.66 264.017 429.143 264.017Z" fill="#C5DFFF"/>
<path d="M429.143 323.123C428.627 323.123 428.213 322.71 428.213 322.193V317.336C428.213 316.82 428.627 316.406 429.143 316.406C429.66 316.406 430.073 316.82 430.073 317.336V322.193C429.97 322.813 429.66 323.123 429.143 323.123Z" fill="#C5DFFF"/>
<path d="M441.234 242.42C440.717 242.42 440.304 242.006 440.304 241.49V236.633C440.304 236.116 440.717 235.703 441.234 235.703C441.75 235.703 442.164 236.116 442.164 236.633V241.49C442.164 242.006 441.75 242.42 441.234 242.42Z" fill="#C5DFFF"/>
<path d="M441.234 307.417C440.717 307.417 440.304 307.003 440.304 306.487V295.637C440.304 295.12 440.717 294.707 441.234 294.707C441.75 294.707 442.164 295.12 442.164 295.637V306.487C442.164 307.003 441.75 307.417 441.234 307.417ZM441.234 285.717C440.717 285.717 440.304 285.303 440.304 284.787V273.937C440.304 273.42 440.717 273.007 441.234 273.007C441.75 273.007 442.164 273.42 442.164 273.937V284.787C442.164 285.303 441.75 285.717 441.234 285.717ZM441.234 264.017C440.717 264.017 440.304 263.603 440.304 263.087V252.237C440.304 251.72 440.717 251.307 441.234 251.307C441.75 251.307 442.164 251.72 442.164 252.237V263.087C442.164 263.707 441.75 264.017 441.234 264.017Z" fill="#C5DFFF"/>
<path d="M453.427 242.42C452.91 242.42 452.497 242.006 452.497 241.49V236.633C452.497 236.116 452.91 235.703 453.427 235.703C453.943 235.703 454.357 236.116 454.357 236.633V241.49C454.253 242.006 453.84 242.42 453.427 242.42Z" fill="#C5DFFF"/>
<path d="M453.427 307.417C452.91 307.417 452.497 307.003 452.497 306.487V295.637C452.497 295.12 452.91 294.707 453.427 294.707C453.943 294.707 454.357 295.12 454.357 295.637V306.487C454.253 307.003 453.84 307.417 453.427 307.417ZM453.427 285.717C452.91 285.717 452.497 285.303 452.497 284.787V273.937C452.497 273.42 452.91 273.007 453.427 273.007C453.943 273.007 454.357 273.42 454.357 273.937V284.787C454.253 285.303 453.84 285.717 453.427 285.717ZM453.427 264.017C452.91 264.017 452.497 263.603 452.497 263.087V252.237C452.497 251.72 452.91 251.307 453.427 251.307C453.943 251.307 454.357 251.72 454.357 252.237V263.087C454.253 263.707 453.84 264.017 453.427 264.017Z" fill="#C5DFFF"/>
<path d="M465.517 242.42C465 242.42 464.587 242.006 464.587 241.49V236.633C464.587 236.116 465 235.703 465.517 235.703C466.034 235.703 466.447 236.116 466.447 236.633V241.49C466.344 242.006 466.034 242.42 465.517 242.42Z" fill="#C5DFFF"/>
<path d="M465.517 285.717C465 285.717 464.587 285.303 464.587 284.787V273.937C464.587 273.42 465 273.007 465.517 273.007C466.034 273.007 466.447 273.42 466.447 273.937V284.787C466.344 285.303 466.034 285.717 465.517 285.717ZM465.517 264.017C465 264.017 464.587 263.603 464.587 263.087V252.237C464.587 251.72 465 251.307 465.517 251.307C466.034 251.307 466.447 251.72 466.447 252.237V263.087C466.344 263.707 466.034 264.017 465.517 264.017Z" fill="#C5DFFF"/>
<path d="M477.607 242.42C477.09 242.42 476.677 242.006 476.677 241.49V236.633C476.677 236.116 477.09 235.703 477.607 235.703C478.123 235.703 478.537 236.116 478.537 236.633V241.49C478.537 242.006 478.123 242.42 477.607 242.42Z" fill="#C5DFFF"/>
<path d="M477.607 264.017C477.09 264.017 476.677 263.603 476.677 263.087V252.237C476.677 251.72 477.09 251.307 477.607 251.307C478.123 251.307 478.537 251.72 478.537 252.237V263.087C478.537 263.707 478.123 264.017 477.607 264.017Z" fill="#C5DFFF"/>
<path d="M403.827 141.36C403.827 145.286 364.973 149.523 322.917 149.523C280.86 149.523 249.033 152.416 244.59 146.32C243.97 145.493 243.97 144.666 244.59 143.943C247.69 140.12 265.773 138.88 268.873 138.673C269.183 138.673 269.287 138.673 269.287 138.673C269.287 138.673 256.887 125.033 266.393 113.976C275.9 102.92 286.13 112.633 286.13 112.633C286.13 112.633 282.1 91.4497 293.57 86.1797C293.88 86.0764 294.19 85.8697 294.5 85.7664C306.797 81.4264 311.55 97.2364 311.86 98.063C311.86 98.063 312.17 76.7764 331.08 74.9164C334.283 74.6064 337.177 75.2264 339.657 76.5697C351.54 82.873 354.743 104.056 354.743 104.056C355.57 103.23 364.87 94.4464 374.893 100.13C385.227 106.02 379.543 121.21 379.337 121.623C379.647 121.52 386.983 119.866 389.36 124C391.737 128.236 389.36 134.746 389.36 134.746C389.36 134.746 394.837 135.676 398.97 137.226C401.347 138.156 403.413 139.293 403.723 140.636C403.827 141.05 403.827 141.153 403.827 141.36Z" fill="#273D7A"/>
<path d="M273.213 134.643C275.487 138.88 277.037 140.43 277.037 140.43C277.037 140.43 273.523 140.533 268.77 138.673C269.08 138.673 269.183 138.673 269.183 138.673C269.183 138.673 256.784 125.033 266.29 113.976C275.797 102.92 286.027 112.633 286.027 112.633C286.027 112.633 281.997 91.4497 293.467 86.1797C292.227 88.6597 290.883 92.793 290.987 97.9597C291.193 107.053 294.19 120.073 294.19 120.073C294.19 120.073 281.79 112.943 273.833 115.733C266.083 118.523 270.94 130.51 273.213 134.643Z" fill="#072359"/>
<path d="M403.827 141.359C403.827 145.285 364.973 149.522 322.917 149.522C280.86 149.522 249.033 152.415 244.59 146.319C243.97 145.492 243.97 144.665 244.59 143.942C249.757 145.595 260.297 147.559 280.86 146.835C315.27 145.492 384.4 145.285 401.243 141.565C402.173 141.359 403 141.152 403.827 140.945C403.827 141.049 403.827 141.152 403.827 141.359Z" fill="#072359"/>
<path d="M339.657 76.7767C335.317 77.1901 329.323 78.6367 323.847 82.8734C314.03 90.5201 313.1 104.987 313.1 104.987L311.963 98.2701C311.963 98.2701 312.273 76.9834 331.183 75.1234C334.283 74.8134 337.177 75.4334 339.657 76.7767Z" fill="#506893"/>
<path d="M385.846 136.606C385.846 136.606 387.293 131.852 384.296 127.926C381.3 123.999 373.24 127.099 373.24 127.099C373.24 127.099 379.646 111.082 371.896 104.262C364.353 97.6491 355.156 103.952 354.743 104.262C355.57 103.436 364.87 94.6525 374.893 100.336C385.226 106.226 379.543 121.416 379.336 121.829C379.646 121.726 386.983 120.072 389.36 124.206C391.736 128.442 389.36 134.952 389.36 134.952C389.36 134.952 394.836 135.882 398.97 137.432C394.733 137.019 385.846 136.606 385.846 136.606Z" fill="#506893"/>
<path d="M235.703 174.943C232.81 178.043 220.927 179.8 198.09 182.176C179.697 184.14 156.86 184.863 155.207 180.73C153.553 176.596 168.33 174.943 168.33 174.943C168.33 174.943 163.473 169.156 170.293 162.13C175.253 156.963 183.313 161.923 183.623 162.13C183.52 161.82 176.39 147.146 183.21 139.5C184.347 138.26 185.793 137.123 187.757 136.4C187.86 136.4 187.963 136.296 188.067 136.296C201.913 131.336 209.56 160.166 209.56 160.166C209.56 160.166 222.683 153.346 227.023 159.443C231.157 165.126 228.78 171.016 228.47 171.74V171.843C228.47 171.843 234.153 171.843 235.807 173.186C236.323 173.6 236.427 174.22 235.703 174.943Z" fill="#273D7A"/>
<path d="M235.703 174.943C232.81 178.043 220.927 179.8 198.09 182.177C179.697 184.14 156.86 184.863 155.207 180.73C153.553 176.597 168.33 174.943 168.33 174.943C168.33 174.943 163.473 169.157 170.293 162.13C175.253 156.963 183.313 161.923 183.623 162.13C183.52 161.82 176.39 147.147 183.21 139.5C182.693 141.877 182.59 145.287 183.727 149.73C186.62 161.407 191.477 168.123 191.477 168.123C191.477 168.123 179.077 160.89 173.083 164.61C167.09 168.33 173.703 176.08 173.703 176.08C173.703 176.08 161.407 177.01 161.303 180.007C161.097 182.9 195.92 178.87 212.66 177.217C227.023 175.873 233.017 174.633 235.91 173.083C236.323 173.6 236.427 174.22 235.703 174.943Z" fill="#072359"/>
<path d="M228.47 171.74L227.23 172.36C227.23 172.36 228.264 162.956 223.304 160.476C218.24 157.996 207.287 165.54 207.287 165.54C207.287 165.54 206.357 155.62 200.054 146.113C196.024 140.016 191.064 137.433 188.067 136.296C201.914 131.336 209.56 160.166 209.56 160.166C209.56 160.166 222.684 153.346 227.024 159.443C231.157 165.126 228.78 171.12 228.47 171.74Z" fill="#506893"/>
<path d="M209.664 193.13L193.854 212.97C193.337 213.693 192.2 213.073 192.51 212.246L192.614 212.143L197.367 200.053C197.367 199.95 197.47 199.846 197.367 199.743C197.367 199.33 197.057 199.123 196.644 199.123L190.444 199.846C188.997 200.053 187.964 198.606 188.584 197.263L188.687 196.953L193.854 185.896L193.957 185.69C194.267 184.966 193.75 184.243 193.027 184.243L186.827 184.346C184.76 184.346 183.52 182.176 184.554 180.42L184.76 180.006L199.227 155.826C199.537 155.413 199.95 155.206 200.364 155.31C200.88 155.413 201.294 155.93 201.19 156.55L198.504 171.843C198.4 172.67 199.124 173.393 199.847 173.186L206.667 171.74C207.184 171.636 207.7 171.74 208.114 171.946C208.837 172.463 209.25 173.496 208.837 174.426L202.017 188.376C201.707 188.996 202.12 189.72 202.844 189.823C202.844 189.823 202.844 189.823 202.947 189.823L208.32 189.926C208.63 189.926 208.94 190.03 209.147 190.133C210.077 190.753 210.49 192.096 209.664 193.13Z" fill="#FEC272"/>
<path d="M193.853 185.999V185.793C194.163 185.069 193.647 184.346 192.923 184.346L186.723 184.449C184.657 184.449 183.417 182.279 184.45 180.523L184.657 180.109C184.967 180.523 185.483 180.833 186.517 180.936C188.377 181.039 193.44 180.936 194.99 180.936C196.437 181.143 193.853 185.999 193.853 185.999Z" fill="#FF8D76"/>
<path d="M197.367 199.64C197.367 199.227 197.057 199.02 196.643 199.02L190.443 199.743C188.997 199.95 187.963 198.503 188.583 197.16L188.687 196.85C189.203 196.953 190.133 197.16 191.58 196.953C194.163 196.643 197.883 195.92 198.193 196.23C198.4 196.747 197.573 199.123 197.367 199.64Z" fill="#FF8D76"/>
<path d="M198.4 171.945C198.297 172.772 199.02 173.495 199.743 173.289C197.78 174.012 195.817 174.219 196.127 172.255C196.437 170.499 199.64 157.789 200.157 155.412C200.673 155.515 201.087 156.032 200.983 156.652L198.4 171.945Z" fill="#FF8D76"/>
<path d="M202.017 188.583C201.707 189.203 202.12 189.926 202.844 190.029C202.74 190.029 202.637 190.029 202.534 190.029C200.777 190.029 199.124 189.513 200.364 187.136C201.397 185.069 206.77 174.943 208.217 172.256C208.94 172.773 209.354 173.806 208.94 174.736L202.017 188.583Z" fill="#FF8D76"/>
<path d="M209.664 193.13L193.854 212.97C193.337 213.693 192.2 213.073 192.51 212.246L192.614 212.143C193.234 211.523 194.37 210.49 195.92 208.216C197.78 205.53 207.184 192.923 209.147 190.236C210.077 190.753 210.49 192.096 209.664 193.13Z" fill="#FF8D76"/>
<path d="M340.172 205.22L302.145 252.96C300.802 254.614 298.219 253.167 298.942 251.1L299.045 250.79L310.619 221.65C310.722 221.444 310.722 221.237 310.722 220.927C310.722 220.1 309.895 219.274 308.965 219.48L294.085 221.237C290.675 221.65 288.195 218.24 289.642 215.14L289.952 214.52L302.249 187.964L302.455 187.55C303.179 185.897 301.939 183.934 300.182 184.037L285.302 184.347C280.342 184.45 277.242 179.077 279.825 174.84L280.342 174.014L315.062 115.94C315.682 114.804 316.819 114.494 317.852 114.7C319.092 115.01 320.125 116.147 319.815 117.697L313.409 154.38C313.099 156.344 314.752 157.997 316.715 157.584L333.249 154.07C334.489 153.76 335.729 154.07 336.659 154.69C338.519 155.827 339.449 158.307 338.312 160.58L321.985 194.164C321.262 195.714 322.295 197.47 323.949 197.574H324.052L336.865 197.78C337.589 197.78 338.209 197.987 338.829 198.297C341.102 199.434 342.135 202.844 340.172 205.22Z" fill="#FEC272"/>
<path d="M302.25 187.964H302.146L302.353 187.55C303.076 185.897 301.836 183.934 300.08 184.037L285.2 184.347C280.24 184.45 277.14 179.077 279.723 174.84L280.24 174.014C280.963 174.84 282.306 175.874 284.58 175.977C289.023 176.184 301.216 175.874 304.833 176.08C308.45 176.287 302.25 187.964 302.25 187.964Z" fill="#FF8D76"/>
<path d="M310.62 220.926C310.62 220.1 309.793 219.273 308.863 219.48L293.983 221.236C290.573 221.65 288.093 218.24 289.54 215.14L289.85 214.52C291.193 214.83 293.467 215.14 296.773 214.726C302.87 213.9 311.963 212.143 312.687 213.073C313.203 213.9 311.137 219.686 310.62 220.926Z" fill="#FF8D76"/>
<path d="M313.203 154.381C312.893 156.345 314.547 157.998 316.51 157.585C311.653 159.341 307.003 159.755 307.83 155.208C308.553 151.075 316.2 120.385 317.543 114.805C318.783 115.115 319.817 116.251 319.507 117.801L313.203 154.381Z" fill="#FF8D76"/>
<path d="M321.78 194.163C321.057 195.713 322.09 197.469 323.743 197.573C323.433 197.573 323.227 197.573 322.917 197.573C318.577 197.573 314.753 196.333 317.647 190.546C320.127 185.483 332.94 161.303 336.453 154.689C338.313 155.826 339.243 158.306 338.107 160.579L321.78 194.163Z" fill="#FF8D76"/>
<path d="M340.173 205.22L302.147 252.96C300.803 254.614 298.22 253.167 298.943 251.1L299.047 250.79C300.597 249.344 303.18 246.76 307.003 241.387C311.55 234.877 334.077 204.6 338.727 198.297C341.103 199.434 342.137 202.844 340.173 205.22Z" fill="#FF8D76"/>
<path d="M451.67 233.119L438.547 249.549C438.133 250.169 437.203 249.652 437.41 248.929V248.826L441.337 238.802C441.337 238.699 441.337 238.596 441.337 238.596C441.337 238.286 441.027 238.079 440.717 238.079L435.55 238.699C434.413 238.802 433.483 237.666 434 236.632L434.103 236.426L438.34 227.332L438.443 227.229C438.753 226.609 438.237 225.989 437.617 225.989L432.45 226.092C430.797 226.092 429.66 224.232 430.59 222.786L430.797 222.476L442.783 202.429C442.99 202.016 443.403 201.912 443.713 202.016C444.127 202.119 444.54 202.532 444.437 203.049L442.267 215.656C442.163 216.276 442.783 216.896 443.403 216.792L449.087 215.552C449.5 215.449 449.913 215.552 450.223 215.759C450.843 216.172 451.153 216.999 450.843 217.826L445.16 229.399C444.953 229.916 445.263 230.536 445.78 230.536L450.223 230.639C450.43 230.639 450.74 230.742 450.843 230.846C451.98 231.156 452.29 232.292 451.67 233.119Z" fill="#FEC272"/>
<path d="M438.65 227.128V227.025C438.96 226.405 438.443 225.785 437.823 225.785L432.657 225.888C431.003 225.888 429.867 224.028 430.797 222.581L431.003 222.271C431.21 222.581 431.727 222.891 432.553 222.995C434.103 223.098 438.237 222.995 439.58 222.995C440.923 222.995 438.65 227.128 438.65 227.128Z" fill="#FF8D76"/>
<path d="M441.544 238.493C441.544 238.183 441.234 237.977 440.924 237.977L435.757 238.597C434.62 238.7 433.69 237.563 434.207 236.53L434.31 236.323C434.724 236.427 435.55 236.53 436.687 236.427C438.754 236.117 441.957 235.6 442.164 235.91C442.37 236.117 441.647 238.08 441.544 238.493Z" fill="#FF8D76"/>
<path d="M442.37 215.554C442.267 216.174 442.887 216.794 443.507 216.691C441.853 217.311 440.2 217.414 440.51 215.864C440.717 214.417 443.403 203.877 443.92 201.914C444.333 202.017 444.747 202.431 444.643 202.947L442.37 215.554Z" fill="#FF8D76"/>
<path d="M445.367 229.298C445.16 229.815 445.47 230.435 445.987 230.435C445.883 230.435 445.78 230.435 445.677 230.435C444.23 230.435 442.887 230.021 443.92 227.955C444.747 226.198 449.19 217.828 450.43 215.555C451.05 215.968 451.36 216.795 451.05 217.621L445.367 229.298Z" fill="#FF8D76"/>
<path d="M451.67 233.121L438.547 249.551C438.133 250.171 437.203 249.654 437.41 248.931V248.827C437.927 248.311 438.857 247.484 440.097 245.624C441.647 243.351 449.397 232.914 451.05 230.744C451.98 231.157 452.29 232.294 451.67 233.121Z" fill="#FF8D76"/>
<path d="M481.844 223.098C481.74 225.474 462.934 228.058 441.957 228.574C420.98 229.091 407.65 227.024 409.097 224.648C410.543 222.374 418.19 221.548 418.19 221.548C418.19 221.548 410.957 215.968 414.78 208.114C418.707 200.261 427.077 205.841 427.077 205.841C427.077 205.841 424.39 193.854 432.243 190.031C433.483 189.411 434.93 188.998 436.687 188.894C437.617 188.791 438.444 188.894 439.374 188.998C450.637 190.651 455.39 208.528 455.39 208.528C455.39 208.528 461.797 201.811 466.55 205.841C471.304 209.871 469.237 216.898 469.237 216.898C469.237 216.898 471.51 215.451 474.404 216.174C475.954 216.588 476.574 217.621 476.884 218.654C477.194 219.584 477.194 220.411 477.194 220.411C477.194 220.411 479.674 220.618 481.017 221.548C481.534 221.858 481.844 222.374 481.844 223.098Z" fill="#273D7A"/>
<path d="M481.844 223.098C481.74 225.475 462.934 228.058 441.957 228.575C420.98 229.091 407.65 227.025 409.097 224.648C410.543 222.375 418.19 221.548 418.19 221.548C418.19 221.548 410.957 215.968 414.78 208.115C418.707 200.261 427.077 205.841 427.077 205.841C427.077 205.841 424.39 193.855 432.243 190.031C431.417 192.098 430.384 195.405 430.59 198.815C431.107 205.221 433.69 210.181 433.897 210.491C433.483 210.285 424.39 205.738 419.533 208.528C414.573 211.421 421.807 222.581 421.807 222.581C421.807 222.581 415.193 224.028 418.397 225.475C421.6 226.921 452.704 226.715 464.587 225.371C472.544 224.441 478.124 222.685 481.017 221.548C481.534 221.858 481.844 222.375 481.844 223.098Z" fill="#072359"/>
<path d="M476.884 218.551C476.574 218.345 476.16 218.241 475.85 218.035C472.957 216.588 466.964 219.481 466.964 219.481C466.964 219.481 468.204 210.491 464.587 208.115C460.97 205.738 454.254 213.488 454.254 213.488C454.254 213.488 453.427 208.631 449.19 200.261C446.607 195.198 442.37 191.271 439.374 188.895C450.637 190.548 455.39 208.425 455.39 208.425C455.39 208.425 461.797 201.708 466.55 205.738C471.304 209.768 469.237 216.795 469.237 216.795C469.237 216.795 471.51 215.348 474.404 216.071C475.85 216.381 476.574 217.518 476.884 218.551Z" fill="#506893"/>
<path d="M321.574 481.947V528.447C321.574 532.167 318.577 535.267 314.754 535.267H194.577C190.857 535.267 187.757 532.27 187.757 528.447V481.947C187.757 478.227 190.754 475.127 194.577 475.127H314.857C318.577 475.127 321.574 478.227 321.574 481.947Z" fill="#E1ECFF"/>
<path d="M207.7 491.247C209.641 491.247 211.214 489.674 211.214 487.734C211.214 485.794 209.641 484.221 207.7 484.221C205.76 484.221 204.187 485.794 204.187 487.734C204.187 489.674 205.76 491.247 207.7 491.247Z" fill="#273D7A"/>
<path d="M220.204 491.247C222.144 491.247 223.717 489.674 223.717 487.734C223.717 485.794 222.144 484.221 220.204 484.221C218.263 484.221 216.69 485.794 216.69 487.734C216.69 489.674 218.263 491.247 220.204 491.247Z" fill="#0BC3B8"/>
<path d="M232.604 491.247C234.544 491.247 236.117 489.674 236.117 487.734C236.117 485.794 234.544 484.221 232.604 484.221C230.663 484.221 229.09 485.794 229.09 487.734C229.09 489.674 230.663 491.247 232.604 491.247Z" fill="#0BC3B8"/>
<path d="M302.767 506.333H272.077C270.733 506.333 269.597 505.196 269.597 503.853C269.597 502.51 270.733 501.373 272.077 501.373H302.767C304.11 501.373 305.247 502.51 305.247 503.853C305.247 505.196 304.213 506.333 302.767 506.333Z" fill="#273D7A"/>
<path d="M303.387 509.021C306.24 509.021 308.554 506.708 308.554 503.854C308.554 501.001 306.24 498.688 303.387 498.688C300.533 498.688 298.22 501.001 298.22 503.854C298.22 506.708 300.533 509.021 303.387 509.021Z" fill="#0BC3B8"/>
<path d="M259.573 535.267H203.463L205.53 530.203C206.563 527.62 209.043 525.967 211.833 525.967H251.307C254.097 525.967 256.473 527.62 257.61 530.203L259.573 535.267Z" fill="#273D7A"/>
<path d="M307.107 535.268H204.187V545.498H307.107V535.268Z" fill="#273D7A"/>
<path d="M307.107 535.268H204.187V540.331H307.107V535.268Z" fill="#072359"/>
<path d="M198.504 475.127V535.267H194.577C190.857 535.267 187.757 532.27 187.757 528.447V481.947C187.757 478.227 190.754 475.127 194.577 475.127H198.504Z" fill="#CDE0FC"/>
<path d="M321.573 481.947V528.447C321.573 532.167 318.577 535.267 314.753 535.267H312.583V475.127H314.753C318.577 475.127 321.573 478.227 321.573 481.947Z" fill="#F0F5FC"/>
<path d="M321.574 427.697V460.35C321.574 464.07 318.577 467.17 314.754 467.17H194.577C190.857 467.17 187.757 464.174 187.757 460.35V427.697C187.757 423.977 190.754 420.877 194.577 420.877H314.857C318.577 420.877 321.574 423.977 321.574 427.697Z" fill="#E1ECFF"/>
<path d="M207.7 436.997C209.641 436.997 211.214 435.424 211.214 433.484C211.214 431.544 209.641 429.971 207.7 429.971C205.76 429.971 204.187 431.544 204.187 433.484C204.187 435.424 205.76 436.997 207.7 436.997Z" fill="#0BC3B8"/>
<path d="M220.204 436.997C222.144 436.997 223.717 435.424 223.717 433.484C223.717 431.544 222.144 429.971 220.204 429.971C218.263 429.971 216.69 431.544 216.69 433.484C216.69 435.424 218.263 436.997 220.204 436.997Z" fill="#0BC3B8"/>
<path d="M232.604 436.997C234.544 436.997 236.117 435.424 236.117 433.484C236.117 431.544 234.544 429.971 232.604 429.971C230.663 429.971 229.09 431.544 229.09 433.484C229.09 435.424 230.663 436.997 232.604 436.997Z" fill="#273D7A"/>
<path d="M302.767 441.956H272.077C270.733 441.956 269.597 440.819 269.597 439.476C269.597 438.133 270.733 436.996 272.077 436.996H302.767C304.11 436.996 305.247 438.133 305.247 439.476C305.247 440.819 304.213 441.956 302.767 441.956Z" fill="#273D7A"/>
<path d="M303.387 444.54C306.24 444.54 308.554 442.227 308.554 439.374C308.554 436.52 306.24 434.207 303.387 434.207C300.533 434.207 298.22 436.52 298.22 439.374C298.22 442.227 300.533 444.54 303.387 444.54Z" fill="#0BC3B8"/>
<path d="M259.573 467.171H203.463L205.53 462.108C206.563 459.524 209.043 457.871 211.833 457.871H251.307C254.097 457.871 256.473 459.524 257.61 462.108L259.573 467.171Z" fill="#273D7A"/>
<path d="M307.107 467.17H204.187V475.127H307.107V467.17Z" fill="#273D7A"/>
<path d="M307.107 467.17H204.187V471.2H307.107V467.17Z" fill="#072359"/>
<path d="M198.504 420.877V467.067H194.577C190.857 467.067 187.757 464.07 187.757 460.247V427.593C187.757 423.873 190.754 420.773 194.577 420.773H198.504V420.877Z" fill="#CDE0FC"/>
<path d="M321.573 427.698V460.351C321.573 464.071 318.577 467.171 314.753 467.171H312.583V420.981H314.753C318.577 420.878 321.573 423.978 321.573 427.698Z" fill="#F0F5FC"/>
<path d="M321.574 380.164V406.1C321.574 409.82 318.577 412.92 314.754 412.92H194.577C190.857 412.92 187.757 409.924 187.757 406.1V380.06C187.757 376.34 190.754 373.24 194.577 373.24H314.857C318.577 373.344 321.574 376.34 321.574 380.164Z" fill="#E1ECFF"/>
<path d="M207.7 389.464C209.641 389.464 211.214 387.891 211.214 385.951C211.214 384.01 209.641 382.438 207.7 382.438C205.76 382.438 204.187 384.01 204.187 385.951C204.187 387.891 205.76 389.464 207.7 389.464Z" fill="#273D7A"/>
<path d="M220.204 389.464C222.144 389.464 223.717 387.891 223.717 385.951C223.717 384.01 222.144 382.438 220.204 382.438C218.263 382.438 216.69 384.01 216.69 385.951C216.69 387.891 218.263 389.464 220.204 389.464Z" fill="#0BC3B8"/>
<path d="M232.604 389.464C234.544 389.464 236.117 387.891 236.117 385.951C236.117 384.01 234.544 382.438 232.604 382.438C230.663 382.438 229.09 384.01 229.09 385.951C229.09 387.891 230.663 389.464 232.604 389.464Z" fill="#0BC3B8"/>
<path d="M302.767 394.319H272.077C270.733 394.319 269.597 393.183 269.597 391.839C269.597 390.496 270.733 389.359 272.077 389.359H302.767C304.11 389.359 305.247 390.496 305.247 391.839C305.247 393.183 304.213 394.319 302.767 394.319Z" fill="#273D7A"/>
<path d="M303.387 397.007C306.24 397.007 308.554 394.694 308.554 391.84C308.554 388.987 306.24 386.674 303.387 386.674C300.533 386.674 298.22 388.987 298.22 391.84C298.22 394.694 300.533 397.007 303.387 397.007Z" fill="#0BC3B8"/>
<path d="M259.573 412.921H203.463L205.53 407.858C206.563 405.274 209.043 403.621 211.833 403.621H251.307C254.097 403.621 256.473 405.274 257.61 407.858L259.573 412.921Z" fill="#273D7A"/>
<path d="M307.107 412.92H204.187V420.877H307.107V412.92Z" fill="#273D7A"/>
<path d="M307.107 412.92H204.187V416.95H307.107V412.92Z" fill="#072359"/>
<path d="M198.504 373.344V412.92H194.577C190.857 412.92 187.757 409.924 187.757 406.1V380.06C187.757 376.34 190.754 373.24 194.577 373.24H198.504V373.344Z" fill="#CDE0FC"/>
<path d="M321.573 380.164V406.1C321.573 409.82 318.577 412.92 314.753 412.92H312.583V373.344H314.753C318.577 373.344 321.573 376.34 321.573 380.164Z" fill="#F0F5FC"/>
<path d="M321.574 332.527V358.567C321.574 362.287 318.577 365.387 314.754 365.387H194.577C190.857 365.387 187.757 362.39 187.757 358.567V332.527C187.757 328.807 190.754 325.707 194.577 325.707H314.857C318.577 325.81 321.574 328.807 321.574 332.527Z" fill="#E1ECFF"/>
<path d="M207.7 341.827C209.641 341.827 211.214 340.254 211.214 338.314C211.214 336.374 209.641 334.801 207.7 334.801C205.76 334.801 204.187 336.374 204.187 338.314C204.187 340.254 205.76 341.827 207.7 341.827Z" fill="#0BC3B8"/>
<path d="M220.204 341.827C222.144 341.827 223.717 340.254 223.717 338.314C223.717 336.374 222.144 334.801 220.204 334.801C218.263 334.801 216.69 336.374 216.69 338.314C216.69 340.254 218.263 341.827 220.204 341.827Z" fill="#0BC3B8"/>
<path d="M232.604 341.827C234.544 341.827 236.117 340.254 236.117 338.314C236.117 336.374 234.544 334.801 232.604 334.801C230.663 334.801 229.09 336.374 229.09 338.314C229.09 340.254 230.663 341.827 232.604 341.827Z" fill="#273D7A"/>
<path d="M302.767 346.786H272.077C270.733 346.786 269.597 345.65 269.597 344.306C269.597 342.963 270.733 341.826 272.077 341.826H302.767C304.11 341.826 305.247 342.963 305.247 344.306C305.247 345.65 304.213 346.786 302.767 346.786Z" fill="#273D7A"/>
<path d="M303.387 349.474C306.24 349.474 308.554 347.161 308.554 344.307C308.554 341.454 306.24 339.141 303.387 339.141C300.533 339.141 298.22 341.454 298.22 344.307C298.22 347.161 300.533 349.474 303.387 349.474Z" fill="#0BC3B8"/>
<path d="M259.573 365.388H203.463L205.53 360.325C206.563 357.741 209.043 356.088 211.833 356.088H251.307C254.097 356.088 256.473 357.741 257.61 360.325L259.573 365.388Z" fill="#273D7A"/>
<path d="M307.107 365.387H204.187V373.343H307.107V365.387Z" fill="#273D7A"/>
<path d="M307.107 365.387H204.187V369.417H307.107V365.387Z" fill="#072359"/>
<path d="M198.504 325.81V365.387H194.577C190.857 365.387 187.757 362.39 187.757 358.567V332.527C187.757 328.807 190.754 325.707 194.577 325.707H198.504V325.81Z" fill="#CDE0FC"/>
<path d="M321.573 332.527V358.567C321.573 362.287 318.577 365.387 314.753 365.387H312.583V325.811H314.753C318.577 325.811 321.573 328.807 321.573 332.527Z" fill="#F0F5FC"/>
<path d="M396.283 418.81V539.503C396.283 542.707 393.596 545.393 390.393 545.393H330.15C326.843 545.393 324.26 542.707 324.26 539.503V418.81C324.26 415.503 326.946 412.92 330.15 412.92H390.393C393.596 412.92 396.283 415.607 396.283 418.81Z" fill="#0ACCDA"/>
<path d="M343.376 412.92V545.393H330.15C326.843 545.393 324.26 542.707 324.26 539.503V418.81C324.26 415.503 326.946 412.92 330.15 412.92H343.376Z" fill="#0BC3B8"/>
<path d="M332.32 426.768H363.216C364.87 426.768 366.11 428.111 366.11 429.661V443.611C366.11 445.264 364.766 446.504 363.216 446.504H332.32C330.667 446.504 329.426 445.161 329.426 443.611V429.661C329.323 428.008 330.667 426.768 332.32 426.768Z" fill="#5A7FDB"/>
<path d="M391.116 429.661V443.611C391.116 445.264 389.773 446.504 388.223 446.504H373.963C372.31 446.504 371.07 445.161 371.07 443.611V429.661C371.07 428.008 372.413 426.768 373.963 426.768H388.223C389.773 426.768 391.116 428.008 391.116 429.661Z" fill="#273D7A"/>
<path d="M368.796 535.266H351.643C350.403 535.266 349.37 534.232 349.37 532.992V506.642C349.37 505.402 350.403 504.369 351.643 504.369H368.796C370.036 504.369 371.07 505.402 371.07 506.642V532.992C371.07 534.232 370.036 535.266 368.796 535.266Z" fill="#273D7A"/>
<path d="M367.453 521.832H352.986C352.056 521.832 351.333 521.108 351.333 520.178V508.812C351.333 507.882 352.056 507.158 352.986 507.158H367.453C368.383 507.158 369.106 507.882 369.106 508.812V520.178C369.21 521.108 368.383 521.832 367.453 521.832Z" fill="#142966"/>
<path d="M367.246 532.475H353.193C352.16 532.475 351.333 531.648 351.333 530.615V525.758C351.333 524.725 352.16 523.898 353.193 523.898H367.246C368.28 523.898 369.106 524.725 369.106 525.758V530.615C369.21 531.648 368.28 532.475 367.246 532.475Z" fill="#142966"/>
<path d="M360.22 530.926C361.704 530.926 362.907 529.723 362.907 528.239C362.907 526.756 361.704 525.553 360.22 525.553C358.736 525.553 357.533 526.756 357.533 528.239C357.533 529.723 358.736 530.926 360.22 530.926Z" fill="#FEC272"/>
<path d="M391.116 455.287V492.901C391.116 494.657 389.773 496.104 388.016 496.104H332.32C331.286 496.104 330.253 495.484 329.736 494.657C329.426 494.141 329.22 493.521 329.22 492.901V455.287C329.22 453.531 330.563 452.084 332.32 452.084H388.016C389.463 452.084 390.703 453.117 391.013 454.564C391.116 454.874 391.116 455.081 391.116 455.287Z" fill="#273D7A"/>
<path d="M388.843 457.354V490.938C388.843 492.488 387.603 493.728 386.053 493.728H334.49C333.456 493.728 332.63 493.211 332.113 492.384C331.803 491.971 331.7 491.454 331.7 490.834V457.251C331.7 455.701 332.94 454.461 334.49 454.461H386.053C387.396 454.461 388.533 455.391 388.843 456.734C388.843 456.941 388.843 457.148 388.843 457.354Z" fill="#94ADEA"/>
<path d="M388.842 456.734L348.645 493.831H334.489C333.455 493.831 332.628 493.314 332.112 492.488L373.342 454.461H386.052C387.395 454.461 388.532 455.391 388.842 456.734Z" fill="#738DE0"/>
<path d="M388.843 470.271V486.805L381.299 493.832H363.319L388.843 470.271Z" fill="#738DE0"/>
<path d="M355.983 454.461L331.596 476.988V460.351L338.003 454.461H355.983Z" fill="#738DE0"/>
<path d="M303.387 323.95H244.073L245.107 321.057L251.41 304.007L256.99 288.817L263.293 271.767L269.7 254.2C269.907 253.477 270.32 252.96 270.837 252.547C272.903 250.583 276.623 251.203 277.76 254.2L280.343 261.33L284.27 272.077L287.783 281.687L291.71 292.433L295.223 302.043L299.15 312.79L303.387 323.95Z" fill="#0BC3B8"/>
<path d="M284.27 272.077L266.29 283.133L256.99 288.817L263.19 271.87L268.46 268.667L280.344 261.33L284.27 272.077Z" fill="#273D7A"/>
<path d="M291.71 292.331L262.157 310.517L245.107 321.057L251.41 304.007L264.327 296.051L287.784 281.584L291.71 292.331Z" fill="#273D7A"/>
<path d="M299.254 312.686L280.86 323.949H259.574L260.194 323.536L295.327 301.939L299.254 312.686Z" fill="#273D7A"/>
<path d="M270.837 252.547L260.193 323.95H244.073L245.107 321.057L251.41 304.007L256.99 288.817L263.293 271.767L269.7 254.2C270.01 253.58 270.32 252.96 270.837 252.547Z" fill="#0BC3B8"/>
<path d="M259.573 323.95L260.193 323.537V323.95H259.573Z" fill="#0BC3B8"/>
<path d="M264.327 296.051L262.157 310.517L245.107 321.057L251.41 304.007L264.327 296.051Z" fill="#072359"/>
<path d="M268.46 268.666L266.29 283.133L256.99 288.816L263.19 271.869L268.46 268.666Z" fill="#072359"/>
<path d="M304.213 325.81H241.697C239.837 325.81 238.39 324.26 238.39 322.504V322.297C238.39 320.437 239.94 318.99 241.697 318.99H304.213C306.073 318.99 307.52 320.54 307.52 322.297V322.504C307.52 324.26 306.073 325.81 304.213 325.81Z" fill="#0BC3B8"/>
<path d="M188.583 315.064L174.943 280.344L166.263 284.994L187.55 315.58L188.583 315.064Z" fill="#FEC272"/>
<path d="M153.037 280.344L144.77 289.23L182.177 320.23L183.83 318.68L153.037 280.344Z" fill="#FEC272"/>
<path d="M152.107 303.49L147.354 311.344L178.457 325.087L179.18 323.847L152.107 303.49Z" fill="#FEC272"/>
<path d="M389.774 386.156L387.604 401.036C387.604 401.036 393.907 400.726 398.66 404.756C404.86 410.13 405.583 415.09 405.583 415.09L428.937 403.206C428.937 403.206 413.333 408.373 408.167 403.103C403 397.833 407.34 387.19 407.34 387.19C407.34 387.19 400.417 396.18 395.25 394.63C390.187 393.183 389.774 386.156 389.774 386.156Z" fill="#FEC272"/>
</svg>
