<svg class="sort-arrow" width="13" height="17" viewBox="0 0 13 17" fill="none" xmlns="http://www.w3.org/2000/svg">
  <path id="arrow-up" d="M8.52831 8.20503C8.25494 7.93166 7.81173 7.93166 7.53836 8.20503L4.20503 11.5384C3.93166 11.8117 3.93166 12.2549 4.20503 12.5283C4.47839 12.8017 4.92161 12.8017 5.19497 12.5283L7.33333 10.3899V16.2C7.33333 16.5866 7.64673 16.9 8.03333 16.9C8.41993 16.9 8.73333 16.5866 8.73333 16.2V10.3899L10.8717 12.5283C11.1451 12.8017 11.5883 12.8017 11.8616 12.5283C12.135 12.2549 12.135 11.8117 11.8616 11.5384L8.52831 8.20503Z"/>
  <path id="arrow-down" d="M3.53836 8.69497C3.81173 8.96834 4.25494 8.96834 4.52831 8.69497L7.86164 5.36164C8.13501 5.08827 8.13501 4.64506 7.86164 4.37169C7.58827 4.09832 7.14506 4.09832 6.87169 4.37169L4.73333 6.51005V0.699999C4.73333 0.3134 4.41993 0 4.03333 0C3.64673 0 3.33333 0.3134 3.33333 0.699999V6.51005L1.19497 4.37169C0.921607 4.09832 0.478392 4.09832 0.205025 4.37169C-0.0683417 4.64506 -0.0683417 5.08827 0.205025 5.36164L3.53836 8.69497Z"/>
</svg>
