<svg width="16" height="16" viewBox="0 0 16 16" fill="none" xmlns="http://www.w3.org/2000/svg">
<path d="M6.20955 1.59695C6.94543 0.118592 9.05457 0.118589 9.79045 1.59695L11.0246 4.07622C11.2185 4.46581 11.5342 4.78152 11.9238 4.97544L14.403 6.20955C15.8814 6.94543 15.8814 9.05457 14.4031 9.79045L11.9238 11.0246C11.5342 11.2185 11.2185 11.5342 11.0246 11.9238L9.79045 14.403C9.05457 15.8814 6.94543 15.8814 6.20955 14.4031L4.97545 11.9238C4.78152 11.5342 4.46581 11.2185 4.07623 11.0246L1.59695 9.79045C0.118592 9.05457 0.118589 6.94543 1.59695 6.20955L4.07622 4.97545C4.46581 4.78152 4.78152 4.46581 4.97544 4.07623L6.20955 1.59695Z" fill="#F0F2F6"/>
</svg>
