<svg width="24" height="24" viewBox="0 0 24 24" fill="none" xmlns="http://www.w3.org/2000/svg">
<path d="M13.5638 22H10.438C10.0568 21.9994 9.69149 21.8619 9.42196 21.6177C9.15243 21.3734 9.0007 21.0424 9 20.697V6.3014C9.00059 5.95613 9.15234 5.62518 9.42194 5.38119C9.69154 5.1372 10.057 5.00011 10.438 5H13.5638C13.9446 5.00032 14.3097 5.13753 14.5789 5.38152C14.8482 5.62551 14.9996 5.95634 15 6.3014V20.697C14.9996 21.0422 14.8483 21.3732 14.5791 21.6174C14.3098 21.8617 13.9447 21.9993 13.5638 22ZM11.0919 20.1045H12.9072V6.89553H11.0919V20.1045Z" fill="white"/>
<path d="M6.56278 22H3.4381C3.05683 21.9994 2.69139 21.8657 2.42183 21.6282C2.15227 21.3907 2.00059 21.0688 2 20.733V12.2654C2.00047 11.9297 2.15218 11.6079 2.42181 11.3707C2.69144 11.1334 3.05696 11.0001 3.4381 11H6.565C6.9456 11.0008 7.31032 11.1345 7.57929 11.3716C7.84825 11.6088 7.99953 11.9302 8 12.2654V20.733C7.99953 21.0687 7.848 21.3906 7.57861 21.6281C7.30922 21.8655 6.94393 21.9993 6.56278 22ZM4.0905 20.1569H5.9064V12.8431H4.0905V20.1569Z" fill="white"/>
<path d="M20.564 22H17.4373C17.0561 21.9993 16.6907 21.8653 16.4213 21.6275C16.1518 21.3897 16.0004 21.0674 16 20.7312V3.26758C16.0004 2.93156 16.1519 2.60938 16.4213 2.37175C16.6908 2.13411 17.0562 2.00041 17.4373 2H20.564C20.945 2.00062 21.3101 2.13442 21.5793 2.37204C21.8485 2.60967 21.9998 2.93173 22 3.26758V20.7312C22.0002 21.0673 21.8491 21.3898 21.5799 21.6277C21.3106 21.8656 20.9452 21.9995 20.564 22ZM18.0935 20.1543H19.9078V3.8457H18.0935V20.1543Z" fill="white"/>
<path d="M6 12H4V21H6V12Z" fill="white"/>
</svg>
