<svg width="40" height="40" viewBox="0 0 40 40" fill="none" xmlns="http://www.w3.org/2000/svg">
<path d="M35.4842 9.817L18.8175 26.4837C18.1675 27.1337 17.1175 27.1337 16.4675 26.4837L11.7509 21.767C11.1009 21.117 11.1009 20.067 11.7509 19.417C12.4009 18.767 13.4509 18.767 14.1009 19.417L17.6342 22.9503L33.1175 7.467C33.7675 6.817 34.8175 6.817 35.4675 7.467C36.1342 8.117 36.1342 9.167 35.4842 9.817ZM26.2842 4.567C23.4675 3.417 20.2675 3.017 16.9342 3.617C10.1509 4.83367 4.73419 10.3003 3.58419 17.0837C1.68419 28.3337 11.0509 37.967 22.2342 36.517C28.8342 35.667 34.3675 30.7503 36.1009 24.3337C36.7675 21.8837 36.8342 19.517 36.4509 17.3003C36.2342 15.967 34.5842 15.4503 33.6175 16.4003C33.2342 16.7837 33.0675 17.3503 33.1675 17.8837C33.5342 20.1003 33.3675 22.467 32.3009 24.9837C30.3675 29.5003 26.1675 32.817 21.2842 33.267C12.7842 34.0503 5.73419 26.8503 6.78419 18.3003C7.50086 12.4003 12.2509 7.60034 18.1342 6.78367C21.0175 6.38367 23.7509 6.93367 26.0842 8.13367C26.7342 8.467 27.5175 8.35034 28.0342 7.83367C28.8342 7.03367 28.6342 5.68367 27.6342 5.167C27.1842 4.967 26.7342 4.75034 26.2842 4.567Z" fill="white"/>
</svg>
