<svg width="24" height="24" viewBox="0 0 24 24" fill="none" xmlns="http://www.w3.org/2000/svg">
<path d="M21.2897 5.8902L11.2897 15.8902C10.8997 16.2802 10.2697 16.2802 9.87973 15.8902L7.04973 13.0602C6.65973 12.6702 6.65973 12.0402 7.04973 11.6502C7.43973 11.2602 8.06973 11.2602 8.45973 11.6502L10.5797 13.7702L19.8697 4.4802C20.2597 4.0902 20.8897 4.0902 21.2797 4.4802C21.6797 4.8702 21.6797 5.5002 21.2897 5.8902ZM15.7697 2.7402C14.0797 2.0502 12.1597 1.8102 10.1597 2.1702C6.08973 2.9002 2.83973 6.1802 2.14973 10.2502C1.00973 17.0002 6.62973 22.7802 13.3397 21.9102C17.2997 21.4002 20.6197 18.4502 21.6597 14.6002C22.0597 13.1302 22.0997 11.7102 21.8697 10.3802C21.7397 9.5802 20.7497 9.2702 20.1697 9.8402C19.9397 10.0702 19.8397 10.4102 19.8997 10.7302C20.1197 12.0602 20.0197 13.4802 19.3797 14.9902C18.2197 17.7002 15.6997 19.6902 12.7697 19.9602C7.66973 20.4302 3.43973 16.1102 4.06973 10.9802C4.49973 7.4402 7.34973 4.5602 10.8797 4.0702C12.6097 3.8302 14.2497 4.1602 15.6497 4.8802C16.0397 5.0802 16.5097 5.0102 16.8197 4.7002C17.2997 4.2202 17.1797 3.4102 16.5797 3.1002C16.3097 2.9802 16.0397 2.8502 15.7697 2.7402Z" fill="#5A6275"/>
</svg>
