<svg width="24" height="24" viewBox="0 0 24 24" xmlns="http://www.w3.org/2000/svg">
<path fill-rule="evenodd" clip-rule="evenodd" d="M12 1C5.92487 1 1 5.92487 1 12C1 18.0751 5.92487 23 12 23C18.0751 23 23 18.0751 23 12C23 5.92487 18.0751 1 12 1ZM10.6887 11.4069C10.7788 11.3466 10.8691 11.2863 10.9596 11.2259C11.0148 11.1867 11.0701 11.1473 11.1254 11.1079C11.3464 10.9502 11.5675 10.7925 11.7886 10.6442C11.928 10.547 12.0665 10.4486 12.205 10.3502C12.5432 10.1099 12.8813 9.86975 13.2321 9.64789C13.3557 9.57153 13.483 9.49517 13.6212 9.45154L13.6244 9.45047C13.6781 9.43253 13.7385 9.4124 13.7848 9.45518C13.8302 9.49729 13.8149 9.55095 13.8007 9.60073C13.799 9.60682 13.7973 9.61285 13.7957 9.6188C13.7812 9.67698 13.7557 9.72788 13.7121 9.77515C13.1897 10.3387 12.6204 10.8554 12.0499 11.3732C11.9652 11.4501 11.8805 11.527 11.7959 11.6041L11.774 11.615C11.6639 11.7182 11.5545 11.821 11.4454 11.9235C11.2123 12.1427 10.9803 12.3606 10.745 12.5786C10.5596 12.7495 10.4069 12.9422 10.3305 13.1894C10.2614 13.4185 10.3196 13.6948 10.5596 13.8512C10.7302 13.9612 10.8967 14.0781 11.0632 14.1951C11.1665 14.2676 11.2697 14.3402 11.3741 14.4112C11.6747 14.6148 11.9757 14.818 12.2766 15.0212C12.8786 15.4276 13.4806 15.8341 14.0793 16.2437C14.5993 16.6001 15.3265 16.3165 15.4501 15.702C15.4778 15.5749 15.4991 15.4457 15.5205 15.316C15.5273 15.275 15.534 15.2339 15.541 15.1929C15.6119 14.7783 15.682 14.3647 15.752 13.951C15.8219 13.5374 15.8919 13.1239 15.9628 12.7095C15.9883 12.564 16.0128 12.4195 16.0374 12.2749C16.0619 12.1304 16.0864 11.9859 16.1119 11.8404C16.1137 11.8277 16.1146 11.8141 16.1155 11.8004C16.1164 11.7868 16.1173 11.7732 16.1192 11.7605C16.125 11.7247 16.1308 11.6891 16.1366 11.6534C16.178 11.399 16.2191 11.1466 16.2573 10.8914C16.3519 10.2697 16.4428 9.65153 16.5337 9.03339C16.5846 8.69887 16.6282 8.36435 16.6573 8.02983C16.6719 7.87712 16.6828 7.72077 16.6937 7.56442C16.7046 7.40806 16.6537 7.2808 16.541 7.17899C16.4028 7.05536 16.2282 7.04446 16.0537 7.05173C15.8392 7.06264 15.6283 7.10991 15.4247 7.18626C14.9702 7.3608 14.5193 7.53533 14.0684 7.71349C12.8685 8.19346 11.6722 8.67706 10.4832 9.1752C9.9851 9.38246 9.49059 9.58971 8.99608 9.80061C8.79005 9.88787 8.58401 9.97836 8.37797 10.0689C8.27494 10.1141 8.17191 10.1594 8.06888 10.2042C7.9593 10.2528 7.84972 10.3007 7.74025 10.3485C7.49737 10.4546 7.25503 10.5605 7.01442 10.6733C6.57809 10.8732 6.14176 11.0805 5.71997 11.3132C5.71621 11.3153 5.71243 11.3174 5.70865 11.3196C5.62127 11.3684 5.53167 11.4185 5.46545 11.4987C5.37818 11.6005 5.37818 11.6914 5.46545 11.7932C5.51999 11.855 5.58908 11.9059 5.6618 11.9423C6.37811 12.2986 7.1235 12.5713 7.91617 12.6913C8.3125 12.7531 8.68702 12.6767 9.03608 12.4622C9.16345 12.3821 9.29251 12.3036 9.42172 12.2251C9.62077 12.1041 9.82015 11.9829 10.0142 11.855C10.24 11.707 10.464 11.5572 10.6887 11.4069Z" />
</svg>
