<svg width="20" height="20" viewBox="0 0 20 20" fill="none" xmlns="http://www.w3.org/2000/svg">
<path fill-rule="evenodd" clip-rule="evenodd" d="M7.74416 2.74375C7.90044 2.58747 8.1124 2.49967 8.33342 2.49967H11.6667C11.8878 2.49967 12.0997 2.58747 12.256 2.74375C12.4123 2.90003 12.5001 3.11199 12.5001 3.33301V4.16634H7.50008V3.33301C7.50008 3.11199 7.58788 2.90003 7.74416 2.74375ZM5.83342 4.16634V3.33301C5.83342 2.66997 6.09681 2.03408 6.56565 1.56524C7.03449 1.0964 7.67037 0.833008 8.33342 0.833008H11.6667C12.3298 0.833008 12.9657 1.0964 13.4345 1.56524C13.9034 2.03408 14.1667 2.66997 14.1667 3.33301V4.16634H15.8334H17.5001C17.9603 4.16634 18.3334 4.53944 18.3334 4.99967C18.3334 5.45991 17.9603 5.83301 17.5001 5.83301H16.6667V16.6663C16.6667 17.3294 16.4034 17.9653 15.9345 18.4341C15.4657 18.9029 14.8298 19.1663 14.1667 19.1663H5.83342C5.17037 19.1663 4.53449 18.9029 4.06565 18.4341C3.59681 17.9653 3.33341 17.3294 3.33341 16.6663V5.83301H2.50008C2.03984 5.83301 1.66675 5.45991 1.66675 4.99967C1.66675 4.53944 2.03984 4.16634 2.50008 4.16634H4.16675H5.83342ZM5.00008 5.83301V16.6663C5.00008 16.8874 5.08788 17.0993 5.24416 17.2556C5.40044 17.4119 5.6124 17.4997 5.83342 17.4997H14.1667C14.3878 17.4997 14.5997 17.4119 14.756 17.2556C14.9123 17.0993 15.0001 16.8874 15.0001 16.6663V5.83301H5.00008ZM8.33342 8.33301C8.79365 8.33301 9.16675 8.7061 9.16675 9.16634V14.1663C9.16675 14.6266 8.79365 14.9997 8.33342 14.9997C7.87318 14.9997 7.50008 14.6266 7.50008 14.1663V9.16634C7.50008 8.7061 7.87318 8.33301 8.33342 8.33301ZM12.5001 14.1663V9.16634C12.5001 8.7061 12.127 8.33301 11.6667 8.33301C11.2065 8.33301 10.8334 8.7061 10.8334 9.16634V14.1663C10.8334 14.6266 11.2065 14.9997 11.6667 14.9997C12.127 14.9997 12.5001 14.6266 12.5001 14.1663Z" fill="#EE5252"/>
</svg>
