<svg width="46" height="40" viewBox="0 0 46 40" fill="none" xmlns="http://www.w3.org/2000/svg">
<path d="M5.43 40.0001H40.57C44.1633 40.0001 46.4033 36.1034 44.6067 33.0001L27.0367 2.64342C25.24 -0.459915 20.76 -0.459915 18.9633 2.64342L1.39333 33.0001C-0.403335 36.1034 1.83666 40.0001 5.43 40.0001ZM23 23.6668C21.7167 23.6668 20.6667 22.6168 20.6667 21.3334V16.6668C20.6667 15.3834 21.7167 14.3334 23 14.3334C24.2833 14.3334 25.3333 15.3834 25.3333 16.6668V21.3334C25.3333 22.6168 24.2833 23.6668 23 23.6668ZM25.3333 33.0001H20.6667V28.3334H25.3333V33.0001Z" fill="#E7AE1E"/>
</svg>
